# Blender v2.77 (sub 0) OBJ File: ''
# www.blender.org
mtllib aLabyrinth.mtl
o aLabyrinth
v -15.000000 0.000000 15.000000
v -15.000000 3.000000 -15.000000
v -15.000000 0.000000 -15.000000
v -15.000000 3.000000 15.000000
v -7.682930 1.000000 7.682930
v -10.609800 1.000000 10.609800
v -7.682930 1.000000 11.341500
v -11.341500 1.000000 10.609800
v -14.268300 1.000000 7.682930
v -14.268300 1.000000 14.268300
v -11.341500 1.000000 14.268300
v -3.292680 1.000000 -14.268300
v -4.024390 1.000000 -11.341500
v -3.292680 1.000000 -11.341500
v -6.951220 1.000000 -10.609800
v -6.951220 1.000000 -11.341500
v -14.268300 1.000000 -14.268300
v -11.341500 1.000000 -11.341500
v -11.341500 1.000000 4.024390
v 3.292680 1.000000 -6.951220
v -0.365854 1.000000 -4.024390
v 3.292680 1.000000 -4.024390
v -3.292680 1.000000 -4.024390
v -0.365854 1.000000 0.365854
v -3.292680 1.000000 6.951220
v -0.365854 1.000000 3.292680
v -6.951220 1.000000 -6.951220
v -6.951220 1.000000 -4.024390
v -0.365854 1.000000 -15.000000
v -3.292680 1.000000 -15.000000
v 6.951220 1.000000 -14.268300
v 4.024390 1.000000 -11.341500
v 6.951220 1.000000 -3.292680
v 3.292680 1.000000 -11.341500
v 0.365853 1.000000 -14.268300
v 0.365853 1.000000 -10.609800
v 3.292680 1.000000 -7.682930
v -0.365854 1.000000 -10.609800
v -3.292680 1.000000 -7.682930
v 14.268300 1.000000 -14.268300
v 11.341500 1.000000 -11.341500
v 14.268300 1.000000 14.268300
v 10.609800 1.000000 -11.341500
v 7.682930 1.000000 -14.268300
v 7.682930 1.000000 -3.292680
v 10.609800 1.000000 -0.365853
v 4.024390 1.000000 -3.292680
v 3.292680 1.000000 -0.365853
v 0.365853 1.000000 -3.292680
v 0.365853 1.000000 0.365854
v 3.292680 1.000000 3.292680
v 11.341500 1.000000 14.268300
v -0.365854 1.000000 4.024390
v 3.292680 1.000000 6.951220
v 3.292680 1.000000 4.024390
v -4.024390 1.000000 -7.682930
v -7.682930 1.000000 -7.682930
v -10.609800 1.000000 -10.609800
v -7.682930 1.000000 -3.292680
v -4.024390 1.000000 -3.292680
v -6.951220 1.000000 -0.365853
v -4.024390 1.000000 7.682930
v -10.609800 1.000000 -0.365853
v 10.609800 1.000000 0.365854
v 7.682930 1.000000 3.292680
v 10.609800 1.000000 14.268300
v 6.951220 1.000000 3.292680
v 4.024390 1.000000 0.365854
v 4.024390 1.000000 7.682930
v 6.951220 1.000000 10.609800
v -6.951220 1.000000 10.609800
v 7.682930 1.000000 11.341500
v -10.609800 1.000000 14.268300
v -10.609800 1.000000 4.024390
v -7.682930 1.000000 0.365854
v -10.609800 1.000000 0.365854
v -7.682930 1.000000 6.951220
v -14.268300 1.000000 6.951220
v 15.000000 3.000000 15.000000
v 15.000000 0.000000 -15.000000
v 15.000000 3.000000 -15.000000
v 15.000000 0.000000 15.000000
v -0.365854 3.000000 -15.000000
v -3.292680 3.000000 -15.000000
v -14.268300 3.000000 -14.268300
v -3.292680 3.000000 -14.268300
v -14.268300 3.000000 6.951220
v -14.268300 3.000000 7.682930
v -6.951220 3.000000 -11.341500
v -10.609800 3.000000 -10.609800
v -6.951220 3.000000 -10.609800
v -11.341500 3.000000 -11.341500
v -10.609800 3.000000 -0.365853
v -11.341500 3.000000 4.024390
v -10.609800 3.000000 0.365854
v -10.609800 3.000000 4.024390
v -7.682930 3.000000 7.682930
v -7.682930 3.000000 6.951220
v -6.951220 3.000000 -0.365853
v -7.682930 3.000000 0.365854
v -3.292680 3.000000 -4.024390
v -4.024390 3.000000 -3.292680
v -3.292680 3.000000 6.951220
v -6.951220 3.000000 -4.024390
v -7.682930 3.000000 -3.292680
v -7.682930 3.000000 -7.682930
v -3.292680 3.000000 -11.341500
v -4.024390 3.000000 -11.341500
v -3.292680 3.000000 -7.682930
v 10.609800 3.000000 -0.365853
v 11.341500 3.000000 -11.341500
v 10.609800 3.000000 -11.341500
v 14.268300 3.000000 -14.268300
v 7.682930 3.000000 -14.268300
v 6.951220 3.000000 -14.268300
v 7.682930 3.000000 -3.292680
v 0.365853 3.000000 -14.268300
v -0.365854 3.000000 -10.609800
v 0.365853 3.000000 -10.609800
v 14.268300 3.000000 14.268300
v 11.341500 3.000000 14.268300
v 10.609800 3.000000 0.365854
v 10.609800 3.000000 14.268300
v -10.609800 3.000000 14.268300
v -11.341500 3.000000 14.268300
v -11.341500 3.000000 10.609800
v -14.268300 3.000000 14.268300
v 3.292680 3.000000 -6.951220
v 3.292680 3.000000 -7.682930
v -4.024390 3.000000 -7.682930
v -6.951220 3.000000 -6.951220
v 4.024390 3.000000 -11.341500
v 3.292680 3.000000 -11.341500
v 4.024390 3.000000 -3.292680
v 3.292680 3.000000 -4.024390
v 0.365853 3.000000 -3.292680
v -0.365854 3.000000 -4.024390
v -0.365854 3.000000 0.365854
v 0.365853 3.000000 0.365854
v -0.365854 3.000000 3.292680
v 3.292680 3.000000 4.024390
v 3.292680 3.000000 3.292680
v -0.365854 3.000000 4.024390
v 4.024390 3.000000 0.365854
v 3.292680 3.000000 -0.365853
v 4.024390 3.000000 7.682930
v 3.292680 3.000000 6.951220
v -4.024390 3.000000 7.682930
v 6.951220 3.000000 -3.292680
v 6.951220 3.000000 10.609800
v 7.682930 3.000000 3.292680
v 6.951220 3.000000 3.292680
v 7.682930 3.000000 11.341500
v -6.951220 3.000000 10.609800
v -7.682930 3.000000 11.341500
v -10.609800 3.000000 10.609800
vn -1.0000 0.0000 0.0000
vn 0.0000 1.0000 0.0000
vn 1.0000 0.0000 0.0000
vn 0.0000 0.0000 -1.0000
vn 0.0000 -1.0000 0.0000
vn 0.0000 0.0000 1.0000
usemtl Woodlabyrinth
s off
f 1//1 2//1 3//1
f 2//1 1//1 4//1
f 5//2 6//2 7//2
f 5//2 8//2 6//2
f 9//2 8//2 5//2
f 10//2 8//2 9//2
f 8//2 10//2 11//2
f 12//2 13//2 14//2
f 15//2 13//2 16//2
f 12//2 16//2 13//2
f 17//2 16//2 12//2
f 18//2 17//2 19//2
f 16//2 17//2 18//2
f 20//2 21//2 22//2
f 23//2 24//2 21//2
f 25//2 24//2 23//2
f 24//2 25//2 26//2
f 20//2 23//2 21//2
f 27//2 23//2 20//2
f 23//2 27//2 28//2
f 12//2 29//2 30//2
f 31//2 32//2 33//2
f 31//2 34//2 32//2
f 35//2 34//2 31//2
f 36//2 34//2 35//2
f 34//2 36//2 37//2
f 38//2 37//2 36//2
f 29//2 12//2 38//2
f 14//2 38//2 12//2
f 39//2 38//2 14//2
f 38//2 39//2 37//2
f 40//2 41//2 42//2
f 40//2 43//2 41//2
f 44//2 43//2 40//2
f 45//2 43//2 44//2
f 43//2 45//2 46//2
f 33//2 46//2 45//2
f 47//2 33//2 32//2
f 48//2 33//2 47//2
f 33//2 48//2 46//2
f 49//2 48//2 47//2
f 50//2 48//2 49//2
f 48//2 50//2 51//2
f 26//2 50//2 24//2
f 50//2 26//2 51//2
f 42//2 41//2 52//2
f 53//2 54//2 55//2
f 53//2 25//2 54//2
f 26//2 25//2 53//2
f 13//2 15//2 56//2
f 15//2 57//2 56//2
f 57//2 58//2 59//2
f 58//2 57//2 15//2
f 60//2 61//2 62//2
f 59//2 61//2 60//2
f 63//2 59//2 58//2
f 59//2 63//2 61//2
f 64//2 65//2 66//2
f 64//2 67//2 65//2
f 68//2 67//2 64//2
f 69//2 67//2 68//2
f 67//2 69//2 70//2
f 62//2 70//2 69//2
f 62//2 71//2 70//2
f 71//2 62//2 61//2
f 72//2 66//2 65//2
f 7//2 66//2 72//2
f 7//2 73//2 66//2
f 73//2 7//2 6//2
f 74//2 75//2 76//2
f 75//2 74//2 77//2
f 19//2 77//2 74//2
f 19//2 78//2 77//2
f 78//2 19//2 17//2
f 79//3 80//3 81//3
f 80//3 79//3 82//3
f 81//4 29//4 83//4
f 3//4 29//4 80//4
f 80//4 29//4 81//4
f 30//4 2//4 84//4
f 30//4 3//4 2//4
f 29//4 3//4 30//4
f 1//5 80//5 82//5
f 80//5 1//5 3//5
f 1//6 79//6 4//6
f 79//6 1//6 82//6
f 84//2 85//2 86//2
f 2//2 87//2 85//2
f 4//2 87//2 2//2
f 87//2 4//2 88//2
f 2//2 85//2 84//2
f 89//2 90//2 91//2
f 92//2 93//2 90//2
f 94//2 93//2 92//2
f 92//2 90//2 89//2
f 93//2 94//2 95//2
f 95//2 94//2 96//2
f 87//2 97//2 98//2
f 97//2 87//2 88//2
f 98//2 99//2 100//2
f 93//2 100//2 99//2
f 100//2 93//2 95//2
f 101//2 102//2 103//2
f 104//2 102//2 101//2
f 104//2 105//2 102//2
f 105//2 104//2 106//2
f 107//2 108//2 109//2
f 110//2 111//2 112//2
f 81//2 113//2 79//2
f 81//2 114//2 113//2
f 114//2 115//2 116//2
f 81//2 115//2 114//2
f 83//2 115//2 81//2
f 115//2 83//2 117//2
f 118//2 117//2 83//2
f 117//2 118//2 119//2
f 120//2 79//2 113//2
f 121//2 79//2 120//2
f 122//2 111//2 110//2
f 111//2 122//2 121//2
f 123//2 121//2 122//2
f 123//2 79//2 121//2
f 124//2 79//2 123//2
f 125//2 124//2 126//2
f 4//2 124//2 125//2
f 4//2 125//2 127//2
f 124//2 4//2 79//2
f 88//2 4//2 127//2
f 109//2 128//2 129//2
f 130//2 109//2 108//2
f 131//2 109//2 130//2
f 109//2 131//2 128//2
f 131//2 106//2 104//2
f 106//2 131//2 130//2
f 129//2 132//2 133//2
f 132//2 129//2 134//2
f 128//2 134//2 129//2
f 135//2 134//2 128//2
f 135//2 136//2 134//2
f 137//2 136//2 135//2
f 138//2 136//2 137//2
f 136//2 138//2 139//2
f 140//2 141//2 142//2
f 141//2 140//2 143//2
f 110//2 144//2 122//2
f 145//2 144//2 110//2
f 142//2 144//2 145//2
f 141//2 144//2 142//2
f 144//2 141//2 146//2
f 147//2 146//2 141//2
f 103//2 146//2 147//2
f 103//2 148//2 146//2
f 148//2 103//2 102//2
f 116//2 115//2 149//2
f 150//2 151//2 152//2
f 151//2 150//2 153//2
f 154//2 153//2 150//2
f 99//2 98//2 154//2
f 97//2 154//2 98//2
f 154//2 155//2 153//2
f 155//2 154//2 97//2
f 156//2 126//2 124//2
f 11//4 127//4 125//4
f 127//4 11//4 10//4
f 127//3 9//3 88//3
f 9//3 127//3 10//3
f 77//4 87//4 98//4
f 87//4 77//4 78//4
f 9//6 97//6 88//6
f 97//6 9//6 5//6
f 87//3 17//3 85//3
f 17//3 87//3 78//3
f 17//6 86//6 85//6
f 86//6 17//6 12//6
f 11//1 126//1 8//1
f 126//1 11//1 125//1
f 66//4 124//4 123//4
f 124//4 66//4 73//4
f 124//3 6//3 156//3
f 6//3 124//3 73//3
f 6//4 126//4 156//4
f 126//4 6//4 8//4
f 154//3 61//3 99//3
f 61//3 154//3 71//3
f 19//1 92//1 18//1
f 92//1 19//1 94//1
f 96//3 76//3 95//3
f 76//3 96//3 74//3
f 19//6 96//6 94//6
f 96//6 19//6 74//6
f 61//4 93//4 99//4
f 93//4 61//4 63//4
f 76//6 100//6 95//6
f 100//6 76//6 75//6
f 93//3 58//3 90//3
f 58//3 93//3 63//3
f 16//4 92//4 89//4
f 92//4 16//4 18//4
f 91//3 16//3 89//3
f 16//3 91//3 15//3
f 58//6 91//6 90//6
f 91//6 58//6 15//6
f 7//1 97//1 5//1
f 97//1 7//1 155//1
f 77//1 100//1 75//1
f 100//1 77//1 98//1
f 7//6 153//6 155//6
f 153//6 7//6 72//6
f 70//4 154//4 150//4
f 154//4 70//4 71//4
f 59//1 106//1 57//1
f 106//1 59//1 105//1
f 103//3 23//3 101//3
f 23//3 103//3 25//3
f 23//4 104//4 101//4
f 104//4 23//4 28//4
f 59//6 102//6 105//6
f 102//6 59//6 60//6
f 104//3 27//3 131//3
f 27//3 104//3 28//3
f 56//4 106//4 130//4
f 106//4 56//4 57//4
f 27//6 128//6 131//6
f 128//6 27//6 20//6
f 86//3 30//3 84//3
f 30//3 86//3 12//3
f 62//1 102//1 60//1
f 102//1 62//1 148//1
f 54//4 103//4 147//4
f 103//4 54//4 25//4
f 62//6 146//6 148//6
f 146//6 62//6 69//6
f 56//1 108//1 13//1
f 108//1 56//1 130//1
f 37//4 109//4 129//4
f 109//4 37//4 39//4
f 109//3 14//3 107//3
f 14//3 109//3 39//3
f 14//4 108//4 107//4
f 108//4 14//4 13//4
f 146//3 68//3 144//3
f 68//3 146//3 69//3
f 53//1 140//1 26//1
f 140//1 53//1 143//1
f 51//4 140//4 142//4
f 140//4 51//4 26//4
f 53//6 141//6 143//6
f 141//6 53//6 55//6
f 24//1 137//1 21//1
f 137//1 24//1 138//1
f 139//3 49//3 136//3
f 49//3 139//3 50//3
f 24//6 139//6 138//6
f 139//6 24//6 50//6
f 22//4 137//4 135//4
f 137//4 22//4 21//4
f 134//3 32//3 132//3
f 32//3 134//3 47//3
f 49//6 134//6 136//6
f 134//6 49//6 47//6
f 38//1 83//1 29//1
f 83//1 38//1 118//1
f 119//3 35//3 117//3
f 35//3 119//3 36//3
f 38//6 119//6 118//6
f 119//6 38//6 36//6
f 35//6 115//6 117//6
f 115//6 35//6 31//6
f 153//3 65//3 151//3
f 65//3 153//3 72//3
f 51//1 145//1 48//1
f 145//1 51//1 142//1
f 54//1 141//1 55//1
f 141//1 54//1 147//1
f 46//4 145//4 110//4
f 145//4 46//4 48//4
f 68//6 122//6 144//6
f 122//6 68//6 64//6
f 37//1 133//1 34//1
f 133//1 37//1 129//1
f 22//1 128//1 20//1
f 128//1 22//1 135//1
f 32//4 133//4 132//4
f 133//4 32//4 34//4
f 70//1 152//1 67//1
f 152//1 70//1 150//1
f 65//4 152//4 151//4
f 152//4 65//4 67//4
f 121//3 41//3 111//3
f 41//3 121//3 52//3
f 33//1 115//1 31//1
f 115//1 33//1 149//1
f 116//3 44//3 114//3
f 44//3 116//3 45//3
f 33//6 116//6 149//6
f 116//6 33//6 45//6
f 44//6 113//6 114//6
f 113//6 44//6 40//6
f 46//1 112//1 43//1
f 112//1 46//1 110//1
f 66//1 122//1 64//1
f 122//1 66//1 123//1
f 42//4 121//4 120//4
f 121//4 42//4 52//4
f 42//1 113//1 40//1
f 113//1 42//1 120//1
f 41//4 112//4 111//4
f 112//4 41//4 43//4
