# Blender v2.77 (sub 0) OBJ File: ''
# www.blender.org
mtllib aLabyrinth.mtl
o aLabyrinth
v -15.000000 0.000000 15.000000
v -15.000000 3.000000 -15.000000
v -15.000000 0.000000 -15.000000
v -15.000000 3.000000 15.000000
v -7.682930 1.000000 -14.268300
v -10.609800 1.000000 -11.341500
v -7.682930 1.000000 -7.682930
v -14.268300 1.000000 -14.268300
v -14.268300 1.000000 -11.341500
v -10.609800 1.000000 -10.609800
v -11.341500 1.000000 -7.682930
v -14.268300 1.000000 -10.609800
v -11.341500 1.000000 -3.292680
v -11.341500 1.000000 -0.365853
v -14.268300 1.000000 6.951220
v -4.024390 1.000000 4.024390
v -6.951220 1.000000 6.951220
v -4.024390 1.000000 7.682930
v -11.341500 1.000000 4.024390
v -0.365854 1.000000 -10.609800
v -3.292680 1.000000 -10.609800
v -0.365854 1.000000 -3.292680
v 7.682930 1.000000 -14.268300
v 6.951220 1.000000 -11.341500
v 7.682930 1.000000 -11.341500
v 4.024390 1.000000 -10.609800
v 4.024390 1.000000 -11.341500
v -6.951220 1.000000 -14.268300
v -4.024390 1.000000 -11.341500
v -6.951220 1.000000 -6.951220
v -4.024390 1.000000 -4.024390
v -7.682930 1.000000 -4.024390
v -10.609800 1.000000 -6.951220
v -10.609800 1.000000 -3.292680
v -7.682930 1.000000 -0.365853
v 6.951220 1.000000 -7.682930
v 3.292680 1.000000 -7.682930
v 0.365853 1.000000 -10.609800
v 3.292680 1.000000 -6.951220
v 10.609800 1.000000 7.682930
v 7.682930 1.000000 10.609800
v 10.609800 1.000000 11.341500
v 3.292680 1.000000 10.609800
v 0.365853 1.000000 7.682930
v 0.365853 1.000000 11.341500
v 3.292680 1.000000 14.268300
v -14.268300 1.000000 14.268300
v -14.268300 1.000000 11.341500
v 14.268300 1.000000 4.024390
v 11.341500 1.000000 6.951220
v 14.268300 1.000000 14.268300
v 10.609800 1.000000 4.024390
v 7.682930 1.000000 6.951220
v 7.682930 1.000000 0.365854
v 11.341500 1.000000 11.341500
v 7.682930 1.000000 11.341500
v 4.024390 1.000000 14.268300
v 4.024390 1.000000 11.341500
v 10.609800 1.000000 -6.951220
v 7.682930 1.000000 -4.024390
v 10.609800 1.000000 -3.292680
v 0.365853 1.000000 -4.024390
v 10.609800 1.000000 -15.000000
v 7.682930 1.000000 -15.000000
v 10.609800 1.000000 -10.609800
v 11.341500 1.000000 -7.682930
v 11.341500 1.000000 -10.609800
v 7.682930 1.000000 -7.682930
v 14.268300 1.000000 -14.268300
v 11.341500 1.000000 -14.268300
v 14.268300 1.000000 -4.024390
v 11.341500 1.000000 -4.024390
v 14.268300 1.000000 -3.292680
v 11.341500 1.000000 -0.365853
v 14.268300 1.000000 3.292680
v 7.682930 1.000000 -0.365853
v 11.341500 1.000000 0.365854
v 10.609800 1.000000 3.292680
v 6.951220 1.000000 -3.292680
v 4.024390 1.000000 -0.365853
v 6.951220 1.000000 6.951220
v -3.292680 1.000000 -3.292680
v -4.024390 1.000000 -0.365853
v -6.951220 1.000000 0.365854
v -6.951220 1.000000 -3.292680
v 4.024390 1.000000 4.024390
v -0.365854 1.000000 6.951220
v -3.292680 1.000000 4.024390
v -3.292680 1.000000 7.682930
v -0.365854 1.000000 10.609800
v -6.951220 1.000000 7.682930
v -14.268300 1.000000 10.609800
v -14.268300 1.000000 7.682930
v -4.024390 1.000000 0.365854
v 3.292680 1.000000 3.292680
v 3.292680 1.000000 0.365854
v -10.609800 1.000000 3.292680
v -10.609800 1.000000 0.365854
v 15.000000 3.000000 15.000000
v 15.000000 0.000000 -15.000000
v 15.000000 3.000000 -15.000000
v 15.000000 0.000000 15.000000
v 10.609800 3.000000 -15.000000
v 7.682930 3.000000 -15.000000
v -6.951220 3.000000 -14.268300
v 7.682930 3.000000 -14.268300
v -7.682930 3.000000 -7.682930
v -7.682930 3.000000 -14.268300
v -14.268300 3.000000 -11.341500
v -14.268300 3.000000 -14.268300
v -14.268300 3.000000 -10.609800
v -14.268300 3.000000 6.951220
v -14.268300 3.000000 7.682930
v -14.268300 3.000000 10.609800
v -14.268300 3.000000 11.341500
v -6.951220 3.000000 -6.951220
v -10.609800 3.000000 -6.951220
v -11.341500 3.000000 -7.682930
v -11.341500 3.000000 -3.292680
v -10.609800 3.000000 -3.292680
v -10.609800 3.000000 -10.609800
v -10.609800 3.000000 -11.341500
v -6.951220 3.000000 7.682930
v -6.951220 3.000000 6.951220
v 4.024390 3.000000 -11.341500
v 0.365853 3.000000 -10.609800
v 4.024390 3.000000 -10.609800
v -0.365854 3.000000 -10.609800
v 0.365853 3.000000 -4.024390
v -4.024390 3.000000 -11.341500
v -3.292680 3.000000 -10.609800
v -4.024390 3.000000 -4.024390
v -3.292680 3.000000 -3.292680
v -6.951220 3.000000 -3.292680
v -7.682930 3.000000 -4.024390
v -7.682930 3.000000 -0.365853
v -6.951220 3.000000 0.365854
v -10.609800 3.000000 0.365854
v -11.341500 3.000000 -0.365853
v -10.609800 3.000000 3.292680
v 7.682930 3.000000 10.609800
v 4.024390 3.000000 11.341500
v 7.682930 3.000000 11.341500
v 3.292680 3.000000 14.268300
v 3.292680 3.000000 10.609800
v 7.682930 3.000000 -11.341500
v 6.951220 3.000000 -11.341500
v 7.682930 3.000000 -7.682930
v 11.341500 3.000000 -7.682930
v 10.609800 3.000000 -6.951220
v 11.341500 3.000000 -4.024390
v 6.951220 3.000000 -7.682930
v 3.292680 3.000000 -6.951220
v 3.292680 3.000000 -7.682930
v 10.609800 3.000000 3.292680
v 14.268300 3.000000 4.024390
v 14.268300 3.000000 3.292680
v 10.609800 3.000000 4.024390
v 14.268300 3.000000 -3.292680
v 14.268300 3.000000 -4.024390
v 10.609800 3.000000 -3.292680
v 14.268300 3.000000 -14.268300
v 11.341500 3.000000 -14.268300
v 10.609800 3.000000 -10.609800
v 11.341500 3.000000 -10.609800
v 14.268300 3.000000 14.268300
v 4.024390 3.000000 14.268300
v -14.268300 3.000000 14.268300
v 6.951220 3.000000 -3.292680
v 7.682930 3.000000 -0.365853
v 7.682930 3.000000 -4.024390
v 7.682930 3.000000 0.365854
v 6.951220 3.000000 6.951220
v -0.365854 3.000000 -3.292680
v 11.341500 3.000000 0.365854
v 11.341500 3.000000 -0.365853
v 11.341500 3.000000 6.951220
v 10.609800 3.000000 7.682930
v 11.341500 3.000000 11.341500
v 7.682930 3.000000 6.951220
v 0.365853 3.000000 7.682930
v -0.365854 3.000000 6.951220
v -0.365854 3.000000 10.609800
v 0.365853 3.000000 11.341500
v 10.609800 3.000000 11.341500
v 4.024390 3.000000 -0.365853
v 3.292680 3.000000 0.365854
v 4.024390 3.000000 4.024390
v -4.024390 3.000000 -0.365853
v -4.024390 3.000000 0.365854
v 3.292680 3.000000 3.292680
v -3.292680 3.000000 4.024390
v -4.024390 3.000000 4.024390
v -3.292680 3.000000 7.682930
v -11.341500 3.000000 4.024390
v -4.024390 3.000000 7.682930
vn -1.0000 0.0000 0.0000
vn 0.0000 1.0000 0.0000
vn 1.0000 0.0000 0.0000
vn 0.0000 0.0000 -1.0000
vn 0.0000 -1.0000 0.0000
vn 0.0000 0.0000 1.0000
usemtl Woodlabyrinth
s off
f 1//1 2//1 3//1
f 2//1 1//1 4//1
f 5//2 6//2 7//2
f 8//2 6//2 5//2
f 6//2 8//2 9//2
f 10//2 7//2 6//2
f 10//2 11//2 7//2
f 12//2 13//2 11//2
f 13//2 12//2 14//2
f 15//2 14//2 12//2
f 12//2 11//2 10//2
f 16//2 17//2 18//2
f 19//2 17//2 16//2
f 19//2 15//2 17//2
f 14//2 15//2 19//2
f 20//2 21//2 22//2
f 23//2 24//2 25//2
f 26//2 24//2 27//2
f 23//2 27//2 24//2
f 28//2 27//2 23//2
f 27//2 28//2 29//2
f 30//2 29//2 28//2
f 29//2 30//2 31//2
f 30//2 32//2 31//2
f 33//2 32//2 30//2
f 34//2 32//2 33//2
f 32//2 34//2 35//2
f 14//2 34//2 13//2
f 34//2 14//2 35//2
f 24//2 26//2 36//2
f 26//2 37//2 36//2
f 37//2 38//2 39//2
f 38//2 37//2 26//2
f 40//2 41//2 42//2
f 40//2 43//2 41//2
f 44//2 43//2 40//2
f 45//2 43//2 44//2
f 43//2 45//2 46//2
f 47//2 45//2 48//2
f 45//2 47//2 46//2
f 49//2 50//2 51//2
f 52//2 50//2 49//2
f 53//2 52//2 54//2
f 52//2 53//2 50//2
f 55//2 51//2 50//2
f 42//2 51//2 55//2
f 56//2 42//2 41//2
f 42//2 56//2 51//2
f 57//2 56//2 58//2
f 56//2 57//2 51//2
f 59//2 60//2 61//2
f 39//2 60//2 59//2
f 39//2 62//2 60//2
f 62//2 39//2 38//2
f 23//2 63//2 64//2
f 65//2 66//2 67//2
f 63//2 23//2 65//2
f 25//2 65//2 23//2
f 68//2 65//2 25//2
f 65//2 68//2 66//2
f 67//2 69//2 70//2
f 69//2 67//2 71//2
f 66//2 71//2 67//2
f 71//2 66//2 72//2
f 73//2 74//2 75//2
f 61//2 74//2 73//2
f 76//2 61//2 60//2
f 61//2 76//2 74//2
f 77//2 75//2 74//2
f 77//2 78//2 75//2
f 78//2 54//2 52//2
f 54//2 78//2 77//2
f 79//2 80//2 81//2
f 22//2 80//2 79//2
f 82//2 22//2 21//2
f 83//2 22//2 82//2
f 22//2 83//2 80//2
f 84//2 83//2 85//2
f 85//2 83//2 82//2
f 86//2 81//2 80//2
f 86//2 87//2 81//2
f 88//2 87//2 86//2
f 89//2 87//2 88//2
f 87//2 89//2 90//2
f 18//2 90//2 89//2
f 91//2 18//2 17//2
f 18//2 91//2 90//2
f 92//2 91//2 93//2
f 91//2 92//2 90//2
f 94//2 95//2 96//2
f 83//2 84//2 94//2
f 97//2 94//2 84//2
f 97//2 84//2 98//2
f 94//2 97//2 95//2
f 99//3 100//3 101//3
f 100//3 99//3 102//3
f 101//4 63//4 103//4
f 63//4 100//4 64//4
f 100//4 63//4 101//4
f 64//4 2//4 104//4
f 3//4 64//4 100//4
f 64//4 3//4 2//4
f 1//5 100//5 102//5
f 100//5 1//5 3//5
f 1//6 99//6 4//6
f 99//6 1//6 102//6
f 104//2 105//2 106//2
f 107//2 105//2 108//2
f 2//2 105//2 104//2
f 105//2 2//2 108//2
f 2//2 109//2 110//2
f 109//2 2//2 111//2
f 111//2 2//2 112//2
f 4//2 112//2 2//2
f 112//2 4//2 113//2
f 113//2 4//2 114//2
f 114//2 4//2 115//2
f 108//2 2//2 110//2
f 105//2 107//2 116//2
f 107//2 117//2 116//2
f 118//2 117//2 107//2
f 119//2 117//2 118//2
f 117//2 119//2 120//2
f 109//2 121//2 122//2
f 121//2 109//2 111//2
f 112//2 123//2 124//2
f 123//2 112//2 113//2
f 125//2 126//2 127//2
f 126//2 128//2 129//2
f 125//2 128//2 126//2
f 130//2 128//2 125//2
f 128//2 130//2 131//2
f 132//2 131//2 130//2
f 131//2 132//2 133//2
f 132//2 134//2 133//2
f 135//2 134//2 132//2
f 136//2 134//2 135//2
f 134//2 136//2 137//2
f 136//2 138//2 137//2
f 138//2 139//2 140//2
f 139//2 138//2 136//2
f 141//2 142//2 143//2
f 144//2 142//2 145//2
f 145//2 142//2 141//2
f 146//2 147//2 148//2
f 149//2 150//2 151//2
f 148//2 150//2 149//2
f 152//2 148//2 147//2
f 152//2 150//2 148//2
f 153//2 152//2 154//2
f 152//2 153//2 150//2
f 155//2 156//2 157//2
f 156//2 155//2 158//2
f 151//2 159//2 160//2
f 151//2 161//2 159//2
f 161//2 151//2 150//2
f 160//2 101//2 162//2
f 101//2 163//2 162//2
f 103//2 163//2 101//2
f 164//2 163//2 103//2
f 163//2 164//2 165//2
f 159//2 101//2 160//2
f 101//2 159//2 99//2
f 157//2 99//2 159//2
f 156//2 99//2 157//2
f 166//2 99//2 156//2
f 167//2 99//2 166//2
f 142//2 144//2 167//2
f 144//2 99//2 167//2
f 4//2 144//2 168//2
f 144//2 4//2 99//2
f 115//2 4//2 168//2
f 169//2 170//2 171//2
f 170//2 169//2 172//2
f 173//2 172//2 169//2
f 129//2 169//2 171//2
f 129//2 174//2 169//2
f 174//2 129//2 128//2
f 170//2 175//2 176//2
f 175//2 170//2 172//2
f 177//2 178//2 179//2
f 180//2 178//2 177//2
f 172//2 173//2 180//2
f 173//2 178//2 180//2
f 173//2 181//2 178//2
f 182//2 181//2 173//2
f 183//2 181//2 182//2
f 181//2 183//2 184//2
f 115//2 183//2 114//2
f 183//2 115//2 184//2
f 179//2 178//2 185//2
f 186//2 187//2 188//2
f 189//2 187//2 186//2
f 187//2 189//2 190//2
f 191//2 188//2 187//2
f 191//2 192//2 188//2
f 192//2 193//2 194//2
f 191//2 193//2 192//2
f 140//2 193//2 191//2
f 140//2 195//2 193//2
f 195//2 140//2 139//2
f 194//2 193//2 196//2
f 46//4 168//4 144//4
f 168//4 46//4 47//4
f 168//3 48//3 115//3
f 48//3 168//3 47//3
f 90//4 114//4 183//4
f 114//4 90//4 92//4
f 48//6 184//6 115//6
f 184//6 48//6 45//6
f 114//3 93//3 113//3
f 93//3 114//3 92//3
f 17//4 112//4 124//4
f 112//4 17//4 15//4
f 93//6 123//6 113//6
f 123//6 93//6 91//6
f 112//3 12//3 111//3
f 12//3 112//3 15//3
f 6//4 109//4 122//4
f 109//4 6//4 9//4
f 121//3 6//3 122//3
f 6//3 121//3 10//3
f 12//6 121//6 111//6
f 121//6 12//6 10//6
f 109//3 8//3 110//3
f 8//3 109//3 9//3
f 8//6 108//6 110//6
f 108//6 8//6 5//6
f 123//3 17//3 124//3
f 17//3 123//3 91//3
f 19//1 139//1 14//1
f 139//1 19//1 195//1
f 19//6 193//6 195//6
f 193//6 19//6 16//6
f 95//4 140//4 191//4
f 140//4 95//4 97//4
f 140//3 98//3 138//3
f 98//3 140//3 97//3
f 35//4 139//4 136//4
f 139//4 35//4 14//4
f 137//3 85//3 134//3
f 85//3 137//3 84//3
f 98//6 137//6 138//6
f 137//6 98//6 84//6
f 13//1 118//1 11//1
f 118//1 13//1 119//1
f 120//3 33//3 117//3
f 33//3 120//3 34//3
f 13//6 120//6 119//6
f 120//6 13//6 34//6
f 7//4 118//4 107//4
f 118//4 7//4 11//4
f 116//3 28//3 105//3
f 28//3 116//3 30//3
f 33//6 116//6 117//6
f 116//6 33//6 30//6
f 35//1 135//1 32//1
f 135//1 35//1 136//1
f 31//4 135//4 132//4
f 135//4 31//4 32//4
f 133//3 21//3 131//3
f 21//3 133//3 82//3
f 85//6 133//6 134//6
f 133//6 85//6 82//6
f 7//1 108//1 5//1
f 108//1 7//1 107//1
f 28//6 106//6 105//6
f 106//6 28//6 23//6
f 184//3 44//3 181//3
f 44//3 184//3 45//3
f 18//1 193//1 16//1
f 193//1 18//1 196//1
f 194//3 88//3 192//3
f 88//3 194//3 89//3
f 18//6 194//6 196//6
f 194//6 18//6 89//6
f 88//6 188//6 192//6
f 188//6 88//6 86//6
f 94//1 189//1 83//1
f 189//1 94//1 190//1
f 94//6 187//6 190//6
f 187//6 94//6 96//6
f 80//4 189//4 186//4
f 189//4 80//4 83//4
f 31//1 130//1 29//1
f 130//1 31//1 132//1
f 27//4 130//4 125//4
f 130//4 27//4 29//4
f 129//3 38//3 126//3
f 38//3 129//3 62//3
f 21//6 128//6 131//6
f 128//6 21//6 20//6
f 90//1 182//1 87//1
f 182//1 90//1 183//1
f 81//4 182//4 173//4
f 182//4 81//4 87//4
f 44//6 178//6 181//6
f 178//6 44//6 40//6
f 188//3 80//3 186//3
f 80//3 188//3 86//3
f 22//1 128//1 20//1
f 128//1 22//1 174//1
f 22//6 169//6 174//6
f 169//6 22//6 79//6
f 60//4 129//4 171//4
f 129//4 60//4 62//4
f 127//3 27//3 125//3
f 27//3 127//3 26//3
f 38//6 127//6 126//6
f 127//6 38//6 26//6
f 46//1 145//1 43//1
f 145//1 46//1 144//1
f 51//4 167//4 166//4
f 167//4 51//4 57//4
f 167//3 58//3 142//3
f 58//3 167//3 57//3
f 41//4 145//4 141//4
f 145//4 41//4 43//4
f 143//3 41//3 141//3
f 41//3 143//3 56//3
f 58//6 143//6 142//6
f 143//6 58//6 56//6
f 95//1 187//1 96//1
f 187//1 95//1 191//1
f 170//3 60//3 171//3
f 60//3 170//3 76//3
f 39//1 154//1 37//1
f 154//1 39//1 153//1
f 39//6 150//6 153//6
f 150//6 39//6 59//6
f 36//4 154//4 152//4
f 154//4 36//4 37//4
f 106//3 64//3 104//3
f 64//3 106//3 23//3
f 81//1 169//1 79//1
f 169//1 81//1 173//1
f 179//3 50//3 177//3
f 50//3 179//3 55//3
f 50//4 180//4 177//4
f 180//4 50//4 53//4
f 180//3 54//3 172//3
f 54//3 180//3 53//3
f 175//3 74//3 176//3
f 74//3 175//3 77//3
f 54//6 175//6 172//6
f 175//6 54//6 77//6
f 74//4 170//4 176//4
f 170//4 74//4 76//4
f 36//1 147//1 24//1
f 147//1 36//1 152//1
f 151//3 66//3 149//3
f 66//3 151//3 72//3
f 66//4 148//4 149//4
f 148//4 66//4 68//4
f 148//3 25//3 146//3
f 25//3 148//3 68//3
f 25//4 147//4 146//4
f 147//4 25//4 24//4
f 51//1 156//1 49//1
f 156//1 51//1 166//1
f 42//1 178//1 40//1
f 178//1 42//1 185//1
f 42//6 179//6 185//6
f 179//6 42//6 55//6
f 52//1 155//1 78//1
f 155//1 52//1 158//1
f 52//6 156//6 158//6
f 156//6 52//6 49//6
f 75//4 155//4 157//4
f 155//4 75//4 78//4
f 75//1 159//1 73//1
f 159//1 75//1 157//1
f 61//1 150//1 59//1
f 150//1 61//1 161//1
f 61//6 159//6 161//6
f 159//6 61//6 73//6
f 71//4 151//4 160//4
f 151//4 71//4 72//4
f 71//1 162//1 69//1
f 162//1 71//1 160//1
f 65//1 103//1 63//1
f 103//1 65//1 164//1
f 165//3 70//3 163//3
f 70//3 165//3 67//3
f 65//6 165//6 164//6
f 165//6 65//6 67//6
f 70//6 162//6 163//6
f 162//6 70//6 69//6
