# Blender v2.77 (sub 0) OBJ File: ''
# www.blender.org
mtllib aLabyrinth.mtl
o aLabyrinth
v -15.000000 0.000000 15.000000
v -15.000000 3.000000 -15.000000
v -15.000000 0.000000 -15.000000
v -15.000000 3.000000 15.000000
v -14.268300 1.000000 -6.951220
v -11.341500 1.000000 4.024390
v -11.341500 1.000000 -6.951220
v -14.268300 1.000000 10.609800
v -11.341500 1.000000 6.951220
v -0.365854 1.000000 -11.341500
v -3.292680 1.000000 -10.609800
v -0.365854 1.000000 -7.682930
v -4.024390 1.000000 -7.682930
v -6.951220 1.000000 -10.609800
v -4.024390 1.000000 -6.951220
v -0.365854 1.000000 -6.951220
v -3.292680 1.000000 -4.024390
v -0.365854 1.000000 -3.292680
v -6.951220 1.000000 -4.024390
v 3.292680 1.000000 -10.609800
v 0.365853 1.000000 -10.609800
v 3.292680 1.000000 -6.951220
v 14.268300 1.000000 -3.292680
v 11.341500 1.000000 -0.365853
v 14.268300 1.000000 3.292680
v -3.292680 1.000000 -0.365853
v 11.341500 1.000000 0.365854
v 10.609800 1.000000 3.292680
v 7.682930 1.000000 0.365854
v 10.609800 1.000000 4.024390
v 11.341500 1.000000 7.682930
v -0.365854 1.000000 10.609800
v 11.341500 1.000000 10.609800
v -3.292680 1.000000 7.682930
v -3.292680 1.000000 11.341500
v -0.365854 1.000000 14.268300
v -14.268300 1.000000 14.268300
v -14.268300 1.000000 11.341500
v 14.268300 1.000000 4.024390
v 11.341500 1.000000 6.951220
v 7.682930 1.000000 6.951220
v 14.268300 1.000000 14.268300
v 11.341500 1.000000 11.341500
v 0.365853 1.000000 14.268300
v 0.365853 1.000000 11.341500
v 6.951220 1.000000 -14.268300
v 4.024390 1.000000 -11.341500
v 6.951220 1.000000 -10.609800
v -3.292680 1.000000 -11.341500
v -14.268300 1.000000 -14.268300
v -11.341500 1.000000 -11.341500
v -11.341500 1.000000 -10.609800
v 11.341500 1.000000 -14.268300
v 10.609800 1.000000 -11.341500
v 11.341500 1.000000 -11.341500
v 7.682930 1.000000 -14.268300
v 7.682930 1.000000 -10.609800
v 10.609800 1.000000 -7.682930
v 4.024390 1.000000 -7.682930
v 14.268300 1.000000 -15.000000
v 11.341500 1.000000 -15.000000
v 14.268300 1.000000 -4.024390
v 11.341500 1.000000 -6.951220
v 0.365853 1.000000 -4.024390
v -7.682930 1.000000 -10.609800
v -10.609800 1.000000 -7.682930
v -7.682930 1.000000 6.951220
v -14.268300 1.000000 -7.682930
v -10.609800 1.000000 4.024390
v -6.951220 1.000000 -3.292680
v -4.024390 1.000000 0.365854
v -4.024390 1.000000 -3.292680
v -4.024390 1.000000 3.292680
v -6.951220 1.000000 7.682930
v -4.024390 1.000000 10.609800
v -11.341500 1.000000 7.682930
v -0.365854 1.000000 0.365854
v -3.292680 1.000000 3.292680
v -0.365854 1.000000 4.024390
v 6.951220 1.000000 0.365854
v 4.024390 1.000000 3.292680
v 6.951220 1.000000 6.951220
v 3.292680 1.000000 3.292680
v 0.365853 1.000000 0.365854
v 0.365853 1.000000 4.024390
v 3.292680 1.000000 6.951220
v -3.292680 1.000000 6.951220
v 4.024390 1.000000 6.951220
v 15.000000 3.000000 15.000000
v 15.000000 0.000000 -15.000000
v 15.000000 3.000000 -15.000000
v 15.000000 0.000000 15.000000
v 14.268300 3.000000 -15.000000
v 11.341500 3.000000 -15.000000
v 7.682930 3.000000 -14.268300
v 11.341500 3.000000 -14.268300
v 6.951220 3.000000 -14.268300
v 7.682930 3.000000 -10.609800
v -14.268300 3.000000 -7.682930
v -14.268300 3.000000 -14.268300
v -14.268300 3.000000 -6.951220
v -14.268300 3.000000 10.609800
v -14.268300 3.000000 11.341500
v 6.951220 3.000000 -10.609800
v -10.609800 3.000000 -7.682930
v -11.341500 3.000000 -6.951220
v -10.609800 3.000000 4.024390
v -11.341500 3.000000 4.024390
v -3.292680 3.000000 -11.341500
v -6.951220 3.000000 -10.609800
v -3.292680 3.000000 -10.609800
v -7.682930 3.000000 -10.609800
v -6.951220 3.000000 -4.024390
v -6.951220 3.000000 -3.292680
v -7.682930 3.000000 6.951220
v -11.341500 3.000000 -11.341500
v -11.341500 3.000000 -10.609800
v -3.292680 3.000000 -4.024390
v -4.024390 3.000000 -3.292680
v -3.292680 3.000000 -0.365853
v 4.024390 3.000000 -11.341500
v 3.292680 3.000000 -10.609800
v 4.024390 3.000000 -7.682930
v 0.365853 3.000000 -10.609800
v -0.365854 3.000000 -7.682930
v -0.365854 3.000000 -11.341500
v 10.609800 3.000000 -7.682930
v 11.341500 3.000000 -11.341500
v 10.609800 3.000000 -11.341500
v 11.341500 3.000000 -6.951220
v 3.292680 3.000000 -6.951220
v 10.609800 3.000000 3.292680
v 14.268300 3.000000 4.024390
v 14.268300 3.000000 3.292680
v 10.609800 3.000000 4.024390
v 0.365853 3.000000 -4.024390
v 14.268300 3.000000 -3.292680
v 14.268300 3.000000 -4.024390
v -0.365854 3.000000 -6.951220
v -0.365854 3.000000 -3.292680
v 14.268300 3.000000 14.268300
v 0.365853 3.000000 14.268300
v 0.365853 3.000000 11.341500
v -0.365854 3.000000 14.268300
v -14.268300 3.000000 14.268300
v 11.341500 3.000000 10.609800
v 11.341500 3.000000 11.341500
v -0.365854 3.000000 10.609800
v 0.365853 3.000000 4.024390
v -0.365854 3.000000 0.365854
v -0.365854 3.000000 4.024390
v -4.024390 3.000000 3.292680
v -3.292680 3.000000 6.951220
v -3.292680 3.000000 3.292680
v -4.024390 3.000000 10.609800
v -3.292680 3.000000 7.682930
v -3.292680 3.000000 11.341500
v -6.951220 3.000000 7.682930
v -11.341500 3.000000 7.682930
v -11.341500 3.000000 6.951220
v 4.024390 3.000000 3.292680
v 3.292680 3.000000 3.292680
v 4.024390 3.000000 6.951220
v 11.341500 3.000000 -0.365853
v 7.682930 3.000000 0.365854
v 11.341500 3.000000 0.365854
v 6.951220 3.000000 0.365854
v 7.682930 3.000000 6.951220
v 0.365853 3.000000 0.365854
v -4.024390 3.000000 0.365854
v 11.341500 3.000000 7.682930
v 11.341500 3.000000 6.951220
v 6.951220 3.000000 6.951220
v 3.292680 3.000000 6.951220
v -4.024390 3.000000 -7.682930
v -4.024390 3.000000 -6.951220
vn -1.0000 0.0000 0.0000
vn 0.0000 1.0000 0.0000
vn 1.0000 0.0000 0.0000
vn 0.0000 0.0000 -1.0000
vn 0.0000 -1.0000 0.0000
vn 0.0000 0.0000 1.0000
usemtl Woodlabyrinth
s off
f 1//1 2//1 3//1
f 2//1 1//1 4//1
f 5//2 6//2 7//2
f 8//2 6//2 5//2
f 6//2 8//2 9//2
f 10//2 11//2 12//2
f 11//2 13//2 12//2
f 13//2 14//2 15//2
f 14//2 13//2 11//2
f 16//2 17//2 18//2
f 15//2 17//2 16//2
f 19//2 15//2 14//2
f 15//2 19//2 17//2
f 20//2 21//2 22//2
f 23//2 24//2 25//2
f 18//2 24//2 23//2
f 26//2 18//2 17//2
f 18//2 26//2 24//2
f 27//2 25//2 24//2
f 27//2 28//2 25//2
f 28//2 29//2 30//2
f 29//2 28//2 27//2
f 31//2 32//2 33//2
f 34//2 32//2 31//2
f 35//2 32//2 34//2
f 32//2 35//2 36//2
f 37//2 35//2 38//2
f 35//2 37//2 36//2
f 31//2 39//2 40//2
f 30//2 40//2 39//2
f 41//2 30//2 29//2
f 30//2 41//2 40//2
f 39//2 31//2 42//2
f 33//2 42//2 31//2
f 43//2 42//2 33//2
f 44//2 43//2 45//2
f 43//2 44//2 42//2
f 46//2 47//2 48//2
f 46//2 10//2 47//2
f 11//2 10//2 49//2
f 46//2 49//2 10//2
f 50//2 49//2 46//2
f 51//2 50//2 52//2
f 49//2 50//2 51//2
f 53//2 54//2 55//2
f 56//2 54//2 53//2
f 57//2 54//2 56//2
f 54//2 57//2 58//2
f 48//2 58//2 57//2
f 59//2 48//2 47//2
f 48//2 59//2 58//2
f 53//2 60//2 61//2
f 55//2 60//2 53//2
f 60//2 55//2 62//2
f 63//2 62//2 55//2
f 22//2 62//2 63//2
f 22//2 64//2 62//2
f 64//2 22//2 21//2
f 65//2 66//2 67//2
f 52//2 66//2 65//2
f 68//2 52//2 50//2
f 52//2 68//2 66//2
f 69//2 67//2 66//2
f 9//2 69//2 6//2
f 69//2 9//2 67//2
f 70//2 71//2 72//2
f 71//2 70//2 73//2
f 73//2 70//2 74//2
f 73//2 74//2 75//2
f 76//2 75//2 74//2
f 76//2 8//2 75//2
f 9//2 8//2 76//2
f 77//2 78//2 79//2
f 71//2 78//2 77//2
f 78//2 71//2 73//2
f 80//2 81//2 82//2
f 80//2 83//2 81//2
f 84//2 83//2 80//2
f 85//2 83//2 84//2
f 83//2 85//2 86//2
f 79//2 86//2 85//2
f 87//2 79//2 78//2
f 79//2 87//2 86//2
f 82//2 81//2 88//2
f 89//3 90//3 91//3
f 90//3 89//3 92//3
f 91//4 60//4 93//4
f 60//4 90//4 61//4
f 90//4 60//4 91//4
f 61//4 2//4 94//4
f 3//4 61//4 90//4
f 61//4 3//4 2//4
f 1//5 90//5 92//5
f 90//5 1//5 3//5
f 1//6 89//6 4//6
f 89//6 1//6 92//6
f 94//2 95//2 96//2
f 95//2 97//2 98//2
f 94//2 97//2 95//2
f 2//2 97//2 94//2
f 2//2 99//2 100//2
f 99//2 2//2 101//2
f 4//2 101//2 2//2
f 101//2 4//2 102//2
f 102//2 4//2 103//2
f 97//2 2//2 100//2
f 98//2 97//2 104//2
f 105//2 106//2 107//2
f 99//2 106//2 105//2
f 106//2 99//2 101//2
f 107//2 106//2 108//2
f 109//2 110//2 111//2
f 112//2 113//2 110//2
f 113//2 112//2 114//2
f 114//2 112//2 115//2
f 109//2 112//2 110//2
f 116//2 112//2 109//2
f 112//2 116//2 117//2
f 118//2 119//2 120//2
f 113//2 119//2 118//2
f 119//2 113//2 114//2
f 121//2 122//2 123//2
f 121//2 124//2 122//2
f 125//2 124//2 126//2
f 126//2 124//2 121//2
f 127//2 128//2 129//2
f 128//2 127//2 130//2
f 123//2 130//2 127//2
f 123//2 131//2 130//2
f 131//2 123//2 122//2
f 132//2 133//2 134//2
f 133//2 132//2 135//2
f 136//2 137//2 138//2
f 124//2 125//2 136//2
f 139//2 136//2 125//2
f 136//2 140//2 137//2
f 140//2 136//2 139//2
f 138//2 91//2 93//2
f 137//2 91//2 138//2
f 91//2 137//2 89//2
f 134//2 89//2 137//2
f 133//2 89//2 134//2
f 141//2 89//2 133//2
f 142//2 89//2 141//2
f 143//2 144//2 142//2
f 144//2 89//2 142//2
f 4//2 144//2 145//2
f 144//2 4//2 89//2
f 103//2 4//2 145//2
f 146//2 143//2 147//2
f 144//2 143//2 148//2
f 148//2 143//2 146//2
f 149//2 150//2 151//2
f 152//2 153//2 154//2
f 155//2 153//2 152//2
f 153//2 155//2 156//2
f 156//2 155//2 157//2
f 103//2 155//2 102//2
f 155//2 103//2 157//2
f 114//2 115//2 158//2
f 159//2 115//2 160//2
f 115//2 159//2 158//2
f 161//2 162//2 163//2
f 164//2 165//2 166//2
f 165//2 167//2 168//2
f 164//2 167//2 165//2
f 120//2 167//2 164//2
f 169//2 150//2 149//2
f 167//2 120//2 169//2
f 169//2 120//2 150//2
f 120//2 170//2 150//2
f 170//2 120//2 119//2
f 168//2 171//2 172//2
f 173//2 168//2 167//2
f 173//2 171//2 168//2
f 163//2 171//2 173//2
f 174//2 163//2 162//2
f 156//2 163//2 174//2
f 156//2 174//2 153//2
f 163//2 156//2 171//2
f 175//2 139//2 125//2
f 139//2 175//2 176//2
f 36//4 145//4 144//4
f 145//4 36//4 37//4
f 145//3 38//3 103//3
f 38//3 145//3 37//3
f 75//4 102//4 155//4
f 102//4 75//4 8//4
f 38//6 157//6 103//6
f 157//6 38//6 35//6
f 102//3 5//3 101//3
f 5//3 102//3 8//3
f 66//4 99//4 105//4
f 99//4 66//4 68//4
f 107//3 66//3 105//3
f 66//3 107//3 69//3
f 5//6 106//6 101//6
f 106//6 5//6 7//6
f 99//3 50//3 100//3
f 50//3 99//3 68//3
f 50//6 97//6 100//6
f 97//6 50//6 46//6
f 76//1 160//1 9//1
f 160//1 76//1 159//1
f 158//3 70//3 114//3
f 70//3 158//3 74//3
f 76//6 158//6 159//6
f 158//6 76//6 74//6
f 67//4 160//4 115//4
f 160//4 67//4 9//4
f 6//1 106//1 7//1
f 106//1 6//1 108//1
f 6//6 107//6 108//6
f 107//6 6//6 69//6
f 52//1 116//1 51//1
f 116//1 52//1 117//1
f 49//4 116//4 109//4
f 116//4 49//4 51//4
f 52//6 112//6 117//6
f 112//6 52//6 65//6
f 157//3 34//3 156//3
f 34//3 157//3 35//3
f 67//1 112//1 65//1
f 112//1 67//1 115//1
f 120//3 17//3 118//3
f 17//3 120//3 26//3
f 70//6 119//6 114//6
f 119//6 70//6 72//6
f 17//4 113//4 118//4
f 113//4 17//4 19//4
f 113//3 14//3 110//3
f 14//3 113//3 19//3
f 111//3 49//3 109//3
f 49//3 111//3 11//3
f 14//6 111//6 110//6
f 111//6 14//6 11//6
f 75//1 152//1 73//1
f 152//1 75//1 155//1
f 86//4 153//4 174//4
f 153//4 86//4 87//4
f 34//6 171//6 156//6
f 171//6 34//6 31//6
f 153//3 78//3 154//3
f 78//3 153//3 87//3
f 78//4 152//4 154//4
f 152//4 78//4 73//4
f 71//1 119//1 72//1
f 119//1 71//1 170//1
f 71//6 150//6 170//6
f 150//6 71//6 77//6
f 24//4 120//4 164//4
f 120//4 24//4 26//4
f 15//1 175//1 13//1
f 175//1 15//1 176//1
f 136//3 21//3 124//3
f 21//3 136//3 64//3
f 12//4 175//4 125//4
f 175//4 12//4 13//4
f 15//6 139//6 176//6
f 139//6 15//6 16//6
f 36//1 148//1 32//1
f 148//1 36//1 144//1
f 42//4 142//4 141//4
f 142//4 42//4 44//4
f 142//3 45//3 143//3
f 45//3 142//3 44//3
f 33//4 148//4 146//4
f 148//4 33//4 32//4
f 45//6 147//6 143//6
f 147//6 45//6 43//6
f 79//1 150//1 77//1
f 150//1 79//1 151//1
f 149//3 84//3 169//3
f 84//3 149//3 85//3
f 79//6 149//6 151//6
f 149//6 79//6 85//6
f 84//6 167//6 169//6
f 167//6 84//6 80//6
f 12//1 126//1 10//1
f 126//1 12//1 125//1
f 18//1 139//1 16//1
f 139//1 18//1 140//1
f 18//6 137//6 140//6
f 137//6 18//6 23//6
f 62//4 136//4 138//4
f 136//4 62//4 64//4
f 47//4 126//4 121//4
f 126//4 47//4 10//4
f 123//3 47//3 121//3
f 47//3 123//3 59//3
f 21//6 122//6 124//6
f 122//6 21//6 20//6
f 86//1 162//1 83//1
f 162//1 86//1 174//1
f 82//4 163//4 173//4
f 163//4 82//4 88//4
f 163//3 81//3 161//3
f 81//3 163//3 88//3
f 81//4 162//4 161//4
f 162//4 81//4 83//4
f 168//3 29//3 165//3
f 29//3 168//3 41//3
f 22//1 122//1 20//1
f 122//1 22//1 131//1
f 22//6 130//6 131//6
f 130//6 22//6 63//6
f 58//4 123//4 127//4
f 123//4 58//4 59//4
f 147//3 33//3 146//3
f 33//3 147//3 43//3
f 82//1 167//1 80//1
f 167//1 82//1 173//1
f 171//3 40//3 172//3
f 40//3 171//3 31//3
f 40//4 168//4 172//4
f 168//4 40//4 41//4
f 166//3 24//3 164//3
f 24//3 166//3 27//3
f 29//6 166//6 165//6
f 166//6 29//6 27//6
f 130//3 55//3 128//3
f 55//3 130//3 63//3
f 48//1 97//1 46//1
f 97//1 48//1 104//1
f 98//3 56//3 95//3
f 56//3 98//3 57//3
f 48//6 98//6 104//6
f 98//6 48//6 57//6
f 96//3 61//3 94//3
f 61//3 96//3 53//3
f 56//6 96//6 95//6
f 96//6 56//6 53//6
f 42//1 133//1 39//1
f 133//1 42//1 141//1
f 30//1 132//1 28//1
f 132//1 30//1 135//1
f 25//4 132//4 134//4
f 132//4 25//4 28//4
f 30//6 133//6 135//6
f 133//6 30//6 39//6
f 62//1 93//1 60//1
f 93//1 62//1 138//1
f 25//1 137//1 23//1
f 137//1 25//1 134//1
f 58//1 129//1 54//1
f 129//1 58//1 127//1
f 55//4 129//4 128//4
f 129//4 55//4 54//4
