# Blender v2.77 (sub 0) OBJ File: ''
# www.blender.org
mtllib LabyrinthandBallblend.mtl
o Labyrinth
v -15.000000 0.000000 15.000000
v -15.000000 5.000000 -15.000000
v -15.000000 0.000000 -15.000000
v -15.000000 5.000000 15.000000
v -7.682930 1.000000 -11.341500
v -10.609800 1.000000 -10.609800
v -7.682930 1.000000 -7.682930
v -11.341500 1.000000 -7.682930
v -14.268300 1.000000 -10.609800
v -11.341500 1.000000 0.365854
v -0.365854 1.000000 -6.951220
v -7.682930 1.000000 -4.024390
v -0.365854 1.000000 -4.024390
v -10.609800 1.000000 -6.951220
v -7.682930 1.000000 -3.292680
v -4.024390 1.000000 -14.268300
v -6.951220 1.000000 -11.341500
v -4.024390 1.000000 -10.609800
v -10.609800 1.000000 -11.341500
v -14.268300 1.000000 -14.268300
v -14.268300 1.000000 -11.341500
v 0.365853 1.000000 -0.365853
v 0.365853 1.000000 -3.292680
v -10.609800 1.000000 -0.365853
v 3.292680 1.000000 -14.268300
v 0.365853 1.000000 -11.341500
v 3.292680 1.000000 -10.609800
v -0.365854 1.000000 -11.341500
v -3.292680 1.000000 -14.268300
v -3.292680 1.000000 -10.609800
v -0.365854 1.000000 -7.682930
v -6.951220 1.000000 -7.682930
v 6.951220 1.000000 -15.000000
v 4.024390 1.000000 -15.000000
v 6.951220 1.000000 -14.268300
v 10.609800 1.000000 7.682930
v 7.682930 1.000000 7.682930
v 10.609800 1.000000 11.341500
v 11.341500 1.000000 4.024390
v 6.951220 1.000000 6.951220
v 11.341500 1.000000 6.951220
v 4.024390 1.000000 4.024390
v 4.024390 1.000000 11.341500
v 6.951220 1.000000 14.268300
v -0.365854 1.000000 11.341500
v -3.292680 1.000000 14.268300
v -3.292680 1.000000 7.682930
v 14.268300 1.000000 0.365854
v 11.341500 1.000000 3.292680
v 6.951220 1.000000 0.365854
v 4.024390 1.000000 3.292680
v 4.024390 1.000000 -3.292680
v 14.268300 1.000000 14.268300
v 11.341500 1.000000 11.341500
v 7.682930 1.000000 14.268300
v 11.341500 1.000000 -6.951220
v 10.609800 1.000000 -4.024390
v 11.341500 1.000000 -4.024390
v 7.682930 1.000000 -6.951220
v 7.682930 1.000000 -3.292680
v 10.609800 1.000000 -0.365853
v 6.951220 1.000000 -0.365853
v 14.268300 1.000000 -14.268300
v 11.341500 1.000000 -11.341500
v 10.609800 1.000000 -11.341500
v 7.682930 1.000000 -11.341500
v 10.609800 1.000000 -7.682930
v 4.024390 1.000000 -11.341500
v 14.268300 1.000000 -0.365853
v 11.341500 1.000000 -0.365853
v 7.682930 1.000000 -7.682930
v 6.951220 1.000000 -10.609800
v 4.024390 1.000000 -7.682930
v 6.951220 1.000000 -4.024390
v 0.365853 1.000000 -7.682930
v 4.024390 1.000000 -6.951220
v 3.292680 1.000000 -4.024390
v 0.365853 1.000000 -6.951220
v 3.292680 1.000000 10.609800
v 0.365853 1.000000 7.682930
v -0.365854 1.000000 10.609800
v -0.365854 1.000000 0.365854
v -3.292680 1.000000 3.292680
v -0.365854 1.000000 6.951220
v -14.268300 1.000000 3.292680
v -3.292680 1.000000 4.024390
v -11.341500 1.000000 6.951220
v -14.268300 1.000000 4.024390
v -11.341500 1.000000 7.682930
v -4.024390 1.000000 7.682930
v -6.951220 1.000000 10.609800
v -4.024390 1.000000 14.268300
v -14.268300 1.000000 10.609800
v -6.951220 1.000000 11.341500
v -14.268300 1.000000 14.268300
v -14.268300 1.000000 11.341500
v 15.000000 5.000000 15.000000
v 15.000000 0.000000 -15.000000
v 15.000000 5.000000 -15.000000
v 15.000000 0.000000 15.000000
v 6.951220 5.000000 -15.000000
v 4.024390 5.000000 -15.000000
v 3.292680 5.000000 -14.268300
v 4.024390 5.000000 -11.341500
v -3.292680 5.000000 -14.268300
v -4.024390 5.000000 -14.268300
v -3.292680 5.000000 -10.609800
v -14.268300 5.000000 -11.341500
v -14.268300 5.000000 -14.268300
v -14.268300 5.000000 -10.609800
v -14.268300 5.000000 3.292680
v -14.268300 5.000000 4.024390
v -14.268300 5.000000 10.609800
v -14.268300 5.000000 11.341500
v 11.341500 5.000000 6.951220
v 10.609800 5.000000 7.682930
v 11.341500 5.000000 11.341500
v 7.682930 5.000000 7.682930
v 6.951220 5.000000 14.268300
v 6.951220 5.000000 6.951220
v 10.609800 5.000000 11.341500
v 11.341500 5.000000 -4.024390
v 10.609800 5.000000 -4.024390
v 11.341500 5.000000 -0.365853
v 14.268300 5.000000 0.365854
v 14.268300 5.000000 -0.365853
v 10.609800 5.000000 -0.365853
v 6.951220 5.000000 0.365854
v 6.951220 5.000000 -0.365853
v 14.268300 5.000000 -14.268300
v 6.951220 5.000000 -14.268300
v 14.268300 5.000000 14.268300
v 7.682930 5.000000 14.268300
v -3.292680 5.000000 14.268300
v -4.024390 5.000000 14.268300
v -4.024390 5.000000 7.682930
v -14.268300 5.000000 14.268300
v 6.951220 5.000000 -10.609800
v 7.682930 5.000000 -7.682930
v 7.682930 5.000000 -11.341500
v 7.682930 5.000000 -6.951220
v 6.951220 5.000000 -4.024390
v 3.292680 5.000000 -10.609800
v 10.609800 5.000000 -7.682930
v 11.341500 5.000000 -11.341500
v 10.609800 5.000000 -11.341500
v 11.341500 5.000000 -6.951220
v 7.682930 5.000000 -3.292680
v 4.024390 5.000000 -3.292680
v 3.292680 5.000000 -4.024390
v 4.024390 5.000000 3.292680
v 3.292680 5.000000 10.609800
v 4.024390 5.000000 4.024390
v 4.024390 5.000000 11.341500
v -0.365854 5.000000 11.341500
v -0.365854 5.000000 10.609800
v 11.341500 5.000000 4.024390
v 11.341500 5.000000 3.292680
v -4.024390 5.000000 -10.609800
v -10.609800 5.000000 -10.609800
v -10.609800 5.000000 -11.341500
v -3.292680 5.000000 4.024390
v -3.292680 5.000000 3.292680
v -6.951220 5.000000 11.341500
v -6.951220 5.000000 10.609800
v -6.951220 5.000000 -11.341500
v -7.682930 5.000000 -11.341500
v -6.951220 5.000000 -7.682930
v -0.365854 5.000000 -6.951220
v -0.365854 5.000000 -7.682930
v -7.682930 5.000000 -7.682930
v -10.609800 5.000000 -6.951220
v -11.341500 5.000000 -7.682930
v -10.609800 5.000000 -0.365853
v 0.365853 5.000000 -7.682930
v 0.365853 5.000000 -11.341500
v 0.365853 5.000000 -6.951220
v -0.365854 5.000000 -11.341500
v -0.365854 5.000000 -4.024390
v 0.365853 5.000000 -3.292680
v -7.682930 5.000000 -3.292680
v -7.682930 5.000000 -4.024390
v 4.024390 5.000000 -6.951220
v 4.024390 5.000000 -7.682930
v 0.365853 5.000000 -0.365853
v -0.365854 5.000000 0.365854
v 0.365853 5.000000 7.682930
v -11.341500 5.000000 0.365854
v -0.365854 5.000000 6.951220
v -3.292680 5.000000 7.682930
v -11.341500 5.000000 6.951220
v -11.341500 5.000000 7.682930
vn -1.0000 0.0000 0.0000
vn 0.0000 1.0000 0.0000
vn 1.0000 0.0000 0.0000
vn 0.0000 0.0000 -1.0000
vn 0.0000 -1.0000 0.0000
vn 0.0000 0.0000 1.0000
usemtl Woodlabyrinth
s off
f 1//1 2//1 3//1
f 2//1 1//1 4//1
f 5//2 6//2 7//2
f 6//2 8//2 7//2
f 8//2 9//2 10//2
f 9//2 8//2 6//2
f 11//2 12//2 13//2
f 12//2 14//2 15//2
f 14//2 12//2 11//2
f 16//2 17//2 18//2
f 16//2 5//2 17//2
f 6//2 5//2 19//2
f 16//2 19//2 5//2
f 20//2 19//2 16//2
f 19//2 20//2 21//2
f 15//2 22//2 23//2
f 15//2 24//2 22//2
f 24//2 15//2 14//2
f 25//2 26//2 27//2
f 25//2 28//2 26//2
f 29//2 28//2 25//2
f 30//2 28//2 29//2
f 28//2 30//2 31//2
f 18//2 31//2 30//2
f 32//2 18//2 17//2
f 18//2 32//2 31//2
f 33//2 34//2 35//2
f 36//2 37//2 38//2
f 39//2 40//2 41//2
f 42//2 40//2 39//2
f 43//2 40//2 42//2
f 40//2 43//2 44//2
f 45//2 44//2 43//2
f 45//2 46//2 44//2
f 46//2 45//2 47//2
f 39//2 48//2 49//2
f 50//2 49//2 48//2
f 50//2 51//2 49//2
f 51//2 50//2 52//2
f 41//2 48//2 39//2
f 48//2 41//2 53//2
f 54//2 53//2 41//2
f 38//2 53//2 54//2
f 38//2 55//2 53//2
f 55//2 38//2 37//2
f 56//2 57//2 58//2
f 59//2 57//2 56//2
f 60//2 57//2 59//2
f 57//2 60//2 61//2
f 60//2 62//2 61//2
f 62//2 52//2 50//2
f 52//2 62//2 60//2
f 56//2 63//2 64//2
f 63//2 65//2 64//2
f 65//2 66//2 67//2
f 35//2 65//2 63//2
f 65//2 35//2 66//2
f 68//2 35//2 34//2
f 35//2 68//2 66//2
f 63//2 56//2 69//2
f 58//2 69//2 56//2
f 69//2 58//2 70//2
f 67//2 66//2 71//2
f 72//2 73//2 74//2
f 27//2 73//2 72//2
f 75//2 27//2 26//2
f 27//2 75//2 73//2
f 76//2 74//2 73//2
f 76//2 77//2 74//2
f 78//2 77//2 76//2
f 23//2 77//2 78//2
f 22//2 77//2 23//2
f 77//2 22//2 79//2
f 80//2 79//2 22//2
f 80//2 81//2 79//2
f 81//2 47//2 45//2
f 47//2 81//2 80//2
f 82//2 83//2 84//2
f 10//2 83//2 82//2
f 10//2 85//2 83//2
f 85//2 10//2 9//2
f 86//2 84//2 83//2
f 86//2 87//2 84//2
f 87//2 88//2 89//2
f 88//2 87//2 86//2
f 90//2 91//2 92//2
f 89//2 91//2 90//2
f 89//2 93//2 91//2
f 93//2 89//2 88//2
f 94//2 92//2 91//2
f 95//2 94//2 96//2
f 94//2 95//2 92//2
f 97//3 98//3 99//3
f 98//3 97//3 100//3
f 99//4 33//4 101//4
f 33//4 98//4 34//4
f 98//4 33//4 99//4
f 34//4 2//4 102//4
f 34//4 3//4 2//4
f 3//4 34//4 98//4
f 1//5 98//5 100//5
f 98//5 1//5 3//5
f 1//6 97//6 4//6
f 97//6 1//6 100//6
f 102//2 103//2 104//2
f 102//2 105//2 103//2
f 105//2 106//2 107//2
f 102//2 106//2 105//2
f 2//2 106//2 102//2
f 2//2 108//2 109//2
f 108//2 2//2 110//2
f 110//2 2//2 111//2
f 4//2 111//2 2//2
f 111//2 4//2 112//2
f 112//2 4//2 113//2
f 113//2 4//2 114//2
f 106//2 2//2 109//2
f 115//2 116//2 117//2
f 115//2 118//2 116//2
f 119//2 118//2 120//2
f 120//2 118//2 115//2
f 117//2 116//2 121//2
f 122//2 123//2 124//2
f 124//2 125//2 126//2
f 127//2 124//2 123//2
f 127//2 125//2 124//2
f 128//2 127//2 129//2
f 127//2 128//2 125//2
f 126//2 99//2 130//2
f 101//2 130//2 99//2
f 130//2 101//2 131//2
f 99//2 126//2 97//2
f 125//2 97//2 126//2
f 132//2 97//2 125//2
f 133//2 97//2 132//2
f 118//2 119//2 133//2
f 119//2 97//2 133//2
f 134//2 97//2 119//2
f 135//2 134//2 136//2
f 4//2 134//2 135//2
f 4//2 135//2 137//2
f 134//2 4//2 97//2
f 114//2 4//2 137//2
f 138//2 139//2 140//2
f 139//2 138//2 141//2
f 142//2 141//2 138//2
f 104//2 138//2 140//2
f 104//2 143//2 138//2
f 143//2 104//2 103//2
f 144//2 145//2 146//2
f 145//2 144//2 147//2
f 141//2 144//2 139//2
f 144//2 141//2 147//2
f 141//2 142//2 148//2
f 142//2 149//2 148//2
f 150//2 151//2 149//2
f 152//2 151//2 150//2
f 150//2 149//2 142//2
f 151//2 152//2 153//2
f 153//2 152//2 154//2
f 155//2 152//2 156//2
f 152//2 155//2 154//2
f 151//2 157//2 158//2
f 157//2 151//2 153//2
f 107//2 106//2 159//2
f 108//2 160//2 161//2
f 160//2 108//2 110//2
f 111//2 162//2 163//2
f 162//2 111//2 112//2
f 113//2 164//2 165//2
f 164//2 113//2 114//2
f 166//2 167//2 168//2
f 168//2 169//2 170//2
f 171//2 168//2 167//2
f 172//2 168//2 171//2
f 168//2 172//2 169//2
f 172//2 173//2 174//2
f 173//2 172//2 171//2
f 170//2 175//2 176//2
f 175//2 170//2 177//2
f 170//2 176//2 178//2
f 169//2 177//2 170//2
f 179//2 177//2 169//2
f 177//2 179//2 180//2
f 181//2 179//2 182//2
f 179//2 181//2 180//2
f 175//2 183//2 184//2
f 183//2 175//2 177//2
f 185//2 186//2 187//2
f 174//2 186//2 185//2
f 174//2 188//2 186//2
f 188//2 174//2 173//2
f 189//2 187//2 186//2
f 189//2 190//2 187//2
f 190//2 136//2 134//2
f 189//2 136//2 190//2
f 191//2 136//2 189//2
f 136//2 191//2 192//2
f 44//4 134//4 119//4
f 134//4 44//4 46//4
f 92//4 137//4 135//4
f 137//4 92//4 95//4
f 137//3 96//3 114//3
f 96//3 137//3 95//3
f 91//4 113//4 165//4
f 113//4 91//4 93//4
f 96//6 164//6 114//6
f 164//6 96//6 94//6
f 113//3 88//3 112//3
f 88//3 113//3 93//3
f 88//6 162//6 112//6
f 162//6 88//6 86//6
f 83//4 111//4 163//4
f 111//4 83//4 85//4
f 111//3 9//3 110//3
f 9//3 111//3 85//3
f 19//4 108//4 161//4
f 108//4 19//4 21//4
f 160//3 19//3 161//3
f 19//3 160//3 6//3
f 9//6 160//6 110//6
f 160//6 9//6 6//6
f 108//3 20//3 109//3
f 20//3 108//3 21//3
f 20//6 106//6 109//6
f 106//6 20//6 16//6
f 164//3 91//3 165//3
f 91//3 164//3 94//3
f 89//1 191//1 87//1
f 191//1 89//1 192//1
f 84//4 191//4 189//4
f 191//4 84//4 87//4
f 89//6 136//6 192//6
f 136//6 89//6 90//6
f 10//1 173//1 8//1
f 173//1 10//1 188//1
f 22//4 174//4 185//4
f 174//4 22//4 24//4
f 10//6 186//6 188//6
f 186//6 10//6 82//6
f 174//3 14//3 172//3
f 14//3 174//3 24//3
f 7//4 173//4 171//4
f 173//4 7//4 8//4
f 14//6 169//6 172//6
f 169//6 14//6 11//6
f 162//3 83//3 163//3
f 83//3 162//3 86//3
f 15//1 182//1 12//1
f 182//1 15//1 181//1
f 15//6 180//6 181//6
f 180//6 15//6 23//6
f 13//4 182//4 179//4
f 182//4 13//4 12//4
f 7//1 167//1 5//1
f 167//1 7//1 171//1
f 31//4 168//4 170//4
f 168//4 31//4 32//4
f 168//3 17//3 166//3
f 17//3 168//3 32//3
f 17//4 167//4 166//4
f 167//4 17//4 5//4
f 92//1 136//1 90//1
f 136//1 92//1 135//1
f 134//3 47//3 190//3
f 47//3 134//3 46//3
f 187//3 22//3 185//3
f 22//3 187//3 80//3
f 47//6 187//6 190//6
f 187//6 47//6 80//6
f 180//3 78//3 177//3
f 78//3 180//3 23//3
f 18//1 106//1 16//1
f 106//1 18//1 159//1
f 107//3 29//3 105//3
f 29//3 107//3 30//3
f 18//6 107//6 159//6
f 107//6 18//6 30//6
f 29//6 103//6 105//6
f 103//6 29//6 25//6
f 45//1 156//1 81//1
f 156//1 45//1 155//1
f 154//3 42//3 153//3
f 42//3 154//3 43//3
f 79//4 156//4 152//4
f 156//4 79//4 81//4
f 45//6 154//6 155//6
f 154//6 45//6 43//6
f 84//1 186//1 82//1
f 186//1 84//1 189//1
f 31//1 178//1 28//1
f 178//1 31//1 170//1
f 13//1 169//1 11//1
f 169//1 13//1 179//1
f 73//4 175//4 184//4
f 175//4 73//4 75//4
f 183//3 73//3 184//3
f 73//3 183//3 76//3
f 78//6 183//6 177//6
f 183//6 78//6 76//6
f 175//3 26//3 176//3
f 26//3 175//3 75//3
f 26//4 178//4 176//4
f 178//4 26//4 28//4
f 104//3 34//3 102//3
f 34//3 104//3 68//3
f 79//1 150//1 77//1
f 150//1 79//1 152//1
f 49//4 151//4 158//4
f 151//4 49//4 51//4
f 42//6 157//6 153//6
f 157//6 42//6 39//6
f 151//3 52//3 149//3
f 52//3 151//3 51//3
f 74//4 150//4 142//4
f 150//4 74//4 77//4
f 148//3 59//3 141//3
f 59//3 148//3 60//3
f 52//6 148//6 149//6
f 148//6 52//6 60//6
f 27//1 103//1 25//1
f 103//1 27//1 143//1
f 139//3 66//3 140//3
f 66//3 139//3 71//3
f 66//4 104//4 140//4
f 104//4 66//4 68//4
f 27//6 138//6 143//6
f 138//6 27//6 72//6
f 44//1 120//1 40//1
f 120//1 44//1 119//1
f 53//4 133//4 132//4
f 133//4 53//4 55//4
f 133//3 37//3 118//3
f 37//3 133//3 55//3
f 41//4 120//4 115//4
f 120//4 41//4 40//4
f 117//3 41//3 115//3
f 41//3 117//3 54//3
f 37//6 116//6 118//6
f 116//6 37//6 36//6
f 157//3 49//3 158//3
f 49//3 157//3 39//3
f 50//1 129//1 62//1
f 129//1 50//1 128//1
f 61//4 129//4 127//4
f 129//4 61//4 62//4
f 50//6 125//6 128//6
f 125//6 50//6 48//6
f 74//1 138//1 72//1
f 138//1 74//1 142//1
f 147//3 64//3 145//3
f 64//3 147//3 56//3
f 67//4 139//4 144//4
f 139//4 67//4 71//4
f 59//6 147//6 141//6
f 147//6 59//6 56//6
f 35//1 101//1 33//1
f 101//1 35//1 131//1
f 35//6 130//6 131//6
f 130//6 35//6 63//6
f 53//1 125//1 48//1
f 125//1 53//1 132//1
f 38//1 116//1 36//1
f 116//1 38//1 121//1
f 38//6 117//6 121//6
f 117//6 38//6 54//6
f 61//1 123//1 57//1
f 123//1 61//1 127//1
f 69//4 124//4 126//4
f 124//4 69//4 70//4
f 124//3 58//3 122//3
f 58//3 124//3 70//3
f 58//4 123//4 122//4
f 123//4 58//4 57//4
f 69//1 130//1 63//1
f 130//1 69//1 126//1
f 67//1 146//1 65//1
f 146//1 67//1 144//1
f 64//4 146//4 145//4
f 146//4 64//4 65//4
