# Blender v2.77 (sub 0) OBJ File: ''
# www.blender.org
mtllib LabyrinthandBallblend.mtl
o Labyrinth
v -15.000000 0.000000 15.000000
v -15.000000 3.000000 -15.000000
v -15.000000 0.000000 -15.000000
v -15.000000 3.000000 15.000000
v -7.682930 1.000000 -14.268300
v -10.609800 1.000000 -11.341500
v -7.682930 1.000000 -10.609800
v -11.341500 1.000000 -11.341500
v -14.268300 1.000000 -14.268300
v -11.341500 1.000000 4.024390
v 0.365853 1.000000 7.682930
v -0.365854 1.000000 10.609800
v 0.365853 1.000000 10.609800
v -3.292680 1.000000 7.682930
v -3.292680 1.000000 11.341500
v -0.365854 1.000000 14.268300
v -10.609800 1.000000 14.268300
v -10.609800 1.000000 11.341500
v 3.292680 1.000000 -11.341500
v 0.365853 1.000000 -6.951220
v 3.292680 1.000000 -4.024390
v -0.365854 1.000000 -4.024390
v -3.292680 1.000000 -6.951220
v -3.292680 1.000000 4.024390
v -0.365854 1.000000 6.951220
v -4.024390 1.000000 6.951220
v -6.951220 1.000000 4.024390
v -6.951220 1.000000 7.682930
v -4.024390 1.000000 10.609800
v -11.341500 1.000000 10.609800
v -14.268300 1.000000 7.682930
v -14.268300 1.000000 14.268300
v -11.341500 1.000000 14.268300
v -4.024390 1.000000 -10.609800
v -0.365854 1.000000 -7.682930
v -0.365854 1.000000 -10.609800
v -4.024390 1.000000 -11.341500
v -6.951220 1.000000 -10.609800
v -10.609800 1.000000 -7.682930
v 3.292680 1.000000 4.024390
v 0.365853 1.000000 4.024390
v 10.609800 1.000000 -10.609800
v 6.951220 1.000000 -7.682930
v 10.609800 1.000000 -7.682930
v 4.024390 1.000000 -10.609800
v 6.951220 1.000000 -6.951220
v 4.024390 1.000000 -3.292680
v 6.951220 1.000000 -4.024390
v 6.951220 1.000000 -0.365853
v 3.292680 1.000000 -0.365853
v 0.365853 1.000000 -3.292680
v 3.292680 1.000000 0.365854
v 6.951220 1.000000 11.341500
v 14.268300 1.000000 14.268300
v 14.268300 1.000000 11.341500
v 6.951220 1.000000 10.609800
v 4.024390 1.000000 11.341500
v 0.365853 1.000000 14.268300
v 3.292680 1.000000 11.341500
v 6.951220 1.000000 0.365854
v 4.024390 1.000000 3.292680
v 6.951220 1.000000 4.024390
v 0.365853 1.000000 3.292680
v 6.951220 1.000000 -15.000000
v 4.024390 1.000000 -15.000000
v 6.951220 1.000000 -14.268300
v 14.268300 1.000000 -14.268300
v 11.341500 1.000000 -11.341500
v 14.268300 1.000000 -4.024390
v 4.024390 1.000000 -14.268300
v 0.365853 1.000000 -11.341500
v -6.951220 1.000000 -14.268300
v 11.341500 1.000000 -6.951220
v 11.341500 1.000000 6.951220
v 11.341500 1.000000 4.024390
v 4.024390 1.000000 6.951220
v 14.268300 1.000000 -3.292680
v 11.341500 1.000000 -0.365853
v 10.609800 1.000000 -0.365853
v 7.682930 1.000000 -3.292680
v 7.682930 1.000000 3.292680
v 10.609800 1.000000 3.292680
v 14.268300 1.000000 10.609800
v 11.341500 1.000000 7.682930
v 4.024390 1.000000 7.682930
v -4.024390 1.000000 -6.951220
v -7.682930 1.000000 -4.024390
v -4.024390 1.000000 -4.024390
v -10.609800 1.000000 -6.951220
v -7.682930 1.000000 -3.292680
v -4.024390 1.000000 -3.292680
v -6.951220 1.000000 -0.365853
v -4.024390 1.000000 3.292680
v -10.609800 1.000000 -0.365853
v -6.951220 1.000000 0.365854
v -7.682930 1.000000 3.292680
v -10.609800 1.000000 0.365854
v -10.609800 1.000000 4.024390
v -7.682930 1.000000 6.951220
v -14.268300 1.000000 6.951220
v 15.000000 3.000000 15.000000
v 15.000000 0.000000 -15.000000
v 15.000000 3.000000 -15.000000
v 15.000000 0.000000 15.000000
v 6.951220 3.000000 -15.000000
v 4.024390 3.000000 -15.000000
v -6.951220 3.000000 -14.268300
v 4.024390 3.000000 -14.268300
v -7.682930 3.000000 -14.268300
v -6.951220 3.000000 -10.609800
v -14.268300 3.000000 6.951220
v -14.268300 3.000000 -14.268300
v -14.268300 3.000000 7.682930
v -7.682930 3.000000 -10.609800
v -11.341500 3.000000 -11.341500
v -10.609800 3.000000 -7.682930
v -10.609800 3.000000 -11.341500
v -10.609800 3.000000 -6.951220
v -10.609800 3.000000 -0.365853
v -11.341500 3.000000 4.024390
v -10.609800 3.000000 0.365854
v -10.609800 3.000000 4.024390
v -7.682930 3.000000 -4.024390
v -4.024390 3.000000 -3.292680
v -4.024390 3.000000 -4.024390
v -7.682930 3.000000 -3.292680
v 0.365853 3.000000 -11.341500
v -0.365854 3.000000 -10.609800
v 0.365853 3.000000 -6.951220
v -4.024390 3.000000 -11.341500
v -4.024390 3.000000 -10.609800
v -0.365854 3.000000 -7.682930
v -3.292680 3.000000 -6.951220
v -4.024390 3.000000 -6.951220
v -3.292680 3.000000 4.024390
v -4.024390 3.000000 3.292680
v -6.951220 3.000000 4.024390
v -7.682930 3.000000 3.292680
v -7.682930 3.000000 6.951220
v -6.951220 3.000000 7.682930
v -6.951220 3.000000 0.365854
v -6.951220 3.000000 -0.365853
v 11.341500 3.000000 -11.341500
v 10.609800 3.000000 -10.609800
v 11.341500 3.000000 -6.951220
v 4.024390 3.000000 -10.609800
v 3.292680 3.000000 -11.341500
v 3.292680 3.000000 -4.024390
v 4.024390 3.000000 -3.292680
v 0.365853 3.000000 -3.292680
v -0.365854 3.000000 -4.024390
v 0.365853 3.000000 3.292680
v -0.365854 3.000000 6.951220
v 0.365853 3.000000 4.024390
v 0.365853 3.000000 7.682930
v -3.292680 3.000000 7.682930
v -4.024390 3.000000 6.951220
v -4.024390 3.000000 10.609800
v -3.292680 3.000000 11.341500
v -10.609800 3.000000 11.341500
v -11.341500 3.000000 14.268300
v -11.341500 3.000000 10.609800
v 10.609800 3.000000 -7.682930
v 6.951220 3.000000 -6.951220
v 6.951220 3.000000 -7.682930
v 3.292680 3.000000 4.024390
v 4.024390 3.000000 6.951220
v 4.024390 3.000000 3.292680
v 4.024390 3.000000 7.682930
v 3.292680 3.000000 11.341500
v 11.341500 3.000000 7.682930
v 11.341500 3.000000 6.951220
v 4.024390 3.000000 11.341500
v 0.365853 3.000000 10.609800
v -0.365854 3.000000 10.609800
v 0.365853 3.000000 14.268300
v 6.951220 3.000000 10.609800
v 14.268300 3.000000 11.341500
v 14.268300 3.000000 10.609800
v 6.951220 3.000000 11.341500
v 14.268300 3.000000 -4.024390
v 7.682930 3.000000 -3.292680
v 14.268300 3.000000 -3.292680
v 6.951220 3.000000 -0.365853
v 6.951220 3.000000 -4.024390
v 14.268300 3.000000 -14.268300
v 6.951220 3.000000 -14.268300
v 14.268300 3.000000 14.268300
v -0.365854 3.000000 14.268300
v -10.609800 3.000000 14.268300
v -14.268300 3.000000 14.268300
v 10.609800 3.000000 3.292680
v 11.341500 3.000000 -0.365853
v 10.609800 3.000000 -0.365853
v 11.341500 3.000000 4.024390
v 7.682930 3.000000 3.292680
v 6.951220 3.000000 0.365854
v 6.951220 3.000000 4.024390
v 3.292680 3.000000 -0.365853
v 3.292680 3.000000 0.365854
vn -1.0000 0.0000 0.0000
vn 0.0000 1.0000 0.0000
vn 1.0000 0.0000 0.0000
vn 0.0000 0.0000 -1.0000
vn 0.0000 -1.0000 0.0000
vn 0.0000 0.0000 1.0000
usemtl Woodlabyrinth
s off
f 1//1 2//1 3//1
f 2//1 1//1 4//1
f 5//2 6//2 7//2
f 5//2 8//2 6//2
f 8//2 9//2 10//2
f 9//2 8//2 5//2
f 11//2 12//2 13//2
f 14//2 12//2 11//2
f 15//2 12//2 14//2
f 12//2 15//2 16//2
f 17//2 15//2 18//2
f 15//2 17//2 16//2
f 19//2 20//2 21//2
f 20//2 22//2 21//2
f 23//2 22//2 20//2
f 24//2 22//2 23//2
f 22//2 24//2 25//2
f 24//2 26//2 25//2
f 27//2 26//2 24//2
f 28//2 26//2 27//2
f 26//2 28//2 29//2
f 28//2 30//2 29//2
f 31//2 30//2 28//2
f 32//2 30//2 31//2
f 30//2 32//2 33//2
f 34//2 35//2 36//2
f 37//2 38//2 34//2
f 38//2 35//2 34//2
f 39//2 38//2 7//2
f 39//2 7//2 6//2
f 38//2 39//2 35//2
f 11//2 40//2 41//2
f 42//2 43//2 44//2
f 45//2 46//2 43//2
f 46//2 47//2 48//2
f 45//2 43//2 42//2
f 46//2 45//2 47//2
f 48//2 47//2 49//2
f 47//2 50//2 49//2
f 50//2 51//2 52//2
f 51//2 50//2 47//2
f 53//2 54//2 55//2
f 56//2 57//2 53//2
f 58//2 53//2 57//2
f 58//2 57//2 59//2
f 40//2 11//2 59//2
f 13//2 59//2 11//2
f 58//2 59//2 13//2
f 53//2 58//2 54//2
f 60//2 61//2 62//2
f 52//2 61//2 60//2
f 63//2 52//2 51//2
f 52//2 63//2 61//2
f 64//2 65//2 66//2
f 67//2 68//2 69//2
f 66//2 68//2 67//2
f 70//2 66//2 65//2
f 19//2 66//2 70//2
f 66//2 19//2 68//2
f 20//2 19//2 71//2
f 70//2 71//2 19//2
f 72//2 71//2 70//2
f 38//2 37//2 72//2
f 71//2 72//2 37//2
f 73//2 69//2 68//2
f 48//2 73//2 46//2
f 73//2 48//2 69//2
f 62//2 74//2 75//2
f 76//2 62//2 61//2
f 62//2 76//2 74//2
f 75//2 77//2 78//2
f 77//2 79//2 78//2
f 80//2 79//2 77//2
f 81//2 79//2 80//2
f 79//2 81//2 82//2
f 77//2 75//2 83//2
f 74//2 83//2 75//2
f 84//2 83//2 74//2
f 84//2 56//2 83//2
f 57//2 56//2 85//2
f 85//2 56//2 84//2
f 86//2 87//2 88//2
f 87//2 89//2 90//2
f 89//2 87//2 86//2
f 91//2 92//2 93//2
f 90//2 92//2 91//2
f 94//2 90//2 89//2
f 90//2 94//2 92//2
f 95//2 93//2 92//2
f 95//2 96//2 93//2
f 97//2 96//2 95//2
f 98//2 96//2 97//2
f 96//2 98//2 99//2
f 10//2 99//2 98//2
f 10//2 100//2 99//2
f 100//2 10//2 9//2
f 101//3 102//3 103//3
f 102//3 101//3 104//3
f 103//4 64//4 105//4
f 64//4 102//4 65//4
f 102//4 64//4 103//4
f 65//4 2//4 106//4
f 65//4 3//4 2//4
f 3//4 65//4 102//4
f 1//5 102//5 104//5
f 102//5 1//5 3//5
f 1//6 101//6 4//6
f 101//6 1//6 104//6
f 106//2 107//2 108//2
f 107//2 109//2 110//2
f 2//2 107//2 106//2
f 107//2 2//2 109//2
f 2//2 111//2 112//2
f 4//2 111//2 2//2
f 111//2 4//2 113//2
f 109//2 2//2 112//2
f 110//2 109//2 114//2
f 115//2 116//2 117//2
f 116//2 115//2 118//2
f 118//2 115//2 119//2
f 120//2 119//2 115//2
f 119//2 120//2 121//2
f 121//2 120//2 122//2
f 123//2 124//2 125//2
f 124//2 123//2 126//2
f 127//2 128//2 129//2
f 130//2 128//2 127//2
f 128//2 130//2 131//2
f 132//2 129//2 128//2
f 132//2 133//2 129//2
f 125//2 133//2 134//2
f 132//2 134//2 133//2
f 116//2 134//2 132//2
f 134//2 116//2 118//2
f 124//2 133//2 125//2
f 133//2 124//2 135//2
f 136//2 135//2 124//2
f 136//2 137//2 135//2
f 138//2 137//2 136//2
f 139//2 137//2 138//2
f 137//2 139//2 140//2
f 113//2 139//2 111//2
f 139//2 113//2 140//2
f 119//2 141//2 142//2
f 141//2 119//2 121//2
f 143//2 144//2 145//2
f 143//2 146//2 144//2
f 147//2 146//2 143//2
f 148//2 146//2 147//2
f 146//2 148//2 149//2
f 148//2 150//2 149//2
f 151//2 152//2 150//2
f 153//2 152//2 151//2
f 151//2 150//2 148//2
f 152//2 153//2 154//2
f 154//2 153//2 155//2
f 153//2 156//2 155//2
f 157//2 156//2 153//2
f 158//2 156//2 157//2
f 156//2 158//2 159//2
f 158//2 160//2 159//2
f 161//2 160//2 162//2
f 162//2 160//2 158//2
f 163//2 145//2 144//2
f 164//2 163//2 165//2
f 163//2 164//2 145//2
f 166//2 167//2 168//2
f 167//2 166//2 169//2
f 170//2 169//2 166//2
f 152//2 166//2 168//2
f 166//2 152//2 154//2
f 167//2 171//2 172//2
f 171//2 167//2 169//2
f 169//2 170//2 173//2
f 174//2 175//2 176//2
f 177//2 178//2 179//2
f 178//2 177//2 180//2
f 181//2 182//2 183//2
f 184//2 182//2 185//2
f 185//2 182//2 181//2
f 181//2 103//2 186//2
f 105//2 186//2 103//2
f 186//2 105//2 187//2
f 183//2 103//2 181//2
f 103//2 183//2 101//2
f 179//2 101//2 183//2
f 178//2 101//2 179//2
f 188//2 101//2 178//2
f 176//2 101//2 188//2
f 189//2 176//2 175//2
f 189//2 101//2 176//2
f 4//2 189//2 190//2
f 160//2 161//2 190//2
f 4//2 190//2 161//2
f 4//2 161//2 191//2
f 189//2 4//2 101//2
f 113//2 4//2 191//2
f 192//2 193//2 194//2
f 193//2 192//2 195//2
f 196//2 195//2 192//2
f 182//2 184//2 196//2
f 197//2 196//2 184//2
f 196//2 198//2 195//2
f 198//2 196//2 197//2
f 199//2 197//2 184//2
f 197//2 199//2 200//2
f 33//4 191//4 161//4
f 191//4 33//4 32//4
f 191//3 31//3 113//3
f 31//3 191//3 32//3
f 99//4 111//4 139//4
f 111//4 99//4 100//4
f 31//6 140//6 113//6
f 140//6 31//6 28//6
f 111//3 9//3 112//3
f 9//3 111//3 100//3
f 9//6 109//6 112//6
f 109//6 9//6 5//6
f 33//1 162//1 30//1
f 162//1 33//1 161//1
f 16//4 190//4 189//4
f 190//4 16//4 17//4
f 190//3 18//3 160//3
f 18//3 190//3 17//3
f 29//4 162//4 158//4
f 162//4 29//4 30//4
f 18//6 159//6 160//6
f 159//6 18//6 15//6
f 140//3 27//3 137//3
f 27//3 140//3 28//3
f 10//1 115//1 8//1
f 115//1 10//1 120//1
f 122//3 97//3 121//3
f 97//3 122//3 98//3
f 10//6 122//6 120//6
f 122//6 10//6 98//6
f 92//4 119//4 142//4
f 119//4 92//4 94//4
f 141//3 92//3 142//3
f 92//3 141//3 95//3
f 97//6 141//6 121//6
f 141//6 97//6 95//6
f 119//3 89//3 118//3
f 89//3 119//3 94//3
f 89//6 134//6 118//6
f 134//6 89//6 86//6
f 35//4 116//4 132//4
f 116//4 35//4 39//4
f 116//3 6//3 117//3
f 6//3 116//3 39//3
f 6//4 115//4 117//4
f 115//4 6//4 8//4
f 159//3 14//3 156//3
f 14//3 159//3 15//3
f 99//1 138//1 96//1
f 138//1 99//1 139//1
f 93//4 138//4 136//4
f 138//4 93//4 96//4
f 135//3 23//3 133//3
f 23//3 135//3 24//3
f 27//6 135//6 137//6
f 135//6 27//6 24//6
f 90//1 123//1 87//1
f 123//1 90//1 126//1
f 90//6 124//6 126//6
f 124//6 90//6 91//6
f 88//4 123//4 125//4
f 123//4 88//4 87//4
f 7//1 109//1 5//1
f 109//1 7//1 114//1
f 110//3 72//3 107//3
f 72//3 110//3 38//3
f 7//6 110//6 114//6
f 110//6 7//6 38//6
f 72//6 108//6 107//6
f 108//6 72//6 70//6
f 29//1 157//1 26//1
f 157//1 29//1 158//1
f 25//4 157//4 153//4
f 157//4 25//4 26//4
f 155//3 41//3 154//3
f 41//3 155//3 11//3
f 14//6 155//6 156//6
f 155//6 14//6 11//6
f 88//1 134//1 86//1
f 134//1 88//1 125//1
f 93//1 124//1 91//1
f 124//1 93//1 136//1
f 129//3 71//3 127//3
f 71//3 129//3 20//3
f 23//6 129//6 133//6
f 129//6 23//6 20//6
f 34//1 130//1 37//1
f 130//1 34//1 131//1
f 71//4 130//4 127//4
f 130//4 71//4 37//4
f 34//6 128//6 131//6
f 128//6 34//6 36//6
f 16//1 175//1 12//1
f 175//1 16//1 189//1
f 54//4 176//4 188//4
f 176//4 54//4 58//4
f 176//3 13//3 174//3
f 13//3 176//3 58//3
f 13//4 175//4 174//4
f 175//4 13//4 12//4
f 25//1 151//1 22//1
f 151//1 25//1 153//1
f 61//4 152//4 168//4
f 152//4 61//4 63//4
f 167//3 61//3 168//3
f 61//3 167//3 76//3
f 41//6 166//6 154//6
f 166//6 41//6 40//6
f 152//3 51//3 150//3
f 51//3 152//3 63//3
f 21//4 151//4 148//4
f 151//4 21//4 22//4
f 149//3 45//3 146//3
f 45//3 149//3 47//3
f 51//6 149//6 150//6
f 149//6 51//6 47//6
f 35//1 128//1 36//1
f 128//1 35//1 132//1
f 108//3 65//3 106//3
f 65//3 108//3 70//3
f 59//1 166//1 40//1
f 166//1 59//1 170//1
f 173//3 85//3 169//3
f 85//3 173//3 57//3
f 74//4 167//4 172//4
f 167//4 74//4 76//4
f 59//6 173//6 170//6
f 173//6 59//6 57//6
f 85//6 171//6 169//6
f 171//6 85//6 84//6
f 52//1 199//1 50//1
f 199//1 52//1 200//1
f 196//3 80//3 182//3
f 80//3 196//3 81//3
f 49//4 199//4 184//4
f 199//4 49//4 50//4
f 52//6 197//6 200//6
f 197//6 52//6 60//6
f 21//1 147//1 19//1
f 147//1 21//1 148//1
f 68//4 147//4 143//4
f 147//4 68//4 19//4
f 45//6 144//6 146//6
f 144//6 45//6 42//6
f 53//1 177//1 56//1
f 177//1 53//1 180//1
f 83//4 177//4 179//4
f 177//4 83//4 56//4
f 53//6 178//6 180//6
f 178//6 53//6 55//6
f 171//3 74//3 172//3
f 74//3 171//3 84//3
f 49//1 185//1 48//1
f 185//1 49//1 184//1
f 62//1 197//1 60//1
f 197//1 62//1 198//1
f 195//3 78//3 193//3
f 78//3 195//3 75//3
f 82//4 196//4 192//4
f 196//4 82//4 81//4
f 62//6 195//6 198//6
f 195//6 62//6 75//6
f 69//4 185//4 181//4
f 185//4 69//4 48//4
f 80//6 183//6 182//6
f 183//6 80//6 77//6
f 46//1 165//1 43//1
f 165//1 46//1 164//1
f 145//3 68//3 143//3
f 68//3 145//3 73//3
f 44//4 165//4 163//4
f 165//4 44//4 43//4
f 46//6 145//6 164//6
f 145//6 46//6 73//6
f 66//1 105//1 64//1
f 105//1 66//1 187//1
f 66//6 186//6 187//6
f 186//6 66//6 67//6
f 54//1 178//1 55//1
f 178//1 54//1 188//1
f 83//1 183//1 77//1
f 183//1 83//1 179//1
f 82//1 194//1 79//1
f 194//1 82//1 192//1
f 78//4 194//4 193//4
f 194//4 78//4 79//4
f 69//1 186//1 67//1
f 186//1 69//1 181//1
f 44//1 144//1 42//1
f 144//1 44//1 163//1
