# Blender v2.77 (sub 0) OBJ File: ''
# www.blender.org
mtllib LabyrinthandBallblend.mtl
o aLabyrinth
v -15.000000 0.000000 15.000000
v -15.000000 3.000000 -15.000000
v -15.000000 0.000000 -15.000000
v -15.000000 3.000000 15.000000
v -4.024390 1.000000 -10.609800
v -6.951220 1.000000 -7.682930
v -4.024390 1.000000 -0.365853
v -7.682930 1.000000 -7.682930
v -10.609800 1.000000 -10.609800
v -10.609800 1.000000 -6.951220
v -7.682930 1.000000 -4.024390
v -11.341500 1.000000 -4.024390
v -11.341500 1.000000 -6.951220
v -6.951220 1.000000 -3.292680
v -7.682930 1.000000 -0.365853
v -10.609800 1.000000 -3.292680
v -10.609800 1.000000 4.024390
v -7.682930 1.000000 6.951220
v -11.341500 1.000000 6.951220
v -14.268300 1.000000 4.024390
v -11.341500 1.000000 7.682930
v -4.024390 1.000000 0.365854
v -6.951220 1.000000 0.365854
v -4.024390 1.000000 4.024390
v -4.024390 1.000000 -15.000000
v -6.951220 1.000000 -15.000000
v -4.024390 1.000000 -14.268300
v 6.951220 1.000000 -10.609800
v 3.292680 1.000000 -7.682930
v 6.951220 1.000000 -7.682930
v 0.365853 1.000000 -7.682930
v 3.292680 1.000000 -6.951220
v -3.292680 1.000000 -10.609800
v -3.292680 1.000000 4.024390
v -0.365854 1.000000 -7.682930
v 10.609800 1.000000 -14.268300
v 7.682930 1.000000 -11.341500
v 10.609800 1.000000 -4.024390
v -6.951220 1.000000 -14.268300
v -11.341500 1.000000 -11.341500
v -14.268300 1.000000 -14.268300
v -14.268300 1.000000 3.292680
v -11.341500 1.000000 3.292680
v 7.682930 1.000000 -6.951220
v 0.365853 1.000000 -4.024390
v 3.292680 1.000000 -3.292680
v 0.365853 1.000000 -3.292680
v 3.292680 1.000000 7.682930
v 11.341500 1.000000 -3.292680
v 6.951220 1.000000 -0.365853
v 11.341500 1.000000 -0.365853
v 4.024390 1.000000 -3.292680
v 6.951220 1.000000 4.024390
v 14.268300 1.000000 -14.268300
v 11.341500 1.000000 -14.268300
v 14.268300 1.000000 14.268300
v 11.341500 1.000000 11.341500
v -0.365854 1.000000 11.341500
v -3.292680 1.000000 6.951220
v -3.292680 1.000000 14.268300
v 7.682930 1.000000 6.951220
v 7.682930 1.000000 4.024390
v 4.024390 1.000000 6.951220
v 10.609800 1.000000 0.365854
v 7.682930 1.000000 0.365854
v 10.609800 1.000000 10.609800
v 7.682930 1.000000 7.682930
v 0.365853 1.000000 10.609800
v -6.951220 1.000000 6.951220
v -4.024390 1.000000 7.682930
v -6.951220 1.000000 10.609800
v -4.024390 1.000000 14.268300
v -14.268300 1.000000 10.609800
v -6.951220 1.000000 11.341500
v -14.268300 1.000000 14.268300
v -14.268300 1.000000 11.341500
v 15.000000 3.000000 15.000000
v 15.000000 0.000000 -15.000000
v 15.000000 3.000000 -15.000000
v 15.000000 0.000000 15.000000
v -4.024390 3.000000 -15.000000
v -6.951220 3.000000 -15.000000
v -14.268300 3.000000 -14.268300
v -6.951220 3.000000 -14.268300
v -14.268300 3.000000 3.292680
v -14.268300 3.000000 4.024390
v -14.268300 3.000000 10.609800
v -14.268300 3.000000 11.341500
v -7.682930 3.000000 -4.024390
v -6.951220 3.000000 -7.682930
v -7.682930 3.000000 -7.682930
v -6.951220 3.000000 -3.292680
v -10.609800 3.000000 -3.292680
v -11.341500 3.000000 -4.024390
v -11.341500 3.000000 3.292680
v -10.609800 3.000000 4.024390
v -6.951220 3.000000 11.341500
v -6.951220 3.000000 10.609800
v -4.024390 3.000000 -0.365853
v -6.951220 3.000000 0.365854
v -4.024390 3.000000 0.365854
v -7.682930 3.000000 6.951220
v -7.682930 3.000000 -0.365853
v 7.682930 3.000000 -11.341500
v 6.951220 3.000000 -10.609800
v 7.682930 3.000000 -6.951220
v -3.292680 3.000000 -10.609800
v -4.024390 3.000000 -10.609800
v -11.341500 3.000000 -11.341500
v -10.609800 3.000000 -10.609800
v -11.341500 3.000000 -6.951220
v -10.609800 3.000000 -6.951220
v 6.951220 3.000000 -7.682930
v 3.292680 3.000000 -6.951220
v 3.292680 3.000000 -7.682930
v -3.292680 3.000000 4.024390
v -4.024390 3.000000 4.024390
v -3.292680 3.000000 6.951220
v -4.024390 3.000000 7.682930
v -3.292680 3.000000 14.268300
v -6.951220 3.000000 6.951220
v -11.341500 3.000000 7.682930
v -11.341500 3.000000 6.951220
v -0.365854 3.000000 -7.682930
v 0.365853 3.000000 -4.024390
v 0.365853 3.000000 -7.682930
v 0.365853 3.000000 -3.292680
v -0.365854 3.000000 11.341500
v 14.268300 3.000000 -14.268300
v 11.341500 3.000000 -14.268300
v 10.609800 3.000000 -4.024390
v 10.609800 3.000000 -14.268300
v -4.024390 3.000000 -14.268300
v 14.268300 3.000000 14.268300
v -4.024390 3.000000 14.268300
v -14.268300 3.000000 14.268300
v 11.341500 3.000000 -3.292680
v 4.024390 3.000000 -3.292680
v 3.292680 3.000000 -3.292680
v 4.024390 3.000000 6.951220
v 7.682930 3.000000 7.682930
v 7.682930 3.000000 6.951220
v 3.292680 3.000000 7.682930
v 11.341500 3.000000 -0.365853
v 10.609800 3.000000 0.365854
v 11.341500 3.000000 11.341500
v 7.682930 3.000000 0.365854
v 6.951220 3.000000 -0.365853
v 6.951220 3.000000 4.024390
v 7.682930 3.000000 4.024390
v 10.609800 3.000000 10.609800
v 0.365853 3.000000 10.609800
vn -1.0000 0.0000 0.0000
vn 0.0000 1.0000 0.0000
vn 1.0000 0.0000 0.0000
vn 0.0000 0.0000 -1.0000
vn 0.0000 -1.0000 0.0000
vn 0.0000 0.0000 1.0000
usemtl Woodlabyrinth
s off
f 1//1 2//1 3//1
f 2//1 1//1 4//1
f 5//2 6//2 7//2
f 5//2 8//2 6//2
f 9//2 8//2 5//2
f 10//2 8//2 9//2
f 8//2 10//2 11//2
f 12//2 10//2 13//2
f 10//2 12//2 11//2
f 14//2 7//2 6//2
f 14//2 15//2 7//2
f 16//2 15//2 14//2
f 17//2 15//2 16//2
f 15//2 17//2 18//2
f 17//2 19//2 18//2
f 19//2 20//2 21//2
f 20//2 19//2 17//2
f 22//2 23//2 24//2
f 25//2 26//2 27//2
f 28//2 29//2 30//2
f 29//2 31//2 32//2
f 28//2 31//2 29//2
f 33//2 31//2 28//2
f 34//2 35//2 33//2
f 31//2 33//2 35//2
f 36//2 37//2 38//2
f 27//2 37//2 36//2
f 39//2 27//2 26//2
f 40//2 27//2 39//2
f 27//2 40//2 37//2
f 41//2 13//2 40//2
f 13//2 41//2 12//2
f 41//2 40//2 39//2
f 12//2 41//2 42//2
f 12//2 42//2 43//2
f 44//2 38//2 37//2
f 32//2 38//2 44//2
f 45//2 32//2 31//2
f 32//2 45//2 38//2
f 46//2 47//2 48//2
f 49//2 50//2 51//2
f 50//2 52//2 53//2
f 52//2 50//2 49//2
f 49//2 54//2 55//2
f 51//2 54//2 49//2
f 54//2 51//2 56//2
f 57//2 56//2 51//2
f 58//2 56//2 57//2
f 35//2 34//2 58//2
f 59//2 58//2 34//2
f 58//2 60//2 56//2
f 60//2 58//2 59//2
f 53//2 61//2 62//2
f 63//2 53//2 52//2
f 53//2 63//2 61//2
f 62//2 64//2 65//2
f 64//2 62//2 66//2
f 61//2 66//2 62//2
f 67//2 66//2 61//2
f 48//2 66//2 67//2
f 48//2 68//2 66//2
f 68//2 48//2 47//2
f 24//2 59//2 34//2
f 69//2 24//2 23//2
f 24//2 69//2 59//2
f 70//2 71//2 72//2
f 21//2 71//2 70//2
f 21//2 73//2 71//2
f 73//2 21//2 20//2
f 74//2 72//2 71//2
f 75//2 74//2 76//2
f 74//2 75//2 72//2
f 77//3 78//3 79//3
f 78//3 77//3 80//3
f 79//4 25//4 81//4
f 3//4 25//4 78//4
f 78//4 25//4 79//4
f 26//4 2//4 82//4
f 26//4 3//4 2//4
f 25//4 3//4 26//4
f 1//5 78//5 80//5
f 78//5 1//5 3//5
f 1//6 77//6 4//6
f 77//6 1//6 80//6
f 82//2 83//2 84//2
f 2//2 85//2 83//2
f 4//2 85//2 2//2
f 85//2 4//2 86//2
f 86//2 4//2 87//2
f 87//2 4//2 88//2
f 2//2 83//2 82//2
f 89//2 90//2 91//2
f 90//2 89//2 92//2
f 89//2 93//2 92//2
f 94//2 93//2 89//2
f 95//2 93//2 94//2
f 93//2 95//2 96//2
f 86//2 95//2 85//2
f 95//2 86//2 96//2
f 87//2 97//2 98//2
f 97//2 87//2 88//2
f 99//2 100//2 101//2
f 102//2 100//2 103//2
f 103//2 100//2 99//2
f 104//2 105//2 106//2
f 104//2 107//2 105//2
f 99//2 107//2 108//2
f 109//2 107//2 104//2
f 107//2 109//2 108//2
f 108//2 109//2 110//2
f 111//2 110//2 109//2
f 110//2 111//2 112//2
f 113//2 106//2 105//2
f 114//2 113//2 115//2
f 113//2 114//2 106//2
f 107//2 99//2 116//2
f 101//2 116//2 99//2
f 116//2 101//2 117//2
f 118//2 119//2 120//2
f 121//2 119//2 118//2
f 100//2 102//2 121//2
f 102//2 119//2 121//2
f 122//2 102//2 123//2
f 102//2 122//2 119//2
f 124//2 125//2 126//2
f 125//2 124//2 127//2
f 128//2 127//2 124//2
f 79//2 129//2 77//2
f 79//2 130//2 129//2
f 131//2 130//2 132//2
f 79//2 132//2 130//2
f 81//2 132//2 79//2
f 132//2 81//2 133//2
f 134//2 77//2 129//2
f 120//2 77//2 134//2
f 135//2 120//2 119//2
f 4//2 120//2 135//2
f 4//2 135//2 136//2
f 120//2 4//2 77//2
f 88//2 4//2 136//2
f 130//2 131//2 137//2
f 131//2 138//2 137//2
f 138//2 139//2 140//2
f 125//2 138//2 131//2
f 138//2 125//2 139//2
f 139//2 125//2 127//2
f 140//2 141//2 142//2
f 140//2 143//2 141//2
f 143//2 140//2 139//2
f 144//2 145//2 146//2
f 144//2 147//2 145//2
f 148//2 147//2 144//2
f 149//2 147//2 148//2
f 147//2 149//2 150//2
f 151//2 146//2 145//2
f 152//2 146//2 151//2
f 152//2 128//2 146//2
f 127//2 128//2 152//2
f 72//4 136//4 135//4
f 136//4 72//4 75//4
f 136//3 76//3 88//3
f 76//3 136//3 75//3
f 71//4 87//4 98//4
f 87//4 71//4 73//4
f 76//6 97//6 88//6
f 97//6 76//6 74//6
f 87//3 20//3 86//3
f 20//3 87//3 73//3
f 96//3 16//3 93//3
f 16//3 96//3 17//3
f 20//6 96//6 86//6
f 96//6 20//6 17//6
f 43//4 85//4 95//4
f 85//4 43//4 42//4
f 85//3 41//3 83//3
f 41//3 85//3 42//3
f 41//6 84//6 83//6
f 84//6 41//6 39//6
f 97//3 71//3 98//3
f 71//3 97//3 74//3
f 21//1 123//1 19//1
f 123//1 21//1 122//1
f 21//6 119//6 122//6
f 119//6 21//6 70//6
f 18//4 123//4 102//4
f 123//4 18//4 19//4
f 43//1 94//1 12//1
f 94//1 43//1 95//1
f 11//4 94//4 89//4
f 94//4 11//4 12//4
f 92//3 6//3 90//3
f 6//3 92//3 14//3
f 16//6 92//6 93//6
f 92//6 16//6 14//6
f 13//1 109//1 40//1
f 109//1 13//1 111//1
f 112//3 9//3 110//3
f 9//3 112//3 10//3
f 37//4 109//4 104//4
f 109//4 37//4 40//4
f 13//6 112//6 111//6
f 112//6 13//6 10//6
f 9//6 108//6 110//6
f 108//6 9//6 5//6
f 84//3 26//3 82//3
f 26//3 84//3 39//3
f 18//1 103//1 15//1
f 103//1 18//1 102//1
f 120//3 59//3 118//3
f 59//3 120//3 60//3
f 59//4 121//4 118//4
f 121//4 59//4 69//4
f 121//3 23//3 100//3
f 23//3 121//3 69//3
f 7//4 103//4 99//4
f 103//4 7//4 15//4
f 116//3 33//3 107//3
f 33//3 116//3 34//3
f 23//6 101//6 100//6
f 101//6 23//6 22//6
f 11//1 91//1 8//1
f 91//1 11//1 89//1
f 6//4 91//4 90//4
f 91//4 6//4 8//4
f 72//1 119//1 70//1
f 119//1 72//1 135//1
f 56//4 120//4 134//4
f 120//4 56//4 60//4
f 24//1 101//1 22//1
f 101//1 24//1 117//1
f 7//1 108//1 5//1
f 108//1 7//1 99//1
f 24//6 116//6 117//6
f 116//6 24//6 34//6
f 33//6 105//6 107//6
f 105//6 33//6 28//6
f 27//1 81//1 25//1
f 81//1 27//1 133//1
f 27//6 132//6 133//6
f 132//6 27//6 36//6
f 58//1 124//1 35//1
f 124//1 58//1 128//1
f 66//4 152//4 151//4
f 152//4 66//4 68//4
f 58//6 146//6 128//6
f 146//6 58//6 57//6
f 152//3 47//3 127//3
f 47//3 152//3 68//3
f 38//4 125//4 131//4
f 125//4 38//4 45//4
f 47//6 139//6 127//6
f 139//6 47//6 46//6
f 125//3 31//3 126//3
f 31//3 125//3 45//3
f 31//4 124//4 126//4
f 124//4 31//4 35//4
f 48//1 139//1 46//1
f 139//1 48//1 143//1
f 141//3 61//3 142//3
f 61//3 141//3 67//3
f 61//4 140//4 142//4
f 140//4 61//4 63//4
f 48//6 141//6 143//6
f 141//6 48//6 67//6
f 140//3 52//3 138//3
f 52//3 140//3 63//3
f 52//6 137//6 138//6
f 137//6 52//6 49//6
f 32//1 115//1 29//1
f 115//1 32//1 114//1
f 106//3 37//3 104//3
f 37//3 106//3 44//3
f 32//6 106//6 114//6
f 106//6 32//6 44//6
f 30//4 115//4 113//4
f 115//4 30//4 29//4
f 146//3 51//3 144//3
f 51//3 146//3 57//3
f 53//1 148//1 50//1
f 148//1 53//1 149//1
f 150//3 65//3 147//3
f 65//3 150//3 62//3
f 51//4 148//4 144//4
f 148//4 51//4 50//4
f 53//6 150//6 149//6
f 150//6 53//6 62//6
f 65//6 145//6 147//6
f 145//6 65//6 64//6
f 137//3 55//3 130//3
f 55//3 137//3 49//3
f 30//1 105//1 28//1
f 105//1 30//1 113//1
f 56//1 129//1 54//1
f 129//1 56//1 134//1
f 66//1 145//1 64//1
f 145//1 66//1 151//1
f 38//1 132//1 36//1
f 132//1 38//1 131//1
f 55//6 129//6 130//6
f 129//6 55//6 54//6
