# Blender v2.77 (sub 0) OBJ File: ''
# www.blender.org
mtllib LabyrinthandBallblend.mtl
o aLabyrinth
v -15.000000 0.000000 15.000000
v -15.000000 3.000000 -15.000000
v -15.000000 0.000000 -15.000000
v -15.000000 3.000000 15.000000
v -10.609800 1.000000 0.365854
v -7.682930 1.000000 4.024390
v -7.682930 1.000000 0.365854
v -7.682930 1.000000 6.951220
v -10.609800 1.000000 10.609800
v -10.609800 1.000000 -10.609800
v -6.951220 1.000000 -7.682930
v -6.951220 1.000000 -10.609800
v -10.609800 1.000000 -7.682930
v -4.024390 1.000000 -14.268300
v -6.951220 1.000000 -11.341500
v -11.341500 1.000000 -11.341500
v -14.268300 1.000000 -14.268300
v -11.341500 1.000000 -6.951220
v 3.292680 1.000000 -10.609800
v 0.365853 1.000000 -7.682930
v 3.292680 1.000000 -3.292680
v -0.365854 1.000000 -7.682930
v -3.292680 1.000000 -10.609800
v -3.292680 1.000000 0.365854
v -0.365854 1.000000 3.292680
v -4.024390 1.000000 0.365854
v -6.951220 1.000000 3.292680
v 14.268300 1.000000 7.682930
v 11.341500 1.000000 10.609800
v 14.268300 1.000000 14.268300
v 10.609800 1.000000 7.682930
v 10.609800 1.000000 3.292680
v 7.682930 1.000000 4.024390
v 7.682930 1.000000 6.951220
v 7.682930 1.000000 10.609800
v 11.341500 1.000000 11.341500
v 6.951220 1.000000 11.341500
v 4.024390 1.000000 11.341500
v 4.024390 1.000000 10.609800
v -10.609800 1.000000 14.268300
v -10.609800 1.000000 11.341500
v 6.951220 1.000000 -3.292680
v 4.024390 1.000000 -0.365853
v 6.951220 1.000000 3.292680
v 0.365853 1.000000 -0.365853
v 4.024390 1.000000 0.365854
v 3.292680 1.000000 3.292680
v 0.365853 1.000000 0.365854
v 0.365853 1.000000 4.024390
v 3.292680 1.000000 6.951220
v 6.951220 1.000000 7.682930
v -7.682930 1.000000 7.682930
v 7.682930 1.000000 -14.268300
v 6.951220 1.000000 -11.341500
v 7.682930 1.000000 -11.341500
v 4.024390 1.000000 -11.341500
v 6.951220 1.000000 -6.951220
v -3.292680 1.000000 -14.268300
v -3.292680 1.000000 -11.341500
v 4.024390 1.000000 4.024390
v 4.024390 1.000000 6.951220
v 10.609800 1.000000 -6.951220
v 7.682930 1.000000 -4.024390
v 10.609800 1.000000 -3.292680
v 4.024390 1.000000 -4.024390
v 10.609800 1.000000 -15.000000
v 7.682930 1.000000 -15.000000
v 10.609800 1.000000 -10.609800
v 11.341500 1.000000 -7.682930
v 11.341500 1.000000 -10.609800
v 7.682930 1.000000 -7.682930
v 14.268300 1.000000 -14.268300
v 11.341500 1.000000 -14.268300
v 14.268300 1.000000 -4.024390
v 11.341500 1.000000 -4.024390
v 11.341500 1.000000 0.365854
v 11.341500 1.000000 3.292680
v 7.682930 1.000000 0.365854
v 14.268300 1.000000 -3.292680
v 11.341500 1.000000 -0.365853
v 7.682930 1.000000 -0.365853
v 14.268300 1.000000 6.951220
v 11.341500 1.000000 6.951220
v -7.682930 1.000000 -6.951220
v -10.609800 1.000000 -4.024390
v -7.682930 1.000000 -0.365853
v -14.268300 1.000000 -4.024390
v -10.609800 1.000000 -3.292680
v -11.341500 1.000000 -0.365853
v -14.268300 1.000000 -3.292680
v -14.268300 1.000000 14.268300
v -11.341500 1.000000 14.268300
v 15.000000 3.000000 15.000000
v 15.000000 0.000000 -15.000000
v 15.000000 3.000000 -15.000000
v 15.000000 0.000000 15.000000
v 10.609800 3.000000 -15.000000
v 7.682930 3.000000 -15.000000
v -3.292680 3.000000 -14.268300
v 7.682930 3.000000 -14.268300
v -4.024390 3.000000 -14.268300
v -3.292680 3.000000 -11.341500
v -3.292680 3.000000 -10.609800
v -4.024390 3.000000 0.365854
v -14.268300 3.000000 -4.024390
v -14.268300 3.000000 -14.268300
v -14.268300 3.000000 -3.292680
v 4.024390 3.000000 -11.341500
v 3.292680 3.000000 -10.609800
v 4.024390 3.000000 -4.024390
v 7.682930 3.000000 -11.341500
v 6.951220 3.000000 -11.341500
v 7.682930 3.000000 -7.682930
v 11.341500 3.000000 -7.682930
v 10.609800 3.000000 -6.951220
v 11.341500 3.000000 -4.024390
v 6.951220 3.000000 -6.951220
v 11.341500 3.000000 6.951220
v 14.268300 3.000000 7.682930
v 14.268300 3.000000 6.951220
v 10.609800 3.000000 7.682930
v 10.609800 3.000000 3.292680
v 14.268300 3.000000 -3.292680
v 14.268300 3.000000 -4.024390
v 10.609800 3.000000 -3.292680
v 14.268300 3.000000 -14.268300
v 11.341500 3.000000 -14.268300
v 10.609800 3.000000 -10.609800
v 11.341500 3.000000 -10.609800
v 14.268300 3.000000 14.268300
v -10.609800 3.000000 14.268300
v -10.609800 3.000000 11.341500
v -11.341500 3.000000 14.268300
v -14.268300 3.000000 14.268300
v 6.951220 3.000000 -3.292680
v 7.682930 3.000000 -0.365853
v 7.682930 3.000000 -4.024390
v 7.682930 3.000000 0.365854
v 6.951220 3.000000 3.292680
v 3.292680 3.000000 -3.292680
v 11.341500 3.000000 0.365854
v 11.341500 3.000000 -0.365853
v 7.682930 3.000000 4.024390
v 4.024390 3.000000 4.024390
v 3.292680 3.000000 6.951220
v 3.292680 3.000000 3.292680
v -3.292680 3.000000 0.365854
v -10.609800 3.000000 -3.292680
v -10.609800 3.000000 -4.024390
v -10.609800 3.000000 10.609800
v 4.024390 3.000000 11.341500
v 4.024390 3.000000 10.609800
v -6.951220 3.000000 -11.341500
v -10.609800 3.000000 -10.609800
v -6.951220 3.000000 -10.609800
v -11.341500 3.000000 -11.341500
v -10.609800 3.000000 -7.682930
v -7.682930 3.000000 -0.365853
v -10.609800 3.000000 0.365854
v -7.682930 3.000000 0.365854
v -11.341500 3.000000 -0.365853
v -6.951220 3.000000 -7.682930
v -7.682930 3.000000 -6.951220
v -11.341500 3.000000 -6.951220
v 7.682930 3.000000 6.951220
v 6.951220 3.000000 7.682930
v 7.682930 3.000000 10.609800
v 4.024390 3.000000 6.951220
v -7.682930 3.000000 7.682930
v -7.682930 3.000000 6.951220
v 11.341500 3.000000 3.292680
v 11.341500 3.000000 11.341500
v 11.341500 3.000000 10.609800
v 6.951220 3.000000 11.341500
v -0.365854 3.000000 -7.682930
v 0.365853 3.000000 -0.365853
v 0.365853 3.000000 -7.682930
v -0.365854 3.000000 3.292680
v 0.365853 3.000000 0.365854
v 0.365853 3.000000 4.024390
v -6.951220 3.000000 3.292680
v -7.682930 3.000000 4.024390
v 4.024390 3.000000 0.365854
v 4.024390 3.000000 -0.365853
vn -1.0000 0.0000 0.0000
vn 0.0000 1.0000 0.0000
vn 1.0000 0.0000 0.0000
vn 0.0000 0.0000 -1.0000
vn 0.0000 -1.0000 0.0000
vn 0.0000 0.0000 1.0000
usemtl Woodlabyrinth
s off
f 1//1 2//1 3//1
f 2//1 1//1 4//1
f 5//2 6//2 7//2
f 6//2 5//2 8//2
f 9//2 8//2 5//2
f 10//2 11//2 12//2
f 11//2 10//2 13//2
f 12//2 14//2 15//2
f 14//2 16//2 15//2
f 16//2 17//2 18//2
f 17//2 16//2 14//2
f 19//2 20//2 21//2
f 19//2 22//2 20//2
f 23//2 22//2 19//2
f 24//2 22//2 23//2
f 22//2 24//2 25//2
f 26//2 25//2 24//2
f 11//2 14//2 12//2
f 14//2 11//2 26//2
f 26//2 27//2 25//2
f 27//2 26//2 11//2
f 28//2 29//2 30//2
f 31//2 29//2 28//2
f 32//2 33//2 31//2
f 34//2 31//2 33//2
f 35//2 31//2 34//2
f 31//2 35//2 29//2
f 36//2 30//2 29//2
f 37//2 30//2 36//2
f 38//2 37//2 39//2
f 37//2 38//2 30//2
f 40//2 38//2 41//2
f 38//2 40//2 30//2
f 42//2 43//2 44//2
f 21//2 43//2 42//2
f 45//2 21//2 20//2
f 21//2 45//2 43//2
f 46//2 44//2 43//2
f 46//2 47//2 44//2
f 48//2 47//2 46//2
f 49//2 47//2 48//2
f 47//2 49//2 50//2
f 8//2 49//2 6//2
f 49//2 8//2 50//2
f 51//2 39//2 37//2
f 52//2 39//2 51//2
f 52//2 9//2 39//2
f 8//2 9//2 52//2
f 53//2 54//2 55//2
f 54//2 56//2 57//2
f 53//2 56//2 54//2
f 58//2 56//2 53//2
f 56//2 58//2 59//2
f 60//2 34//2 33//2
f 34//2 60//2 61//2
f 62//2 63//2 64//2
f 57//2 63//2 62//2
f 65//2 57//2 56//2
f 57//2 65//2 63//2
f 53//2 66//2 67//2
f 68//2 69//2 70//2
f 66//2 53//2 68//2
f 55//2 68//2 53//2
f 71//2 68//2 55//2
f 68//2 71//2 69//2
f 70//2 72//2 73//2
f 72//2 70//2 74//2
f 69//2 74//2 70//2
f 74//2 69//2 75//2
f 76//2 32//2 77//2
f 33//2 32//2 78//2
f 78//2 32//2 76//2
f 76//2 79//2 80//2
f 64//2 80//2 79//2
f 81//2 64//2 63//2
f 64//2 81//2 80//2
f 79//2 76//2 82//2
f 77//2 82//2 76//2
f 82//2 77//2 83//2
f 84//2 85//2 86//2
f 18//2 85//2 84//2
f 87//2 18//2 17//2
f 18//2 87//2 85//2
f 88//2 86//2 85//2
f 88//2 89//2 86//2
f 90//2 89//2 88//2
f 91//2 89//2 90//2
f 89//2 91//2 92//2
f 93//3 94//3 95//3
f 94//3 93//3 96//3
f 95//4 66//4 97//4
f 66//4 94//4 67//4
f 94//4 66//4 95//4
f 67//4 2//4 98//4
f 3//4 67//4 94//4
f 67//4 3//4 2//4
f 1//5 94//5 96//5
f 94//5 1//5 3//5
f 1//6 93//6 4//6
f 93//6 1//6 96//6
f 98//2 99//2 100//2
f 101//2 102//2 99//2
f 102//2 101//2 103//2
f 104//2 103//2 101//2
f 98//2 101//2 99//2
f 2//2 101//2 98//2
f 2//2 105//2 106//2
f 105//2 2//2 107//2
f 4//2 107//2 2//2
f 101//2 2//2 106//2
f 108//2 109//2 110//2
f 102//2 109//2 108//2
f 109//2 102//2 103//2
f 111//2 112//2 113//2
f 114//2 115//2 116//2
f 113//2 115//2 114//2
f 113//2 117//2 115//2
f 117//2 113//2 112//2
f 118//2 119//2 120//2
f 118//2 121//2 119//2
f 121//2 118//2 122//2
f 116//2 123//2 124//2
f 116//2 125//2 123//2
f 125//2 116//2 115//2
f 124//2 95//2 126//2
f 95//2 127//2 126//2
f 97//2 127//2 95//2
f 128//2 127//2 97//2
f 127//2 128//2 129//2
f 123//2 95//2 124//2
f 95//2 123//2 93//2
f 120//2 93//2 123//2
f 119//2 93//2 120//2
f 130//2 93//2 119//2
f 131//2 93//2 130//2
f 132//2 133//2 131//2
f 4//2 131//2 133//2
f 4//2 133//2 134//2
f 131//2 4//2 93//2
f 107//2 4//2 134//2
f 135//2 136//2 137//2
f 136//2 135//2 138//2
f 139//2 138//2 135//2
f 110//2 135//2 137//2
f 110//2 140//2 135//2
f 140//2 110//2 109//2
f 136//2 141//2 142//2
f 141//2 136//2 138//2
f 138//2 139//2 143//2
f 139//2 144//2 143//2
f 145//2 144//2 146//2
f 146//2 144//2 139//2
f 103//2 104//2 147//2
f 105//2 148//2 149//2
f 148//2 105//2 107//2
f 150//2 151//2 152//2
f 151//2 150//2 132//2
f 153//2 154//2 155//2
f 154//2 156//2 157//2
f 156//2 154//2 153//2
f 158//2 159//2 160//2
f 161//2 150//2 159//2
f 133//2 150//2 161//2
f 150//2 133//2 132//2
f 161//2 159//2 158//2
f 158//2 162//2 163//2
f 157//2 163//2 162//2
f 157//2 164//2 163//2
f 164//2 157//2 156//2
f 165//2 166//2 167//2
f 168//2 166//2 165//2
f 144//2 145//2 168//2
f 145//2 166//2 168//2
f 169//2 145//2 170//2
f 145//2 169//2 166//2
f 171//2 122//2 118//2
f 167//2 172//2 173//2
f 167//2 174//2 172//2
f 174//2 167//2 166//2
f 175//2 176//2 177//2
f 178//2 176//2 175//2
f 176//2 178//2 179//2
f 179//2 178//2 180//2
f 181//2 180//2 178//2
f 162//2 158//2 181//2
f 160//2 181//2 158//2
f 181//2 182//2 180//2
f 182//2 181//2 160//2
f 176//2 183//2 184//2
f 183//2 176//2 179//2
f 92//4 134//4 133//4
f 134//4 92//4 91//4
f 134//3 90//3 107//3
f 90//3 134//3 91//3
f 85//4 105//4 149//4
f 105//4 85//4 87//4
f 148//3 85//3 149//3
f 85//3 148//3 88//3
f 90//6 148//6 107//6
f 148//6 90//6 88//6
f 105//3 17//3 106//3
f 17//3 105//3 87//3
f 17//6 101//6 106//6
f 101//6 17//6 14//6
f 92//1 161//1 89//1
f 161//1 92//1 133//1
f 30//4 131//4 130//4
f 131//4 30//4 40//4
f 131//3 41//3 132//3
f 41//3 131//3 40//3
f 41//6 151//6 132//6
f 151//6 41//6 38//6
f 39//4 150//4 152//4
f 150//4 39//4 9//4
f 150//3 5//3 159//3
f 5//3 150//3 9//3
f 86//4 161//4 158//4
f 161//4 86//4 89//4
f 181//3 11//3 162//3
f 11//3 181//3 27//3
f 5//6 160//6 159//6
f 160//6 5//6 7//6
f 18//1 156//1 16//1
f 156//1 18//1 164//1
f 18//6 163//6 164//6
f 163//6 18//6 84//6
f 11//4 157//4 162//4
f 157//4 11//4 13//4
f 157//3 10//3 154//3
f 10//3 157//3 13//3
f 15//4 156//4 153//4
f 156//4 15//4 16//4
f 155//3 15//3 153//3
f 15//3 155//3 12//3
f 10//6 155//6 154//6
f 155//6 10//6 12//6
f 52//1 170//1 8//1
f 170//1 52//1 169//1
f 52//6 166//6 169//6
f 166//6 52//6 51//6
f 50//4 170//4 145//4
f 170//4 50//4 8//4
f 6//1 160//1 7//1
f 160//1 6//1 182//1
f 86//1 163//1 84//1
f 163//1 86//1 158//1
f 6//6 180//6 182//6
f 180//6 6//6 49//6
f 25//4 181//4 178//4
f 181//4 25//4 27//4
f 180//3 48//3 179//3
f 48//3 180//3 49//3
f 26//1 101//1 14//1
f 101//1 26//1 104//1
f 147//3 23//3 103//3
f 23//3 147//3 24//3
f 26//6 147//6 104//6
f 147//6 26//6 24//6
f 56//4 102//4 108//4
f 102//4 56//4 59//4
f 23//6 109//6 103//6
f 109//6 23//6 19//6
f 102//3 58//3 99//3
f 58//3 102//3 59//3
f 58//6 100//6 99//6
f 100//6 58//6 53//6
f 151//3 39//3 152//3
f 39//3 151//3 38//3
f 25//1 175//1 22//1
f 175//1 25//1 178//1
f 43//4 176//4 184//4
f 176//4 43//4 45//4
f 183//3 43//3 184//3
f 43//3 183//3 46//3
f 48//6 183//6 179//6
f 183//6 48//6 46//6
f 176//3 20//3 177//3
f 20//3 176//3 45//3
f 20//4 175//4 177//4
f 175//4 20//4 22//4
f 110//3 56//3 108//3
f 56//3 110//3 65//3
f 50//1 146//1 47//1
f 146//1 50//1 145//1
f 167//3 34//3 165//3
f 34//3 167//3 35//3
f 34//4 168//4 165//4
f 168//4 34//4 61//4
f 168//3 60//3 144//3
f 60//3 168//3 61//3
f 44//4 146//4 139//4
f 146//4 44//4 47//4
f 143//3 78//3 138//3
f 78//3 143//3 33//3
f 60//6 143//6 144//6
f 143//6 60//6 33//6
f 21//1 109//1 19//1
f 109//1 21//1 140//1
f 136//3 63//3 137//3
f 63//3 136//3 81//3
f 63//4 110//4 137//4
f 110//4 63//4 65//4
f 21//6 135//6 140//6
f 135//6 21//6 42//6
f 100//3 67//3 98//3
f 67//3 100//3 53//3
f 37//1 166//1 51//1
f 166//1 37//1 174//1
f 172//3 29//3 173//3
f 29//3 172//3 36//3
f 29//4 167//4 173//4
f 167//4 29//4 35//4
f 37//6 172//6 174//6
f 172//6 37//6 36//6
f 44//1 135//1 42//1
f 135//1 44//1 139//1
f 141//3 80//3 142//3
f 80//3 141//3 76//3
f 78//6 141//6 138//6
f 141//6 78//6 76//6
f 80//4 136//4 142//4
f 136//4 80//4 81//4
f 57//1 112//1 54//1
f 112//1 57//1 117//1
f 116//3 69//3 114//3
f 69//3 116//3 75//3
f 69//4 113//4 114//4
f 113//4 69//4 71//4
f 57//6 115//6 117//6
f 115//6 57//6 62//6
f 113//3 55//3 111//3
f 55//3 113//3 71//3
f 55//4 112//4 111//4
f 112//4 55//4 54//4
f 30//1 119//1 28//1
f 119//1 30//1 130//1
f 31//1 122//1 32//1
f 122//1 31//1 121//1
f 82//4 118//4 120//4
f 118//4 82//4 83//4
f 31//6 119//6 121//6
f 119//6 31//6 28//6
f 118//3 77//3 171//3
f 77//3 118//3 83//3
f 77//4 122//4 171//4
f 122//4 77//4 32//4
f 82//1 123//1 79//1
f 123//1 82//1 120//1
f 64//1 115//1 62//1
f 115//1 64//1 125//1
f 64//6 123//6 125//6
f 123//6 64//6 79//6
f 74//4 116//4 124//4
f 116//4 74//4 75//4
f 74//1 126//1 72//1
f 126//1 74//1 124//1
f 68//1 97//1 66//1
f 97//1 68//1 128//1
f 129//3 73//3 127//3
f 73//3 129//3 70//3
f 68//6 129//6 128//6
f 129//6 68//6 70//6
f 73//6 126//6 127//6
f 126//6 73//6 72//6
