# Blender v2.77 (sub 0) OBJ File: ''
# www.blender.org
mtllib LabyrinthandBallblend.mtl
o aLabyrinth
v -15.000000 0.000000 15.000000
v -15.000000 3.000000 -15.000000
v -15.000000 0.000000 -15.000000
v -15.000000 3.000000 15.000000
v -0.365854 1.000000 -14.268300
v -4.024390 1.000000 -11.341500
v -0.365854 1.000000 -11.341500
v -6.951220 1.000000 -11.341500
v -4.024390 1.000000 -10.609800
v -14.268300 1.000000 -14.268300
v -11.341500 1.000000 -11.341500
v -11.341500 1.000000 -6.951220
v 7.682930 1.000000 -10.609800
v 10.609800 1.000000 0.365854
v 10.609800 1.000000 -10.609800
v 7.682930 1.000000 6.951220
v 10.609800 1.000000 3.292680
v 14.268300 1.000000 -14.268300
v 11.341500 1.000000 -11.341500
v 14.268300 1.000000 3.292680
v 6.951220 1.000000 -11.341500
v 4.024390 1.000000 0.365854
v 4.024390 1.000000 -11.341500
v 3.292680 1.000000 -14.268300
v 3.292680 1.000000 -11.341500
v 11.341500 1.000000 0.365854
v 14.268300 1.000000 4.024390
v 11.341500 1.000000 6.951220
v 14.268300 1.000000 14.268300
v 10.609800 1.000000 4.024390
v 11.341500 1.000000 11.341500
v -4.024390 1.000000 11.341500
v -6.951220 1.000000 14.268300
v -6.951220 1.000000 4.024390
v 0.365853 1.000000 -15.000000
v 3.292680 1.000000 -15.000000
v 0.365853 1.000000 -10.609800
v 3.292680 1.000000 -7.682930
v -6.951220 1.000000 -7.682930
v 6.951220 1.000000 3.292680
v -11.341500 1.000000 3.292680
v -14.268300 1.000000 0.365854
v -11.341500 1.000000 4.024390
v -11.341500 1.000000 6.951220
v -14.268300 1.000000 10.609800
v -11.341500 1.000000 10.609800
v -0.365854 1.000000 4.024390
v -3.292680 1.000000 6.951220
v -0.365854 1.000000 7.682930
v -4.024390 1.000000 6.951220
v 6.951220 1.000000 4.024390
v 4.024390 1.000000 6.951220
v 6.951220 1.000000 7.682930
v 3.292680 1.000000 6.951220
v 0.365853 1.000000 4.024390
v 0.365853 1.000000 7.682930
v 3.292680 1.000000 10.609800
v -3.292680 1.000000 10.609800
v 10.609800 1.000000 10.609800
v 10.609800 1.000000 7.682930
v 4.024390 1.000000 10.609800
v -10.609800 1.000000 -6.951220
v -7.682930 1.000000 -10.609800
v -10.609800 1.000000 -10.609800
v 3.292680 1.000000 -6.951220
v 0.365853 1.000000 -4.024390
v 3.292680 1.000000 -0.365853
v -4.024390 1.000000 -4.024390
v -6.951220 1.000000 -6.951220
v -6.951220 1.000000 -3.292680
v -4.024390 1.000000 -0.365853
v -7.682930 1.000000 -3.292680
v -10.609800 1.000000 -4.024390
v -10.609800 1.000000 -3.292680
v -14.268300 1.000000 -0.365853
v -14.268300 1.000000 -3.292680
v 0.365853 1.000000 -3.292680
v -3.292680 1.000000 -0.365853
v -3.292680 1.000000 -3.292680
v -14.268300 1.000000 -4.024390
v -7.682930 1.000000 4.024390
v -10.609800 1.000000 6.951220
v -7.682930 1.000000 14.268300
v -10.609800 1.000000 11.341500
v -14.268300 1.000000 14.268300
v -14.268300 1.000000 11.341500
v 15.000000 3.000000 15.000000
v 15.000000 0.000000 -15.000000
v 15.000000 3.000000 -15.000000
v 15.000000 0.000000 15.000000
v 3.292680 3.000000 -15.000000
v 0.365853 3.000000 -15.000000
v -0.365854 3.000000 -14.268300
v 0.365853 3.000000 -10.609800
v -14.268300 3.000000 -14.268300
v -14.268300 3.000000 -4.024390
v -14.268300 3.000000 -3.292680
v -14.268300 3.000000 -0.365853
v -14.268300 3.000000 0.365854
v -14.268300 3.000000 10.609800
v -14.268300 3.000000 11.341500
v -0.365854 3.000000 -11.341500
v -4.024390 3.000000 -10.609800
v -4.024390 3.000000 -11.341500
v -10.609800 3.000000 -3.292680
v -10.609800 3.000000 -4.024390
v -7.682930 3.000000 -10.609800
v -6.951220 3.000000 -7.682930
v -6.951220 3.000000 -11.341500
v -6.951220 3.000000 -6.951220
v -7.682930 3.000000 -3.292680
v -10.609800 3.000000 -10.609800
v -11.341500 3.000000 -11.341500
v -11.341500 3.000000 -6.951220
v -10.609800 3.000000 -6.951220
v -6.951220 3.000000 -3.292680
v -11.341500 3.000000 10.609800
v -10.609800 3.000000 6.951220
v -11.341500 3.000000 6.951220
v -10.609800 3.000000 11.341500
v 0.365853 3.000000 -4.024390
v -3.292680 3.000000 -3.292680
v 0.365853 3.000000 -3.292680
v -4.024390 3.000000 -0.365853
v -4.024390 3.000000 -4.024390
v 3.292680 3.000000 -6.951220
v 3.292680 3.000000 -7.682930
v 4.024390 3.000000 -11.341500
v 3.292680 3.000000 -11.341500
v 4.024390 3.000000 0.365854
v 3.292680 3.000000 -0.365853
v -3.292680 3.000000 -0.365853
v -3.292680 3.000000 6.951220
v -4.024390 3.000000 6.951220
v -3.292680 3.000000 10.609800
v 11.341500 3.000000 -11.341500
v 10.609800 3.000000 -10.609800
v 11.341500 3.000000 0.365854
v 7.682930 3.000000 -10.609800
v 6.951220 3.000000 3.292680
v 6.951220 3.000000 -11.341500
v 10.609800 3.000000 0.365854
v 11.341500 3.000000 6.951220
v 10.609800 3.000000 7.682930
v 11.341500 3.000000 11.341500
v 7.682930 3.000000 6.951220
v 6.951220 3.000000 4.024390
v 6.951220 3.000000 7.682930
v 10.609800 3.000000 10.609800
v 4.024390 3.000000 10.609800
v 3.292680 3.000000 10.609800
v 3.292680 3.000000 6.951220
v -4.024390 3.000000 11.341500
v 4.024390 3.000000 6.951220
v 0.365853 3.000000 4.024390
v -0.365854 3.000000 4.024390
v 0.365853 3.000000 7.682930
v -11.341500 3.000000 3.292680
v -6.951220 3.000000 4.024390
v -7.682930 3.000000 4.024390
v -6.951220 3.000000 14.268300
v -11.341500 3.000000 4.024390
v -0.365854 3.000000 7.682930
v 10.609800 3.000000 3.292680
v 14.268300 3.000000 4.024390
v 14.268300 3.000000 3.292680
v 10.609800 3.000000 4.024390
v 14.268300 3.000000 -14.268300
v 3.292680 3.000000 -14.268300
v 14.268300 3.000000 14.268300
v -7.682930 3.000000 14.268300
v -14.268300 3.000000 14.268300
vn -1.0000 0.0000 0.0000
vn 0.0000 1.0000 0.0000
vn 1.0000 0.0000 0.0000
vn 0.0000 0.0000 -1.0000
vn 0.0000 -1.0000 0.0000
vn 0.0000 0.0000 1.0000
usemtl Woodlabyrinth
s off
f 1//1 2//1 3//1
f 2//1 1//1 4//1
f 5//2 6//2 7//2
f 6//2 8//2 9//2
f 5//2 8//2 6//2
f 10//2 8//2 5//2
f 11//2 10//2 12//2
f 8//2 10//2 11//2
f 13//2 14//2 15//2
f 16//2 14//2 13//2
f 14//2 16//2 17//2
f 18//2 19//2 20//2
f 18//2 21//2 19//2
f 22//2 21//2 23//2
f 24//2 21//2 18//2
f 21//2 24//2 23//2
f 23//2 24//2 25//2
f 26//2 20//2 19//2
f 17//2 26//2 14//2
f 26//2 17//2 20//2
f 27//2 28//2 29//2
f 30//2 28//2 27//2
f 30//2 16//2 28//2
f 17//2 16//2 30//2
f 31//2 29//2 28//2
f 32//2 29//2 31//2
f 32//2 33//2 29//2
f 33//2 32//2 34//2
f 35//2 24//2 36//2
f 24//2 35//2 25//2
f 25//2 35//2 37//2
f 25//2 37//2 38//2
f 9//2 38//2 37//2
f 39//2 9//2 8//2
f 9//2 39//2 38//2
f 21//2 22//2 40//2
f 22//2 41//2 40//2
f 42//2 43//2 41//2
f 43//2 42//2 44//2
f 42//2 41//2 22//2
f 44//2 42//2 45//2
f 44//2 45//2 46//2
f 47//2 48//2 49//2
f 47//2 50//2 48//2
f 50//2 34//2 32//2
f 34//2 50//2 47//2
f 51//2 52//2 53//2
f 51//2 54//2 52//2
f 55//2 54//2 51//2
f 56//2 54//2 55//2
f 54//2 56//2 57//2
f 49//2 57//2 56//2
f 58//2 49//2 48//2
f 49//2 58//2 57//2
f 53//2 59//2 60//2
f 61//2 53//2 52//2
f 53//2 61//2 59//2
f 62//2 63//2 64//2
f 65//2 66//2 67//2
f 65//2 68//2 66//2
f 69//2 68//2 65//2
f 70//2 68//2 69//2
f 68//2 70//2 71//2
f 72//2 71//2 70//2
f 63//2 62//2 72//2
f 73//2 72//2 62//2
f 74//2 72//2 73//2
f 72//2 74//2 71//2
f 75//2 74//2 76//2
f 74//2 75//2 71//2
f 77//2 67//2 66//2
f 78//2 77//2 79//2
f 77//2 78//2 67//2
f 12//2 73//2 62//2
f 80//2 12//2 10//2
f 12//2 80//2 73//2
f 81//2 82//2 83//2
f 43//2 82//2 81//2
f 82//2 43//2 44//2
f 84//2 83//2 82//2
f 85//2 84//2 86//2
f 84//2 85//2 83//2
f 87//3 88//3 89//3
f 88//3 87//3 90//3
f 89//4 36//4 91//4
f 36//4 88//4 35//4
f 88//4 36//4 89//4
f 35//4 2//4 92//4
f 35//4 3//4 2//4
f 3//4 35//4 88//4
f 1//5 88//5 90//5
f 88//5 1//5 3//5
f 1//6 87//6 4//6
f 87//6 1//6 90//6
f 92//2 93//2 94//2
f 92//2 95//2 93//2
f 2//2 96//2 95//2
f 96//2 2//2 97//2
f 97//2 2//2 98//2
f 98//2 2//2 99//2
f 4//2 99//2 2//2
f 99//2 4//2 100//2
f 100//2 4//2 101//2
f 2//2 95//2 92//2
f 102//2 94//2 93//2
f 103//2 102//2 104//2
f 102//2 103//2 94//2
f 96//2 105//2 106//2
f 105//2 96//2 97//2
f 107//2 108//2 109//2
f 108//2 107//2 110//2
f 111//2 110//2 107//2
f 109//2 112//2 107//2
f 113//2 112//2 109//2
f 114//2 112//2 113//2
f 112//2 114//2 115//2
f 110//2 111//2 116//2
f 117//2 118//2 119//2
f 118//2 117//2 120//2
f 101//2 117//2 100//2
f 117//2 101//2 120//2
f 121//2 122//2 123//2
f 124//2 122//2 125//2
f 125//2 122//2 121//2
f 108//2 126//2 127//2
f 126//2 108//2 110//2
f 127//2 128//2 129//2
f 126//2 128//2 127//2
f 128//2 126//2 130//2
f 131//2 130//2 126//2
f 132//2 130//2 131//2
f 122//2 124//2 132//2
f 124//2 130//2 132//2
f 99//2 124//2 98//2
f 124//2 99//2 130//2
f 133//2 134//2 135//2
f 136//2 137//2 138//2
f 136//2 139//2 137//2
f 140//2 139//2 141//2
f 141//2 139//2 136//2
f 138//2 137//2 142//2
f 143//2 144//2 145//2
f 146//2 144//2 143//2
f 139//2 140//2 146//2
f 147//2 146//2 140//2
f 146//2 148//2 144//2
f 148//2 146//2 147//2
f 149//2 145//2 144//2
f 150//2 145//2 149//2
f 151//2 150//2 152//2
f 151//2 145//2 150//2
f 153//2 151//2 135//2
f 151//2 153//2 145//2
f 153//2 135//2 134//2
f 154//2 152//2 150//2
f 140//2 155//2 147//2
f 155//2 156//2 157//2
f 140//2 156//2 155//2
f 158//2 156//2 140//2
f 159//2 160//2 161//2
f 156//2 158//2 159//2
f 159//2 158//2 160//2
f 160//2 158//2 162//2
f 157//2 156//2 163//2
f 164//2 165//2 166//2
f 165//2 164//2 167//2
f 166//2 89//2 168//2
f 91//2 168//2 89//2
f 168//2 91//2 169//2
f 89//2 166//2 87//2
f 165//2 87//2 166//2
f 170//2 87//2 165//2
f 161//2 87//2 170//2
f 171//2 161//2 160//2
f 4//2 161//2 171//2
f 4//2 171//2 172//2
f 161//2 4//2 87//2
f 101//2 4//2 172//2
f 83//4 172//4 171//4
f 172//4 83//4 85//4
f 172//3 86//3 101//3
f 86//3 172//3 85//3
f 46//4 100//4 117//4
f 100//4 46//4 45//4
f 120//3 82//3 118//3
f 82//3 120//3 84//3
f 86//6 120//6 101//6
f 120//6 86//6 84//6
f 100//3 42//3 99//3
f 42//3 100//3 45//3
f 71//4 98//4 124//4
f 98//4 71//4 75//4
f 42//6 130//6 99//6
f 130//6 42//6 22//6
f 98//3 76//3 97//3
f 76//3 98//3 75//3
f 73//4 96//4 106//4
f 96//4 73//4 80//4
f 105//3 73//3 106//3
f 73//3 105//3 74//3
f 76//6 105//6 97//6
f 105//6 76//6 74//6
f 96//3 10//3 95//3
f 10//3 96//3 80//3
f 10//6 93//6 95//6
f 93//6 10//6 5//6
f 46//1 119//1 44//1
f 119//1 46//1 117//1
f 82//4 119//4 118//4
f 119//4 82//4 44//4
f 43//1 158//1 41//1
f 158//1 43//1 162//1
f 43//6 160//6 162//6
f 160//6 43//6 81//6
f 40//4 158//4 140//4
f 158//4 40//4 41//4
f 12//1 113//1 11//1
f 113//1 12//1 114//1
f 115//3 64//3 112//3
f 64//3 115//3 62//3
f 8//4 113//4 109//4
f 113//4 8//4 11//4
f 12//6 115//6 114//6
f 115//6 12//6 62//6
f 108//3 8//3 109//3
f 8//3 108//3 39//3
f 64//6 107//6 112//6
f 107//6 64//6 63//6
f 83//1 160//1 81//1
f 160//1 83//1 171//1
f 29//4 161//4 170//4
f 161//4 29//4 33//4
f 161//3 34//3 159//3
f 34//3 161//3 33//3
f 34//6 156//6 159//6
f 156//6 34//6 47//6
f 72//1 107//1 63//1
f 107//1 72//1 111//1
f 116//3 69//3 110//3
f 69//3 116//3 70//3
f 72//6 116//6 111//6
f 116//6 72//6 70//6
f 69//6 126//6 110//6
f 126//6 69//6 65//6
f 38//4 108//4 127//4
f 108//4 38//4 39//4
f 32//1 134//1 50//1
f 134//1 32//1 153//1
f 32//6 145//6 153//6
f 145//6 32//6 31//6
f 57//4 135//4 151//4
f 135//4 57//4 58//4
f 135//3 48//3 133//3
f 48//3 135//3 58//3
f 48//4 134//4 133//4
f 134//4 48//4 50//4
f 71//1 125//1 68//1
f 125//1 71//1 124//1
f 67//4 132//4 131//4
f 132//4 67//4 78//4
f 132//3 79//3 122//3
f 79//3 132//3 78//3
f 66//4 125//4 121//4
f 125//4 66//4 68//4
f 123//3 66//3 121//3
f 66//3 123//3 77//3
f 79//6 123//6 122//6
f 123//6 79//6 77//6
f 9//1 104//1 6//1
f 104//1 9//1 103//1
f 94//3 35//3 92//3
f 35//3 94//3 37//3
f 9//6 94//6 103//6
f 94//6 9//6 37//6
f 7//4 104//4 102//4
f 104//4 7//4 6//4
f 49//1 156//1 47//1
f 156//1 49//1 163//1
f 157//3 55//3 155//3
f 55//3 157//3 56//3
f 49//6 157//6 163//6
f 157//6 49//6 56//6
f 55//6 147//6 155//6
f 147//6 55//6 51//6
f 130//3 23//3 128//3
f 23//3 130//3 22//3
f 7//1 93//1 5//1
f 93//1 7//1 102//1
f 57//1 152//1 54//1
f 152//1 57//1 151//1
f 59//4 150//4 149//4
f 150//4 59//4 61//4
f 150//3 52//3 154//3
f 52//3 150//3 61//3
f 52//4 152//4 154//4
f 152//4 52//4 54//4
f 146//3 13//3 139//3
f 13//3 146//3 16//3
f 38//1 129//1 25//1
f 129//1 38//1 127//1
f 67//1 126//1 65//1
f 126//1 67//1 131//1
f 23//4 129//4 128//4
f 129//4 23//4 25//4
f 24//1 91//1 36//1
f 91//1 24//1 169//1
f 24//6 168//6 169//6
f 168//6 24//6 18//6
f 145//3 28//3 143//3
f 28//3 145//3 31//3
f 40//1 141//1 21//1
f 141//1 40//1 140//1
f 53//1 147//1 51//1
f 147//1 53//1 148//1
f 28//4 146//4 143//4
f 146//4 28//4 16//4
f 53//6 144//6 148//6
f 144//6 53//6 60//6
f 19//4 141//4 136//4
f 141//4 19//4 21//4
f 138//3 19//3 136//3
f 19//3 138//3 26//3
f 13//6 137//6 139//6
f 137//6 13//6 15//6
f 29//1 165//1 27//1
f 165//1 29//1 170//1
f 59//1 144//1 60//1
f 144//1 59//1 149//1
f 30//1 164//1 17//1
f 164//1 30//1 167//1
f 20//4 164//4 166//4
f 164//4 20//4 17//4
f 30//6 165//6 167//6
f 165//6 30//6 27//6
f 20//1 168//1 18//1
f 168//1 20//1 166//1
f 14//1 137//1 15//1
f 137//1 14//1 142//1
f 14//6 138//6 142//6
f 138//6 14//6 26//6
