# Blender v2.77 (sub 0) OBJ File: ''
# www.blender.org
mtllib LabyrinthandBallblend.mtl
o Labyrinth
v -15.000000 0.000000 15.000000
v -15.000000 3.000000 -15.000000
v -15.000000 0.000000 -15.000000
v -15.000000 3.000000 15.000000
v -4.024390 1.000000 -14.268300
v -6.951220 1.000000 -11.341500
v -4.024390 1.000000 -10.609800
v -11.341500 1.000000 -11.341500
v -14.268300 1.000000 -14.268300
v -11.341500 1.000000 -6.951220
v -11.341500 1.000000 -4.024390
v -14.268300 1.000000 10.609800
v -11.341500 1.000000 4.024390
v -11.341500 1.000000 6.951220
v -11.341500 1.000000 10.609800
v 0.365853 1.000000 -14.268300
v 3.292680 1.000000 -15.000000
v 0.365853 1.000000 -15.000000
v 4.024390 1.000000 -6.951220
v 6.951220 1.000000 4.024390
v 6.951220 1.000000 -6.951220
v 4.024390 1.000000 10.609800
v 6.951220 1.000000 6.951220
v 14.268300 1.000000 -14.268300
v 11.341500 1.000000 -11.341500
v 14.268300 1.000000 -4.024390
v 10.609800 1.000000 -11.341500
v 7.682930 1.000000 -10.609800
v 7.682930 1.000000 -11.341500
v 4.024390 1.000000 -14.268300
v 4.024390 1.000000 -11.341500
v 11.341500 1.000000 -6.951220
v 10.609800 1.000000 -4.024390
v 7.682930 1.000000 -6.951220
v 7.682930 1.000000 4.024390
v 10.609800 1.000000 6.951220
v 10.609800 1.000000 -7.682930
v 3.292680 1.000000 -10.609800
v 0.365853 1.000000 -11.341500
v 0.365853 1.000000 -7.682930
v 6.951220 1.000000 7.682930
v 11.341500 1.000000 10.609800
v 11.341500 1.000000 7.682930
v 14.268300 1.000000 -3.292680
v 11.341500 1.000000 -3.292680
v 14.268300 1.000000 14.268300
v 11.341500 1.000000 11.341500
v -6.951220 1.000000 14.268300
v -6.951220 1.000000 11.341500
v -0.365854 1.000000 -11.341500
v -3.292680 1.000000 -14.268300
v -3.292680 1.000000 -10.609800
v -0.365854 1.000000 -7.682930
v -6.951220 1.000000 -10.609800
v -10.609800 1.000000 -7.682930
v -10.609800 1.000000 -10.609800
v -7.682930 1.000000 -6.951220
v -10.609800 1.000000 -4.024390
v -7.682930 1.000000 -3.292680
v 3.292680 1.000000 -6.951220
v 0.365853 1.000000 -4.024390
v 3.292680 1.000000 10.609800
v -4.024390 1.000000 -4.024390
v -6.951220 1.000000 -6.951220
v -6.951220 1.000000 -3.292680
v -4.024390 1.000000 -0.365853
v -10.609800 1.000000 -0.365853
v 0.365853 1.000000 7.682930
v -7.682930 1.000000 10.609800
v -10.609800 1.000000 7.682930
v -10.609800 1.000000 11.341500
v -7.682930 1.000000 14.268300
v -14.268300 1.000000 14.268300
v -14.268300 1.000000 11.341500
v -4.024390 1.000000 0.365854
v -6.951220 1.000000 3.292680
v -4.024390 1.000000 4.024390
v -7.682930 1.000000 3.292680
v -10.609800 1.000000 0.365854
v -10.609800 1.000000 4.024390
v -7.682930 1.000000 6.951220
v -3.292680 1.000000 4.024390
v -0.365854 1.000000 -3.292680
v -3.292680 1.000000 -3.292680
v -0.365854 1.000000 6.951220
v -6.951220 1.000000 6.951220
v 15.000000 3.000000 15.000000
v 15.000000 0.000000 -15.000000
v 15.000000 3.000000 -15.000000
v 15.000000 0.000000 15.000000
v 3.292680 3.000000 -15.000000
v 0.365853 3.000000 -15.000000
v -3.292680 3.000000 -14.268300
v 0.365853 3.000000 -14.268300
v -4.024390 3.000000 -14.268300
v -3.292680 3.000000 -10.609800
v -14.268300 3.000000 10.609800
v -14.268300 3.000000 -14.268300
v -14.268300 3.000000 11.341500
v -4.024390 3.000000 -10.609800
v -11.341500 3.000000 -4.024390
v -10.609800 3.000000 -0.365853
v -10.609800 3.000000 -4.024390
v -10.609800 3.000000 0.365854
v -11.341500 3.000000 4.024390
v -10.609800 3.000000 4.024390
v -6.951220 3.000000 -11.341500
v -10.609800 3.000000 -10.609800
v -6.951220 3.000000 -10.609800
v -11.341500 3.000000 -11.341500
v -10.609800 3.000000 -7.682930
v -6.951220 3.000000 3.292680
v -7.682930 3.000000 3.292680
v -6.951220 3.000000 6.951220
v 0.365853 3.000000 -11.341500
v -0.365854 3.000000 -11.341500
v 0.365853 3.000000 -7.682930
v 10.609800 3.000000 -7.682930
v 11.341500 3.000000 -11.341500
v 10.609800 3.000000 -11.341500
v 11.341500 3.000000 -6.951220
v 7.682930 3.000000 -6.951220
v 6.951220 3.000000 -6.951220
v 7.682930 3.000000 4.024390
v 4.024390 3.000000 -6.951220
v 3.292680 3.000000 -6.951220
v 4.024390 3.000000 10.609800
v -0.365854 3.000000 -7.682930
v -6.951220 3.000000 -6.951220
v -7.682930 3.000000 -6.951220
v -6.951220 3.000000 -3.292680
v -11.341500 3.000000 -6.951220
v 6.951220 3.000000 4.024390
v 14.268300 3.000000 -4.024390
v 11.341500 3.000000 -3.292680
v 14.268300 3.000000 -3.292680
v 10.609800 3.000000 -4.024390
v 10.609800 3.000000 6.951220
v 11.341500 3.000000 7.682930
v 6.951220 3.000000 7.682930
v 6.951220 3.000000 6.951220
v 14.268300 3.000000 -14.268300
v 4.024390 3.000000 -14.268300
v 4.024390 3.000000 -11.341500
v 14.268300 3.000000 14.268300
v -6.951220 3.000000 14.268300
v -6.951220 3.000000 11.341500
v -7.682930 3.000000 14.268300
v -14.268300 3.000000 14.268300
v 7.682930 3.000000 -10.609800
v 7.682930 3.000000 -11.341500
v 3.292680 3.000000 -10.609800
v 11.341500 3.000000 11.341500
v 11.341500 3.000000 10.609800
v 3.292680 3.000000 10.609800
v -7.682930 3.000000 10.609800
v -4.024390 3.000000 0.365854
v -4.024390 3.000000 -0.365853
v 0.365853 3.000000 -4.024390
v -0.365854 3.000000 -3.292680
v 0.365853 3.000000 7.682930
v -3.292680 3.000000 -3.292680
v -4.024390 3.000000 -4.024390
v -3.292680 3.000000 4.024390
v -4.024390 3.000000 4.024390
v -0.365854 3.000000 6.951220
v -7.682930 3.000000 6.951220
v -10.609800 3.000000 7.682930
v -11.341500 3.000000 6.951220
v -11.341500 3.000000 10.609800
v -10.609800 3.000000 11.341500
v -7.682930 3.000000 -3.292680
vn -1.0000 0.0000 0.0000
vn 0.0000 1.0000 0.0000
vn 1.0000 0.0000 0.0000
vn 0.0000 0.0000 -1.0000
vn 0.0000 -1.0000 0.0000
vn 0.0000 0.0000 1.0000
usemtl Woodlabyrinth
s off
f 1//1 2//1 3//1
f 2//1 1//1 4//1
f 5//2 6//2 7//2
f 5//2 8//2 6//2
f 9//2 10//2 8//2
f 10//2 9//2 11//2
f 12//2 11//2 9//2
f 11//2 12//2 13//2
f 9//2 8//2 5//2
f 13//2 12//2 14//2
f 14//2 12//2 15//2
f 16//2 17//2 18//2
f 19//2 20//2 21//2
f 22//2 20//2 19//2
f 20//2 22//2 23//2
f 24//2 25//2 26//2
f 24//2 27//2 25//2
f 28//2 27//2 29//2
f 24//2 29//2 27//2
f 30//2 29//2 24//2
f 29//2 30//2 31//2
f 32//2 26//2 25//2
f 32//2 33//2 26//2
f 34//2 33//2 32//2
f 35//2 33//2 34//2
f 33//2 35//2 36//2
f 23//2 35//2 20//2
f 35//2 23//2 36//2
f 27//2 28//2 37//2
f 38//2 37//2 28//2
f 17//2 16//2 38//2
f 39//2 38//2 16//2
f 40//2 38//2 39//2
f 38//2 40//2 37//2
f 41//2 42//2 43//2
f 41//2 22//2 42//2
f 23//2 22//2 41//2
f 43//2 44//2 45//2
f 44//2 43//2 46//2
f 42//2 46//2 43//2
f 47//2 46//2 42//2
f 48//2 47//2 49//2
f 47//2 48//2 46//2
f 16//2 50//2 39//2
f 51//2 50//2 16//2
f 52//2 50//2 51//2
f 50//2 52//2 53//2
f 7//2 53//2 52//2
f 54//2 7//2 6//2
f 7//2 54//2 53//2
f 55//2 54//2 56//2
f 54//2 55//2 53//2
f 57//2 58//2 59//2
f 10//2 58//2 57//2
f 58//2 10//2 11//2
f 60//2 61//2 62//2
f 60//2 63//2 61//2
f 64//2 63//2 60//2
f 65//2 63//2 64//2
f 63//2 65//2 66//2
f 59//2 66//2 65//2
f 67//2 59//2 58//2
f 59//2 67//2 66//2
f 68//2 62//2 61//2
f 68//2 69//2 62//2
f 70//2 69//2 68//2
f 71//2 69//2 70//2
f 69//2 71//2 72//2
f 73//2 71//2 74//2
f 71//2 73//2 72//2
f 75//2 76//2 77//2
f 75//2 78//2 76//2
f 79//2 78//2 75//2
f 80//2 78//2 79//2
f 78//2 80//2 81//2
f 14//2 80//2 13//2
f 80//2 14//2 81//2
f 82//2 83//2 84//2
f 83//2 82//2 85//2
f 77//2 85//2 82//2
f 86//2 77//2 76//2
f 77//2 86//2 85//2
f 87//3 88//3 89//3
f 88//3 87//3 90//3
f 89//4 17//4 91//4
f 17//4 88//4 18//4
f 88//4 17//4 89//4
f 18//4 2//4 92//4
f 18//4 3//4 2//4
f 3//4 18//4 88//4
f 1//5 88//5 90//5
f 88//5 1//5 3//5
f 1//6 87//6 4//6
f 87//6 1//6 90//6
f 92//2 93//2 94//2
f 93//2 95//2 96//2
f 92//2 95//2 93//2
f 2//2 95//2 92//2
f 2//2 97//2 98//2
f 4//2 97//2 2//2
f 97//2 4//2 99//2
f 95//2 2//2 98//2
f 96//2 95//2 100//2
f 101//2 102//2 103//2
f 102//2 101//2 104//2
f 105//2 104//2 101//2
f 104//2 105//2 106//2
f 107//2 108//2 109//2
f 108//2 110//2 111//2
f 110//2 108//2 107//2
f 112//2 113//2 114//2
f 115//2 116//2 117//2
f 118//2 119//2 120//2
f 119//2 118//2 121//2
f 118//2 122//2 121//2
f 122//2 123//2 124//2
f 118//2 123//2 122//2
f 118//2 125//2 123//2
f 125//2 126//2 127//2
f 117//2 125//2 118//2
f 125//2 117//2 126//2
f 128//2 117//2 116//2
f 128//2 126//2 117//2
f 128//2 129//2 126//2
f 129//2 130//2 131//2
f 111//2 129//2 128//2
f 129//2 111//2 130//2
f 111//2 132//2 130//2
f 132//2 111//2 110//2
f 124//2 123//2 133//2
f 134//2 135//2 136//2
f 137//2 135//2 134//2
f 138//2 135//2 137//2
f 135//2 138//2 139//2
f 140//2 138//2 141//2
f 138//2 140//2 139//2
f 134//2 89//2 142//2
f 89//2 143//2 142//2
f 143//2 91//2 144//2
f 91//2 143//2 89//2
f 136//2 89//2 134//2
f 89//2 136//2 87//2
f 145//2 87//2 136//2
f 146//2 87//2 145//2
f 147//2 148//2 146//2
f 4//2 146//2 148//2
f 4//2 148//2 149//2
f 146//2 4//2 87//2
f 99//2 4//2 149//2
f 144//2 150//2 151//2
f 144//2 152//2 150//2
f 152//2 144//2 91//2
f 127//2 153//2 154//2
f 155//2 127//2 126//2
f 155//2 153//2 127//2
f 155//2 147//2 153//2
f 148//2 147//2 156//2
f 156//2 147//2 155//2
f 102//2 157//2 158//2
f 157//2 102//2 104//2
f 159//2 160//2 161//2
f 159//2 162//2 160//2
f 163//2 162//2 159//2
f 158//2 162//2 163//2
f 157//2 162//2 158//2
f 162//2 157//2 164//2
f 164//2 157//2 165//2
f 166//2 161//2 160//2
f 114//2 161//2 166//2
f 167//2 114//2 113//2
f 168//2 114//2 167//2
f 114//2 168//2 161//2
f 169//2 168//2 167//2
f 170//2 168//2 169//2
f 168//2 170//2 171//2
f 99//2 170//2 97//2
f 170//2 99//2 171//2
f 131//2 130//2 172//2
f 72//4 149//4 148//4
f 149//4 72//4 73//4
f 149//3 74//3 99//3
f 74//3 149//3 73//3
f 15//4 97//4 170//4
f 97//4 15//4 12//4
f 171//3 70//3 168//3
f 70//3 171//3 71//3
f 74//6 171//6 99//6
f 171//6 74//6 71//6
f 97//3 9//3 98//3
f 9//3 97//3 12//3
f 9//6 95//6 98//6
f 95//6 9//6 5//6
f 15//1 169//1 14//1
f 169//1 15//1 170//1
f 81//4 169//4 167//4
f 169//4 81//4 14//4
f 70//6 161//6 168//6
f 161//6 70//6 68//6
f 13//1 101//1 11//1
f 101//1 13//1 105//1
f 106//3 79//3 104//3
f 79//3 106//3 80//3
f 13//6 106//6 105//6
f 106//6 13//6 80//6
f 79//6 157//6 104//6
f 157//6 79//6 75//6
f 66//4 102//4 158//4
f 102//4 66//4 67//4
f 102//3 58//3 103//3
f 58//3 102//3 67//3
f 58//4 101//4 103//4
f 101//4 58//4 11//4
f 10//1 110//1 8//1
f 110//1 10//1 132//1
f 10//6 130//6 132//6
f 130//6 10//6 57//6
f 53//4 111//4 128//4
f 111//4 53//4 55//4
f 111//3 56//3 108//3
f 56//3 111//3 55//3
f 6//4 110//4 107//4
f 110//4 6//4 8//4
f 109//3 6//3 107//3
f 6//3 109//3 54//3
f 56//6 109//6 108//6
f 109//6 56//6 54//6
f 72//1 156//1 69//1
f 156//1 72//1 148//1
f 46//4 146//4 145//4
f 146//4 46//4 48//4
f 146//3 49//3 147//3
f 49//3 146//3 48//3
f 62//4 156//4 155//4
f 156//4 62//4 69//4
f 49//6 153//6 147//6
f 153//6 49//6 47//6
f 81//1 113//1 78//1
f 113//1 81//1 167//1
f 85//4 114//4 166//4
f 114//4 85//4 86//4
f 114//3 76//3 112//3
f 76//3 114//3 86//3
f 76//4 113//4 112//4
f 113//4 76//4 78//4
f 164//3 84//3 162//3
f 84//3 164//3 82//3
f 59//1 130//1 57//1
f 130//1 59//1 172//1
f 131//3 64//3 129//3
f 64//3 131//3 65//3
f 59//6 131//6 172//6
f 131//6 59//6 65//6
f 64//6 126//6 129//6
f 126//6 64//6 60//6
f 161//3 61//3 159//3
f 61//3 161//3 68//3
f 66//1 163//1 63//1
f 163//1 66//1 158//1
f 77//1 157//1 75//1
f 157//1 77//1 165//1
f 77//6 164//6 165//6
f 164//6 77//6 82//6
f 61//4 163//4 159//4
f 163//4 61//4 63//4
f 84//6 160//6 162//6
f 160//6 84//6 83//6
f 7//1 95//1 5//1
f 95//1 7//1 100//1
f 96//3 51//3 93//3
f 51//3 96//3 52//3
f 7//6 96//6 100//6
f 96//6 7//6 52//6
f 94//3 18//3 92//3
f 18//3 94//3 16//3
f 51//6 94//6 93//6
f 94//6 51//6 16//6
f 85//1 160//1 83//1
f 160//1 85//1 166//1
f 53//1 116//1 50//1
f 116//1 53//1 128//1
f 37//4 117//4 118//4
f 117//4 37//4 40//4
f 117//3 39//3 115//3
f 39//3 117//3 40//3
f 39//4 116//4 115//4
f 116//4 39//4 50//4
f 62//1 126//1 60//1
f 126//1 62//1 155//1
f 42//4 127//4 154//4
f 127//4 42//4 22//4
f 127//3 19//3 125//3
f 19//3 127//3 22//3
f 124//3 34//3 122//3
f 34//3 124//3 35//3
f 19//6 123//6 125//6
f 123//6 19//6 21//6
f 38//1 91//1 17//1
f 91//1 38//1 152//1
f 150//3 29//3 151//3
f 29//3 150//3 28//3
f 38//6 150//6 152//6
f 150//6 38//6 28//6
f 29//4 144//4 151//4
f 144//4 29//4 31//4
f 144//3 30//3 143//3
f 30//3 144//3 31//3
f 30//6 142//6 143//6
f 142//6 30//6 24//6
f 153//3 42//3 154//3
f 42//3 153//3 47//3
f 41//1 141//1 23//1
f 141//1 41//1 140//1
f 139//3 45//3 135//3
f 45//3 139//3 43//3
f 41//6 139//6 140//6
f 139//6 41//6 43//6
f 36//4 141//4 138//4
f 141//4 36//4 23//4
f 20//1 123//1 21//1
f 123//1 20//1 133//1
f 20//6 124//6 133//6
f 124//6 20//6 35//6
f 121//3 25//3 119//3
f 25//3 121//3 32//3
f 34//6 121//6 122//6
f 121//6 34//6 32//6
f 46//1 136//1 44//1
f 136//1 46//1 145//1
f 36//1 137//1 33//1
f 137//1 36//1 138//1
f 26//4 137//4 134//4
f 137//4 26//4 33//4
f 45//6 136//6 135//6
f 136//6 45//6 44//6
f 26//1 142//1 24//1
f 142//1 26//1 134//1
f 37//1 120//1 27//1
f 120//1 37//1 118//1
f 25//4 120//4 119//4
f 120//4 25//4 27//4
