# Blender v2.77 (sub 0) OBJ File: ''
# www.blender.org
mtllib aLabyrinth.mtl
o aLabyrinth
v -15.000000 0.000000 15.000000
v -15.000000 3.000000 -15.000000
v -15.000000 0.000000 -15.000000
v -15.000000 3.000000 15.000000
v -4.024390 1.000000 -6.951220
v -6.951220 1.000000 -4.024390
v -4.024390 1.000000 0.365854
v -7.682930 1.000000 -4.024390
v -10.609800 1.000000 -6.951220
v -10.609800 1.000000 0.365854
v -7.682930 1.000000 3.292680
v -11.341500 1.000000 3.292680
v -11.341500 1.000000 0.365854
v 3.292680 1.000000 0.365854
v 0.365853 1.000000 3.292680
v 3.292680 1.000000 10.609800
v -6.951220 1.000000 3.292680
v 0.365853 1.000000 7.682930
v -4.024390 1.000000 10.609800
v -6.951220 1.000000 7.682930
v -6.951220 1.000000 11.341500
v -4.024390 1.000000 14.268300
v -14.268300 1.000000 14.268300
v -14.268300 1.000000 11.341500
v -11.341500 1.000000 -15.000000
v -14.268300 1.000000 -15.000000
v -11.341500 1.000000 -14.268300
v -0.365854 1.000000 -10.609800
v -3.292680 1.000000 -7.682930
v -0.365854 1.000000 -3.292680
v -11.341500 1.000000 -7.682930
v -14.268300 1.000000 -10.609800
v -14.268300 1.000000 6.951220
v 4.024390 1.000000 0.365854
v 6.951220 1.000000 4.024390
v 6.951220 1.000000 0.365854
v 6.951220 1.000000 6.951220
v 4.024390 1.000000 11.341500
v 10.609800 1.000000 6.951220
v 10.609800 1.000000 4.024390
v 10.609800 1.000000 -3.292680
v 7.682930 1.000000 -0.365853
v 10.609800 1.000000 0.365854
v -3.292680 1.000000 -0.365853
v 11.341500 1.000000 3.292680
v 11.341500 1.000000 0.365854
v 7.682930 1.000000 3.292680
v 14.268300 1.000000 -14.268300
v 11.341500 1.000000 -11.341500
v 10.609800 1.000000 -11.341500
v 7.682930 1.000000 -14.268300
v 7.682930 1.000000 -10.609800
v 10.609800 1.000000 -7.682930
v 3.292680 1.000000 -7.682930
v 3.292680 1.000000 -10.609800
v 14.268300 1.000000 10.609800
v 11.341500 1.000000 7.682930
v 10.609800 1.000000 10.609800
v 7.682930 1.000000 11.341500
v 7.682930 1.000000 7.682930
v 10.609800 1.000000 11.341500
v 14.268300 1.000000 14.268300
v 14.268300 1.000000 11.341500
v 6.951220 1.000000 11.341500
v -3.292680 1.000000 14.268300
v -3.292680 1.000000 11.341500
v 6.951220 1.000000 -14.268300
v 3.292680 1.000000 -11.341500
v 6.951220 1.000000 -11.341500
v 0.365853 1.000000 -11.341500
v 0.365853 1.000000 -4.024390
v -14.268300 1.000000 -11.341500
v 3.292680 1.000000 -6.951220
v 10.609800 1.000000 -4.024390
v 10.609800 1.000000 -6.951220
v -0.365854 1.000000 4.024390
v -7.682930 1.000000 6.951220
v -0.365854 1.000000 6.951220
v -10.609800 1.000000 7.682930
v -10.609800 1.000000 6.951220
v -11.341500 1.000000 4.024390
v -7.682930 1.000000 10.609800
v -14.268300 1.000000 10.609800
v -14.268300 1.000000 7.682930
v 15.000000 3.000000 15.000000
v 15.000000 0.000000 -15.000000
v 15.000000 3.000000 -15.000000
v 15.000000 0.000000 15.000000
v -11.341500 3.000000 -15.000000
v -14.268300 3.000000 -15.000000
v -14.268300 3.000000 -11.341500
v -14.268300 3.000000 -10.609800
v -14.268300 3.000000 6.951220
v -14.268300 3.000000 7.682930
v -14.268300 3.000000 10.609800
v -14.268300 3.000000 11.341500
v 0.365853 3.000000 -11.341500
v -0.365854 3.000000 -10.609800
v 0.365853 3.000000 -4.024390
v 10.609800 3.000000 -3.292680
v 10.609800 3.000000 -4.024390
v -0.365854 3.000000 -3.292680
v 3.292680 3.000000 -7.682930
v 10.609800 3.000000 -6.951220
v 10.609800 3.000000 -7.682930
v 3.292680 3.000000 -6.951220
v 11.341500 3.000000 -11.341500
v 10.609800 3.000000 -11.341500
v 11.341500 3.000000 0.365854
v 10.609800 3.000000 0.365854
v -10.609800 3.000000 7.682930
v -10.609800 3.000000 6.951220
v -3.292680 3.000000 -7.682930
v -4.024390 3.000000 -6.951220
v -3.292680 3.000000 -0.365853
v -10.609800 3.000000 -6.951220
v -11.341500 3.000000 -7.682930
v -11.341500 3.000000 0.365854
v -10.609800 3.000000 0.365854
v 7.682930 3.000000 -0.365853
v 6.951220 3.000000 0.365854
v 7.682930 3.000000 3.292680
v 4.024390 3.000000 0.365854
v 3.292680 3.000000 10.609800
v 3.292680 3.000000 0.365854
v -4.024390 3.000000 0.365854
v 11.341500 3.000000 3.292680
v 10.609800 3.000000 4.024390
v 11.341500 3.000000 7.682930
v 6.951220 3.000000 4.024390
v 10.609800 3.000000 6.951220
v 7.682930 3.000000 7.682930
v 6.951220 3.000000 6.951220
v 6.951220 3.000000 11.341500
v 7.682930 3.000000 11.341500
v 4.024390 3.000000 11.341500
v -3.292680 3.000000 11.341500
v -4.024390 3.000000 14.268300
v -4.024390 3.000000 10.609800
v -6.951220 3.000000 -4.024390
v -7.682930 3.000000 -4.024390
v -6.951220 3.000000 3.292680
v 10.609800 3.000000 10.609800
v 14.268300 3.000000 11.341500
v 14.268300 3.000000 10.609800
v 10.609800 3.000000 11.341500
v 14.268300 3.000000 -14.268300
v 7.682930 3.000000 -14.268300
v 6.951220 3.000000 -11.341500
v 6.951220 3.000000 -14.268300
v -11.341500 3.000000 -14.268300
v 14.268300 3.000000 14.268300
v -3.292680 3.000000 14.268300
v -14.268300 3.000000 14.268300
v 7.682930 3.000000 -10.609800
v 3.292680 3.000000 -10.609800
v 3.292680 3.000000 -11.341500
v 0.365853 3.000000 3.292680
v -0.365854 3.000000 4.024390
v 0.365853 3.000000 7.682930
v -7.682930 3.000000 3.292680
v -11.341500 3.000000 4.024390
v -11.341500 3.000000 3.292680
v -0.365854 3.000000 6.951220
v -6.951220 3.000000 7.682930
v -7.682930 3.000000 6.951220
v -7.682930 3.000000 10.609800
v -6.951220 3.000000 11.341500
vn -1.0000 0.0000 0.0000
vn 0.0000 1.0000 0.0000
vn 1.0000 0.0000 0.0000
vn 0.0000 0.0000 -1.0000
vn 0.0000 -1.0000 0.0000
vn 0.0000 0.0000 1.0000
usemtl Woodlabyrinth
s off
f 1//1 2//1 3//1
f 2//1 1//1 4//1
f 5//2 6//2 7//2
f 5//2 8//2 6//2
f 9//2 8//2 5//2
f 10//2 8//2 9//2
f 8//2 10//2 11//2
f 12//2 10//2 13//2
f 10//2 12//2 11//2
f 14//2 15//2 16//2
f 7//2 15//2 14//2
f 7//2 17//2 15//2
f 17//2 7//2 6//2
f 18//2 16//2 15//2
f 18//2 19//2 16//2
f 20//2 19//2 18//2
f 21//2 19//2 20//2
f 19//2 21//2 22//2
f 23//2 21//2 24//2
f 21//2 23//2 22//2
f 25//2 26//2 27//2
f 28//2 29//2 30//2
f 28//2 31//2 29//2
f 32//2 13//2 31//2
f 33//2 13//2 32//2
f 13//2 33//2 12//2
f 32//2 31//2 28//2
f 34//2 35//2 36//2
f 35//2 34//2 37//2
f 38//2 37//2 34//2
f 35//2 39//2 40//2
f 39//2 35//2 37//2
f 41//2 42//2 43//2
f 30//2 42//2 41//2
f 30//2 44//2 42//2
f 44//2 30//2 29//2
f 43//2 45//2 46//2
f 47//2 43//2 42//2
f 43//2 47//2 45//2
f 46//2 48//2 49//2
f 48//2 50//2 49//2
f 51//2 50//2 48//2
f 52//2 50//2 51//2
f 50//2 52//2 53//2
f 54//2 52//2 55//2
f 52//2 54//2 53//2
f 48//2 46//2 56//2
f 45//2 56//2 46//2
f 57//2 56//2 45//2
f 57//2 58//2 56//2
f 59//2 58//2 60//2
f 60//2 58//2 57//2
f 61//2 62//2 63//2
f 58//2 59//2 61//2
f 59//2 62//2 61//2
f 64//2 62//2 59//2
f 37//2 38//2 64//2
f 38//2 62//2 64//2
f 65//2 38//2 66//2
f 38//2 65//2 62//2
f 67//2 68//2 69//2
f 70//2 55//2 68//2
f 55//2 70//2 54//2
f 71//2 54//2 70//2
f 67//2 70//2 68//2
f 27//2 70//2 67//2
f 72//2 27//2 26//2
f 27//2 72//2 70//2
f 73//2 74//2 75//2
f 73//2 71//2 74//2
f 54//2 71//2 73//2
f 76//2 77//2 78//2
f 79//2 77//2 80//2
f 81//2 77//2 76//2
f 77//2 81//2 80//2
f 81//2 33//2 80//2
f 12//2 33//2 81//2
f 77//2 79//2 82//2
f 83//2 79//2 84//2
f 79//2 83//2 82//2
f 85//3 86//3 87//3
f 86//3 85//3 88//3
f 87//4 25//4 89//4
f 3//4 25//4 86//4
f 86//4 25//4 87//4
f 26//4 2//4 90//4
f 26//4 3//4 2//4
f 25//4 3//4 26//4
f 1//5 86//5 88//5
f 86//5 1//5 3//5
f 1//6 85//6 4//6
f 85//6 1//6 88//6
f 2//2 91//2 90//2
f 91//2 2//2 92//2
f 92//2 2//2 93//2
f 4//2 93//2 2//2
f 93//2 4//2 94//2
f 94//2 4//2 95//2
f 95//2 4//2 96//2
f 97//2 98//2 99//2
f 91//2 98//2 97//2
f 98//2 91//2 92//2
f 99//2 100//2 101//2
f 99//2 102//2 100//2
f 102//2 99//2 98//2
f 103//2 104//2 105//2
f 104//2 103//2 106//2
f 105//2 107//2 108//2
f 104//2 107//2 105//2
f 107//2 104//2 109//2
f 101//2 109//2 104//2
f 100//2 109//2 101//2
f 109//2 100//2 110//2
f 93//2 111//2 112//2
f 111//2 93//2 94//2
f 113//2 114//2 115//2
f 113//2 116//2 114//2
f 117//2 116//2 113//2
f 118//2 116//2 117//2
f 116//2 118//2 119//2
f 120//2 121//2 122//2
f 120//2 123//2 121//2
f 124//2 123//2 125//2
f 120//2 125//2 123//2
f 115//2 125//2 120//2
f 115//2 126//2 125//2
f 126//2 115//2 114//2
f 127//2 128//2 129//2
f 122//2 128//2 127//2
f 122//2 130//2 128//2
f 130//2 122//2 121//2
f 131//2 129//2 128//2
f 131//2 132//2 129//2
f 133//2 132//2 131//2
f 134//2 132//2 133//2
f 132//2 134//2 135//2
f 123//2 124//2 136//2
f 124//2 137//2 136//2
f 138//2 137//2 139//2
f 139//2 137//2 124//2
f 140//2 141//2 142//2
f 143//2 144//2 145//2
f 144//2 143//2 146//2
f 145//2 87//2 147//2
f 87//2 148//2 147//2
f 149//2 148//2 150//2
f 87//2 150//2 148//2
f 89//2 150//2 87//2
f 150//2 89//2 151//2
f 87//2 145//2 85//2
f 144//2 85//2 145//2
f 152//2 85//2 144//2
f 153//2 85//2 152//2
f 137//2 138//2 153//2
f 4//2 153//2 138//2
f 4//2 138//2 154//2
f 153//2 4//2 85//2
f 96//2 4//2 154//2
f 148//2 149//2 155//2
f 156//2 149//2 157//2
f 149//2 156//2 155//2
f 158//2 159//2 160//2
f 142//2 159//2 158//2
f 161//2 142//2 141//2
f 162//2 142//2 161//2
f 162//2 161//2 163//2
f 142//2 162//2 159//2
f 164//2 160//2 159//2
f 164//2 165//2 160//2
f 166//2 165//2 164//2
f 167//2 165//2 166//2
f 165//2 167//2 168//2
f 96//2 167//2 95//2
f 167//2 96//2 168//2
f 22//4 154//4 138//4
f 154//4 22//4 23//4
f 154//3 24//3 96//3
f 24//3 154//3 23//3
f 82//4 95//4 167//4
f 95//4 82//4 83//4
f 24//6 168//6 96//6
f 168//6 24//6 21//6
f 95//3 84//3 94//3
f 84//3 95//3 83//3
f 80//4 93//4 112//4
f 93//4 80//4 33//4
f 111//3 80//3 112//3
f 80//3 111//3 79//3
f 84//6 111//6 94//6
f 111//6 84//6 79//6
f 93//3 32//3 92//3
f 32//3 93//3 33//3
f 70//4 91//4 97//4
f 91//4 70//4 72//4
f 32//6 98//6 92//6
f 98//6 32//6 28//6
f 91//3 26//3 90//3
f 26//3 91//3 72//3
f 168//3 20//3 165//3
f 20//3 168//3 21//3
f 81//1 163//1 12//1
f 163//1 81//1 162//1
f 11//4 163//4 161//4
f 163//4 11//4 12//4
f 81//6 159//6 162//6
f 159//6 81//6 76//6
f 13//1 117//1 31//1
f 117//1 13//1 118//1
f 119//3 9//3 116//3
f 9//3 119//3 10//3
f 13//6 119//6 118//6
f 119//6 13//6 10//6
f 29//4 117//4 113//4
f 117//4 29//4 31//4
f 9//6 114//6 116//6
f 114//6 9//6 5//6
f 27//1 89//1 25//1
f 89//1 27//1 151//1
f 27//6 150//6 151//6
f 150//6 27//6 67//6
f 82//1 166//1 77//1
f 166//1 82//1 167//1
f 78//4 166//4 164//4
f 166//4 78//4 77//4
f 20//6 160//6 165//6
f 160//6 20//6 18//6
f 11//1 141//1 8//1
f 141//1 11//1 161//1
f 15//4 142//4 158//4
f 142//4 15//4 17//4
f 142//3 6//3 140//3
f 6//3 142//3 17//3
f 6//4 141//4 140//4
f 141//4 6//4 8//4
f 115//3 29//3 113//3
f 29//3 115//3 44//3
f 22//1 139//1 19//1
f 139//1 22//1 138//1
f 62//4 153//4 152//4
f 153//4 62//4 65//4
f 153//3 66//3 137//3
f 66//3 153//3 65//3
f 16//4 139//4 124//4
f 139//4 16//4 19//4
f 66//6 136//6 137//6
f 136//6 66//6 38//6
f 160//3 15//3 158//3
f 15//3 160//3 18//3
f 7//1 114//1 5//1
f 114//1 7//1 126//1
f 7//6 125//6 126//6
f 125//6 7//6 14//6
f 42//4 115//4 120//4
f 115//4 42//4 44//4
f 99//3 70//3 97//3
f 70//3 99//3 71//3
f 136//3 34//3 123//3
f 34//3 136//3 38//3
f 78//1 159//1 76//1
f 159//1 78//1 164//1
f 30//1 98//1 28//1
f 98//1 30//1 102//1
f 74//4 99//4 101//4
f 99//4 74//4 71//4
f 30//6 100//6 102//6
f 100//6 30//6 41//6
f 16//1 125//1 14//1
f 125//1 16//1 124//1
f 122//3 42//3 120//3
f 42//3 122//3 47//3
f 34//6 121//6 123//6
f 121//6 34//6 36//6
f 73//1 103//1 54//1
f 103//1 73//1 106//1
f 53//4 103//4 105//4
f 103//4 53//4 54//4
f 73//6 104//6 106//6
f 104//6 73//6 75//6
f 55//1 157//1 68//1
f 157//1 55//1 156//1
f 155//3 51//3 148//3
f 51//3 155//3 52//3
f 69//4 157//4 149//4
f 157//4 69//4 68//4
f 55//6 155//6 156//6
f 155//6 55//6 52//6
f 64//1 133//1 37//1
f 133//1 64//1 134//1
f 135//3 60//3 132//3
f 60//3 135//3 59//3
f 39//4 133//4 131//4
f 133//4 39//4 37//4
f 64//6 135//6 134//6
f 135//6 64//6 59//6
f 129//3 45//3 127//3
f 45//3 129//3 57//3
f 60//6 129//6 132//6
f 129//6 60//6 57//6
f 35//1 121//1 36//1
f 121//1 35//1 130//1
f 45//4 122//4 127//4
f 122//4 45//4 47//4
f 35//6 128//6 130//6
f 128//6 35//6 40//6
f 109//3 49//3 107//3
f 49//3 109//3 46//3
f 69//1 150//1 67//1
f 150//1 69//1 149//1
f 51//6 147//6 148//6
f 147//6 51//6 48//6
f 61//1 143//1 58//1
f 143//1 61//1 146//1
f 56//4 143//4 145//4
f 143//4 56//4 58//4
f 61//6 144//6 146//6
f 144//6 61//6 63//6
f 62//1 144//1 63//1
f 144//1 62//1 152//1
f 56//1 147//1 48//1
f 147//1 56//1 145//1
f 39//1 128//1 40//1
f 128//1 39//1 131//1
f 53//1 108//1 50//1
f 108//1 53//1 105//1
f 43//1 100//1 41//1
f 100//1 43//1 110//1
f 74//1 104//1 75//1
f 104//1 74//1 101//1
f 43//6 109//6 110//6
f 109//6 43//6 46//6
f 49//4 108//4 107//4
f 108//4 49//4 50//4
