# Blender v2.77 (sub 0) OBJ File: ''
# www.blender.org
mtllib LabyrinthandBallblend.mtl
o Labyrinth
v -15.000000 0.000000 15.000000
v -15.000000 3.000000 -15.000000
v -15.000000 0.000000 -15.000000
v -15.000000 3.000000 15.000000
v -14.268300 1.000000 -6.951220
v -11.341500 1.000000 -3.292680
v -11.341500 1.000000 -6.951220
v -11.341500 1.000000 -0.365853
v -14.268300 1.000000 3.292680
v -0.365854 1.000000 4.024390
v -3.292680 1.000000 6.951220
v -0.365854 1.000000 7.682930
v -4.024390 1.000000 6.951220
v -6.951220 1.000000 4.024390
v -6.951220 1.000000 7.682930
v -4.024390 1.000000 10.609800
v -11.341500 1.000000 10.609800
v -14.268300 1.000000 7.682930
v -14.268300 1.000000 14.268300
v -11.341500 1.000000 14.268300
v 10.609800 1.000000 -10.609800
v 7.682930 1.000000 -10.609800
v 10.609800 1.000000 -3.292680
v 10.609800 1.000000 -15.000000
v 7.682930 1.000000 -15.000000
v 10.609800 1.000000 -14.268300
v 14.268300 1.000000 -14.268300
v 11.341500 1.000000 -11.341500
v 14.268300 1.000000 -0.365853
v 7.682930 1.000000 -14.268300
v -0.365854 1.000000 -11.341500
v -3.292680 1.000000 -11.341500
v -0.365854 1.000000 -10.609800
v -14.268300 1.000000 -14.268300
v -11.341500 1.000000 -11.341500
v -11.341500 1.000000 -10.609800
v 11.341500 1.000000 -3.292680
v 7.682930 1.000000 -3.292680
v 4.024390 1.000000 -0.365853
v 4.024390 1.000000 -3.292680
v 3.292680 1.000000 7.682930
v 0.365853 1.000000 10.609800
v 3.292680 1.000000 11.341500
v -3.292680 1.000000 10.609800
v 6.951220 1.000000 -10.609800
v 4.024390 1.000000 -7.682930
v 6.951220 1.000000 -4.024390
v -3.292680 1.000000 -7.682930
v 4.024390 1.000000 -6.951220
v 3.292680 1.000000 -4.024390
v 0.365853 1.000000 -6.951220
v 3.292680 1.000000 0.365854
v 0.365853 1.000000 6.951220
v 3.292680 1.000000 3.292680
v 11.341500 1.000000 4.024390
v 10.609800 1.000000 6.951220
v 11.341500 1.000000 6.951220
v 7.682930 1.000000 4.024390
v 7.682930 1.000000 7.682930
v 10.609800 1.000000 10.609800
v 6.951220 1.000000 10.609800
v 4.024390 1.000000 7.682930
v 4.024390 1.000000 11.341500
v 6.951220 1.000000 14.268300
v 0.365853 1.000000 11.341500
v -10.609800 1.000000 14.268300
v -10.609800 1.000000 11.341500
v 14.268300 1.000000 0.365854
v 11.341500 1.000000 3.292680
v 14.268300 1.000000 14.268300
v 11.341500 1.000000 11.341500
v 7.682930 1.000000 14.268300
v 7.682930 1.000000 11.341500
v 3.292680 1.000000 4.024390
v 6.951220 1.000000 6.951220
v 6.951220 1.000000 4.024390
v -6.951220 1.000000 -10.609800
v -4.024390 1.000000 -6.951220
v -4.024390 1.000000 -10.609800
v -4.024390 1.000000 -4.024390
v -6.951220 1.000000 -0.365853
v -0.365854 1.000000 -4.024390
v -0.365854 1.000000 -6.951220
v -0.365854 1.000000 -3.292680
v -3.292680 1.000000 -0.365853
v -0.365854 1.000000 3.292680
v -4.024390 1.000000 -3.292680
v -3.292680 1.000000 0.365854
v -7.682930 1.000000 3.292680
v -10.609800 1.000000 4.024390
v -10.609800 1.000000 3.292680
v -11.341500 1.000000 0.365854
v -7.682930 1.000000 -10.609800
v -10.609800 1.000000 -7.682930
v -7.682930 1.000000 -0.365853
v -14.268300 1.000000 -7.682930
v -10.609800 1.000000 -3.292680
v -7.682930 1.000000 6.951220
v -14.268300 1.000000 6.951220
v -14.268300 1.000000 4.024390
v 15.000000 3.000000 15.000000
v 15.000000 0.000000 -15.000000
v 15.000000 3.000000 -15.000000
v 15.000000 0.000000 15.000000
v 10.609800 3.000000 -15.000000
v 7.682930 3.000000 -15.000000
v -14.268300 3.000000 -14.268300
v 7.682930 3.000000 -14.268300
v -14.268300 3.000000 -7.682930
v -14.268300 3.000000 -6.951220
v -14.268300 3.000000 3.292680
v -14.268300 3.000000 4.024390
v -14.268300 3.000000 6.951220
v -14.268300 3.000000 7.682930
v -10.609800 3.000000 -7.682930
v -11.341500 3.000000 -6.951220
v -10.609800 3.000000 -3.292680
v -11.341500 3.000000 -3.292680
v -10.609800 3.000000 4.024390
v -10.609800 3.000000 3.292680
v -3.292680 3.000000 -11.341500
v -4.024390 3.000000 -10.609800
v -3.292680 3.000000 -7.682930
v -6.951220 3.000000 -10.609800
v -7.682930 3.000000 -10.609800
v -6.951220 3.000000 -0.365853
v -11.341500 3.000000 -11.341500
v -11.341500 3.000000 -10.609800
v 11.341500 3.000000 -11.341500
v 10.609800 3.000000 -10.609800
v 11.341500 3.000000 -3.292680
v 7.682930 3.000000 -10.609800
v 6.951220 3.000000 -4.024390
v 6.951220 3.000000 -10.609800
v -0.365854 3.000000 -11.341500
v -0.365854 3.000000 -10.609800
v 10.609800 3.000000 -3.292680
v 7.682930 3.000000 -3.292680
v 4.024390 3.000000 -3.292680
v 3.292680 3.000000 -4.024390
v 4.024390 3.000000 -0.365853
v 14.268300 3.000000 0.365854
v 14.268300 3.000000 -0.365853
v 3.292680 3.000000 0.365854
v 14.268300 3.000000 -14.268300
v 10.609800 3.000000 -14.268300
v 14.268300 3.000000 14.268300
v 7.682930 3.000000 14.268300
v 7.682930 3.000000 11.341500
v 6.951220 3.000000 14.268300
v -10.609800 3.000000 14.268300
v -10.609800 3.000000 11.341500
v -11.341500 3.000000 14.268300
v -14.268300 3.000000 14.268300
v -0.365854 3.000000 3.292680
v -6.951220 3.000000 4.024390
v -0.365854 3.000000 4.024390
v -7.682930 3.000000 3.292680
v -7.682930 3.000000 6.951220
v -6.951220 3.000000 7.682930
v -4.024390 3.000000 -4.024390
v -0.365854 3.000000 -3.292680
v -0.365854 3.000000 -4.024390
v -4.024390 3.000000 -3.292680
v 4.024390 3.000000 -7.682930
v 0.365853 3.000000 -6.951220
v 4.024390 3.000000 -6.951220
v -0.365854 3.000000 -6.951220
v -4.024390 3.000000 -6.951220
v 10.609800 3.000000 10.609800
v 11.341500 3.000000 6.951220
v 10.609800 3.000000 6.951220
v 11.341500 3.000000 11.341500
v 6.951220 3.000000 10.609800
v 11.341500 3.000000 3.292680
v 7.682930 3.000000 4.024390
v 11.341500 3.000000 4.024390
v 6.951220 3.000000 6.951220
v 6.951220 3.000000 4.024390
v 3.292680 3.000000 3.292680
v 3.292680 3.000000 4.024390
v 7.682930 3.000000 7.682930
v 4.024390 3.000000 7.682930
v 3.292680 3.000000 7.682930
v 4.024390 3.000000 11.341500
v 0.365853 3.000000 6.951220
v -0.365854 3.000000 7.682930
v 3.292680 3.000000 11.341500
v -3.292680 3.000000 0.365854
v -3.292680 3.000000 -0.365853
v -7.682930 3.000000 -0.365853
v -11.341500 3.000000 0.365854
v -11.341500 3.000000 -0.365853
v -3.292680 3.000000 6.951220
v -4.024390 3.000000 6.951220
v -3.292680 3.000000 10.609800
v 0.365853 3.000000 11.341500
v 0.365853 3.000000 10.609800
v -4.024390 3.000000 10.609800
v -11.341500 3.000000 10.609800
vn -1.0000 0.0000 0.0000
vn 0.0000 1.0000 0.0000
vn 1.0000 0.0000 0.0000
vn 0.0000 0.0000 -1.0000
vn 0.0000 -1.0000 0.0000
vn 0.0000 0.0000 1.0000
usemtl Woodlabyrinth
s off
f 1//1 2//1 3//1
f 2//1 1//1 4//1
f 5//2 6//2 7//2
f 6//2 5//2 8//2
f 9//2 8//2 5//2
f 10//2 11//2 12//2
f 10//2 13//2 11//2
f 14//2 13//2 10//2
f 15//2 13//2 14//2
f 13//2 15//2 16//2
f 15//2 17//2 16//2
f 18//2 17//2 15//2
f 19//2 17//2 18//2
f 17//2 19//2 20//2
f 21//2 22//2 23//2
f 24//2 25//2 26//2
f 27//2 28//2 29//2
f 26//2 28//2 27//2
f 30//2 26//2 25//2
f 26//2 30//2 28//2
f 30//2 31//2 28//2
f 31//2 32//2 33//2
f 30//2 32//2 31//2
f 34//2 32//2 30//2
f 35//2 34//2 36//2
f 32//2 34//2 35//2
f 37//2 29//2 28//2
f 23//2 29//2 37//2
f 38//2 23//2 22//2
f 38//2 29//2 23//2
f 39//2 38//2 40//2
f 38//2 39//2 29//2
f 41//2 42//2 43//2
f 12//2 42//2 41//2
f 44//2 12//2 11//2
f 12//2 44//2 42//2
f 45//2 46//2 47//2
f 33//2 46//2 45//2
f 48//2 33//2 32//2
f 33//2 48//2 46//2
f 49//2 47//2 46//2
f 49//2 50//2 47//2
f 51//2 52//2 50//2
f 53//2 52//2 51//2
f 52//2 53//2 54//2
f 51//2 50//2 49//2
f 55//2 56//2 57//2
f 58//2 56//2 55//2
f 59//2 56//2 58//2
f 56//2 59//2 60//2
f 59//2 61//2 60//2
f 62//2 61//2 59//2
f 63//2 61//2 62//2
f 61//2 63//2 64//2
f 43//2 64//2 63//2
f 65//2 43//2 42//2
f 43//2 65//2 64//2
f 66//2 65//2 67//2
f 65//2 66//2 64//2
f 55//2 68//2 69//2
f 52//2 69//2 68//2
f 69//2 52//2 54//2
f 57//2 68//2 55//2
f 68//2 57//2 70//2
f 71//2 70//2 57//2
f 72//2 71//2 73//2
f 71//2 72//2 70//2
f 74//2 75//2 76//2
f 74//2 53//2 75//2
f 54//2 53//2 74//2
f 77//2 78//2 79//2
f 78//2 77//2 80//2
f 81//2 80//2 77//2
f 78//2 82//2 83//2
f 82//2 78//2 80//2
f 84//2 85//2 86//2
f 87//2 85//2 84//2
f 80//2 81//2 87//2
f 87//2 81//2 85//2
f 88//2 86//2 85//2
f 88//2 89//2 86//2
f 90//2 89//2 91//2
f 92//2 89//2 88//2
f 89//2 92//2 91//2
f 8//2 9//2 92//2
f 92//2 9//2 91//2
f 93//2 94//2 95//2
f 36//2 94//2 93//2
f 96//2 36//2 34//2
f 36//2 96//2 94//2
f 97//2 95//2 94//2
f 8//2 97//2 6//2
f 97//2 8//2 95//2
f 89//2 90//2 98//2
f 99//2 90//2 100//2
f 90//2 99//2 98//2
f 101//3 102//3 103//3
f 102//3 101//3 104//3
f 103//4 24//4 105//4
f 24//4 102//4 25//4
f 102//4 24//4 103//4
f 25//4 2//4 106//4
f 3//4 25//4 102//4
f 25//4 3//4 2//4
f 1//5 102//5 104//5
f 102//5 1//5 3//5
f 1//6 101//6 4//6
f 101//6 1//6 104//6
f 106//2 107//2 108//2
f 2//2 109//2 107//2
f 109//2 2//2 110//2
f 110//2 2//2 111//2
f 4//2 111//2 2//2
f 111//2 4//2 112//2
f 112//2 4//2 113//2
f 113//2 4//2 114//2
f 2//2 107//2 106//2
f 115//2 116//2 117//2
f 109//2 116//2 115//2
f 116//2 109//2 110//2
f 117//2 116//2 118//2
f 111//2 119//2 120//2
f 119//2 111//2 112//2
f 121//2 122//2 123//2
f 121//2 124//2 122//2
f 124//2 125//2 126//2
f 121//2 125//2 124//2
f 127//2 125//2 121//2
f 125//2 127//2 128//2
f 129//2 130//2 131//2
f 129//2 132//2 130//2
f 133//2 132//2 134//2
f 129//2 134//2 132//2
f 135//2 134//2 129//2
f 134//2 135//2 136//2
f 131//2 130//2 137//2
f 132//2 133//2 138//2
f 133//2 139//2 138//2
f 139//2 140//2 141//2
f 140//2 139//2 133//2
f 141//2 142//2 143//2
f 141//2 144//2 142//2
f 144//2 141//2 140//2
f 143//2 103//2 145//2
f 105//2 145//2 103//2
f 145//2 105//2 146//2
f 103//2 143//2 101//2
f 142//2 101//2 143//2
f 147//2 101//2 142//2
f 148//2 101//2 147//2
f 149//2 150//2 148//2
f 150//2 101//2 148//2
f 4//2 150//2 151//2
f 152//2 153//2 151//2
f 4//2 151//2 153//2
f 4//2 153//2 154//2
f 150//2 4//2 101//2
f 114//2 4//2 154//2
f 155//2 156//2 157//2
f 158//2 156//2 155//2
f 159//2 156//2 158//2
f 156//2 159//2 160//2
f 114//2 159//2 113//2
f 159//2 114//2 160//2
f 161//2 162//2 163//2
f 162//2 161//2 164//2
f 165//2 166//2 167//2
f 163//2 166//2 168//2
f 123//2 166//2 165//2
f 166//2 123//2 168//2
f 123//2 169//2 168//2
f 169//2 123//2 122//2
f 170//2 171//2 172//2
f 171//2 170//2 173//2
f 170//2 149//2 173//2
f 150//2 149//2 174//2
f 174//2 149//2 170//2
f 175//2 176//2 177//2
f 178//2 176//2 179//2
f 175//2 179//2 176//2
f 180//2 179//2 175//2
f 179//2 180//2 181//2
f 176//2 178//2 182//2
f 178//2 183//2 182//2
f 183//2 184//2 185//2
f 178//2 184//2 183//2
f 186//2 184//2 178//2
f 162//2 166//2 163//2
f 166//2 162//2 186//2
f 155//2 186//2 162//2
f 157//2 186//2 155//2
f 186//2 187//2 184//2
f 187//2 186//2 157//2
f 185//2 184//2 188//2
f 126//2 189//2 190//2
f 191//2 126//2 125//2
f 191//2 189//2 126//2
f 192//2 191//2 193//2
f 191//2 192//2 189//2
f 194//2 195//2 196//2
f 196//2 197//2 198//2
f 199//2 196//2 195//2
f 199//2 197//2 196//2
f 199//2 152//2 197//2
f 153//2 152//2 200//2
f 200//2 152//2 199//2
f 20//4 154//4 153//4
f 154//4 20//4 19//4
f 154//3 18//3 114//3
f 18//3 154//3 19//3
f 98//4 113//4 159//4
f 113//4 98//4 99//4
f 18//6 160//6 114//6
f 160//6 18//6 15//6
f 113//3 100//3 112//3
f 100//3 113//3 99//3
f 119//3 91//3 120//3
f 91//3 119//3 90//3
f 91//4 111//4 120//4
f 111//4 91//4 9//4
f 100//6 119//6 112//6
f 119//6 100//6 90//6
f 111//3 5//3 110//3
f 5//3 111//3 9//3
f 117//3 94//3 115//3
f 94//3 117//3 97//3
f 5//6 116//6 110//6
f 116//6 5//6 7//6
f 94//4 109//4 115//4
f 109//4 94//4 96//4
f 109//3 34//3 107//3
f 34//3 109//3 96//3
f 34//6 108//6 107//6
f 108//6 34//6 30//6
f 20//1 200//1 17//1
f 200//1 20//1 153//1
f 64//4 151//4 150//4
f 151//4 64//4 66//4
f 151//3 67//3 152//3
f 67//3 151//3 66//3
f 16//4 200//4 199//4
f 200//4 16//4 17//4
f 67//6 197//6 152//6
f 197//6 67//6 65//6
f 160//3 14//3 156//3
f 14//3 160//3 15//3
f 92//1 193//1 8//1
f 193//1 92//1 192//1
f 95//4 193//4 191//4
f 193//4 95//4 8//4
f 92//6 189//6 192//6
f 189//6 92//6 88//6
f 6//1 116//1 7//1
f 116//1 6//1 118//1
f 6//6 117//6 118//6
f 117//6 6//6 97//6
f 36//1 127//1 35//1
f 127//1 36//1 128//1
f 36//6 125//6 128//6
f 125//6 36//6 93//6
f 32//4 127//4 121//4
f 127//4 32//4 35//4
f 98//1 158//1 89//1
f 158//1 98//1 159//1
f 86//4 158//4 155//4
f 158//4 86//4 89//4
f 14//6 157//6 156//6
f 157//6 14//6 10//6
f 95//1 125//1 93//1
f 125//1 95//1 191//1
f 189//3 85//3 190//3
f 85//3 189//3 88//3
f 85//4 126//4 190//4
f 126//4 85//4 81//4
f 126//3 77//3 124//3
f 77//3 126//3 81//3
f 123//3 32//3 121//3
f 32//3 123//3 48//3
f 77//6 122//6 124//6
f 122//6 77//6 79//6
f 16//1 195//1 13//1
f 195//1 16//1 199//1
f 197//3 42//3 198//3
f 42//3 197//3 65//3
f 42//4 196//4 198//4
f 196//4 42//4 44//4
f 196//3 11//3 194//3
f 11//3 196//3 44//3
f 11//4 195//4 194//4
f 195//4 11//4 13//4
f 186//3 51//3 166//3
f 51//3 186//3 53//3
f 87//1 161//1 80//1
f 161//1 87//1 164//1
f 87//6 162//6 164//6
f 162//6 87//6 84//6
f 82//4 161//4 163//4
f 161//4 82//4 80//4
f 78//1 122//1 79//1
f 122//1 78//1 169//1
f 78//6 168//6 169//6
f 168//6 78//6 83//6
f 46//4 123//4 165//4
f 123//4 46//4 48//4
f 12//1 157//1 10//1
f 157//1 12//1 187//1
f 82//1 168//1 83//1
f 168//1 82//1 163//1
f 86//1 162//1 84//1
f 162//1 86//1 155//1
f 12//6 184//6 187//6
f 184//6 12//6 41//6
f 75//4 186//4 178//4
f 186//4 75//4 53//4
f 167//3 46//3 165//3
f 46//3 167//3 49//3
f 51//6 167//6 166//6
f 167//6 51//6 49//6
f 33//1 135//1 31//1
f 135//1 33//1 136//1
f 28//4 135//4 129//4
f 135//4 28//4 31//4
f 33//6 134//6 136//6
f 134//6 33//6 45//6
f 43//1 184//1 41//1
f 184//1 43//1 188//1
f 185//3 62//3 183//3
f 62//3 185//3 63//3
f 43//6 185//6 188//6
f 185//6 43//6 63//6
f 182//3 58//3 176//3
f 58//3 182//3 59//3
f 62//6 182//6 183//6
f 182//6 62//6 59//6
f 74//1 180//1 54//1
f 180//1 74//1 181//1
f 69//4 180//4 175//4
f 180//4 69//4 54//4
f 74//6 179//6 181//6
f 179//6 74//6 76//6
f 52//1 140//1 50//1
f 140//1 52//1 144//1
f 29//4 141//4 143//4
f 141//4 29//4 39//4
f 52//6 142//6 144//6
f 142//6 52//6 68//6
f 141//3 40//3 139//3
f 40//3 141//3 39//3
f 47//4 140//4 133//4
f 140//4 47//4 50//4
f 138//3 22//3 132//3
f 22//3 138//3 38//3
f 40//6 138//6 139//6
f 138//6 40//6 38//6
f 108//3 25//3 106//3
f 25//3 108//3 30//3
f 64//1 174//1 61//1
f 174//1 64//1 150//1
f 70//4 148//4 147//4
f 148//4 70//4 72//4
f 148//3 73//3 149//3
f 73//3 148//3 72//3
f 60//4 174//4 170//4
f 174//4 60//4 61//4
f 173//3 57//3 171//3
f 57//3 173//3 71//3
f 73//6 173//6 149//6
f 173//6 73//6 71//6
f 75//1 179//1 76//1
f 179//1 75//1 178//1
f 177//3 69//3 175//3
f 69//3 177//3 55//3
f 58//6 177//6 176//6
f 177//6 58//6 55//6
f 47//1 134//1 45//1
f 134//1 47//1 133//1
f 131//3 28//3 129//3
f 28//3 131//3 37//3
f 22//6 130//6 132//6
f 130//6 22//6 21//6
f 70//1 142//1 68//1
f 142//1 70//1 147//1
f 60//1 172//1 56//1
f 172//1 60//1 170//1
f 57//4 172//4 171//4
f 172//4 57//4 56//4
f 29//1 145//1 27//1
f 145//1 29//1 143//1
f 23//1 130//1 21//1
f 130//1 23//1 137//1
f 23//6 131//6 137//6
f 131//6 23//6 37//6
f 26//1 105//1 24//1
f 105//1 26//1 146//1
f 26//6 145//6 146//6
f 145//6 26//6 27//6
