# Blender v2.77 (sub 0) OBJ File: ''
# www.blender.org
mtllib LabyrinthandBallblend.mtl
o aLabyrinth
v -15.000000 0.000000 15.000000
v -15.000000 3.000000 -15.000000
v -15.000000 0.000000 -15.000000
v -15.000000 3.000000 15.000000
v -4.024390 1.000000 -14.268300
v -6.951220 1.000000 -11.341500
v -4.024390 1.000000 -10.609800
v -7.682930 1.000000 -11.341500
v -10.609800 1.000000 -10.609800
v -10.609800 1.000000 -11.341500
v -14.268300 1.000000 -14.268300
v -14.268300 1.000000 -11.341500
v -10.609800 1.000000 -6.951220
v 0.365853 1.000000 -4.024390
v 0.365853 1.000000 -6.951220
v -10.609800 1.000000 -4.024390
v 6.951220 1.000000 4.024390
v 4.024390 1.000000 6.951220
v 6.951220 1.000000 7.682930
v 3.292680 1.000000 6.951220
v 0.365853 1.000000 4.024390
v 3.292680 1.000000 11.341500
v 10.609800 1.000000 0.365854
v 7.682930 1.000000 3.292680
v 10.609800 1.000000 10.609800
v -0.365854 1.000000 0.365854
v -3.292680 1.000000 3.292680
v -3.292680 1.000000 -3.292680
v 7.682930 1.000000 7.682930
v 4.024390 1.000000 10.609800
v 3.292680 1.000000 -10.609800
v 0.365853 1.000000 -10.609800
v 3.292680 1.000000 -3.292680
v 10.609800 1.000000 -0.365853
v 10.609800 1.000000 -3.292680
v 0.365853 1.000000 -3.292680
v -0.365854 1.000000 -0.365853
v -3.292680 1.000000 -15.000000
v -0.365854 1.000000 -14.268300
v -0.365854 1.000000 -15.000000
v -0.365854 1.000000 -11.341500
v -3.292680 1.000000 -10.609800
v -0.365854 1.000000 -7.682930
v -6.951220 1.000000 -7.682930
v 10.609800 1.000000 -14.268300
v 7.682930 1.000000 -11.341500
v 10.609800 1.000000 -7.682930
v 7.682930 1.000000 -10.609800
v 6.951220 1.000000 -7.682930
v 4.024390 1.000000 -10.609800
v 6.951220 1.000000 -6.951220
v 11.341500 1.000000 -4.024390
v 11.341500 1.000000 -6.951220
v 4.024390 1.000000 -4.024390
v 14.268300 1.000000 -14.268300
v 11.341500 1.000000 -14.268300
v 14.268300 1.000000 14.268300
v 11.341500 1.000000 11.341500
v 0.365853 1.000000 14.268300
v -7.682930 1.000000 -7.682930
v -11.341500 1.000000 -7.682930
v -14.268300 1.000000 -10.609800
v -11.341500 1.000000 0.365854
v -7.682930 1.000000 4.024390
v -10.609800 1.000000 6.951220
v -7.682930 1.000000 7.682930
v -11.341500 1.000000 6.951220
v -14.268300 1.000000 4.024390
v -14.268300 1.000000 14.268300
v -11.341500 1.000000 14.268300
v -4.024390 1.000000 7.682930
v -6.951220 1.000000 10.609800
v -4.024390 1.000000 11.341500
v -10.609800 1.000000 10.609800
v -4.024390 1.000000 -3.292680
v -6.951220 1.000000 -0.365853
v -4.024390 1.000000 4.024390
v -7.682930 1.000000 -0.365853
v -10.609800 1.000000 -3.292680
v -10.609800 1.000000 0.365854
v -7.682930 1.000000 3.292680
v -14.268300 1.000000 3.292680
v -0.365854 1.000000 4.024390
v -3.292680 1.000000 6.951220
v -0.365854 1.000000 14.268300
v -6.951220 1.000000 6.951220
v -3.292680 1.000000 11.341500
v -6.951220 1.000000 11.341500
v -10.609800 1.000000 14.268300
v -10.609800 1.000000 11.341500
v 15.000000 3.000000 15.000000
v 15.000000 0.000000 -15.000000
v 15.000000 3.000000 -15.000000
v 15.000000 0.000000 15.000000
v -0.365854 3.000000 -15.000000
v -3.292680 3.000000 -15.000000
v -4.024390 3.000000 -14.268300
v -3.292680 3.000000 -10.609800
v -14.268300 3.000000 -14.268300
v -14.268300 3.000000 -11.341500
v -14.268300 3.000000 -10.609800
v -14.268300 3.000000 3.292680
v -14.268300 3.000000 4.024390
v -4.024390 3.000000 -10.609800
v -10.609800 3.000000 -10.609800
v -10.609800 3.000000 -11.341500
v -7.682930 3.000000 4.024390
v -7.682930 3.000000 3.292680
v -11.341500 3.000000 6.951220
v -10.609800 3.000000 10.609800
v -10.609800 3.000000 6.951220
v -11.341500 3.000000 14.268300
v -10.609800 3.000000 11.341500
v -6.951220 3.000000 11.341500
v -6.951220 3.000000 10.609800
v -6.951220 3.000000 -11.341500
v -7.682930 3.000000 -11.341500
v -6.951220 3.000000 -7.682930
v 7.682930 3.000000 -11.341500
v 4.024390 3.000000 -10.609800
v 7.682930 3.000000 -10.609800
v 3.292680 3.000000 -10.609800
v 4.024390 3.000000 -4.024390
v -0.365854 3.000000 -11.341500
v 0.365853 3.000000 -10.609800
v -0.365854 3.000000 -7.682930
v 0.365853 3.000000 -6.951220
v -7.682930 3.000000 -7.682930
v -10.609800 3.000000 -6.951220
v -11.341500 3.000000 -7.682930
v -10.609800 3.000000 -4.024390
v -10.609800 3.000000 -3.292680
v -11.341500 3.000000 0.365854
v -10.609800 3.000000 0.365854
v -0.365854 3.000000 -0.365853
v 10.609800 3.000000 0.365854
v 10.609800 3.000000 -0.365853
v -0.365854 3.000000 0.365854
v 11.341500 3.000000 -4.024390
v 10.609800 3.000000 -3.292680
v 3.292680 3.000000 -3.292680
v 11.341500 3.000000 11.341500
v 10.609800 3.000000 10.609800
v 4.024390 3.000000 10.609800
v 3.292680 3.000000 11.341500
v 3.292680 3.000000 6.951220
v -6.951220 3.000000 -0.365853
v -7.682930 3.000000 -0.365853
v -3.292680 3.000000 6.951220
v -4.024390 3.000000 7.682930
v -3.292680 3.000000 11.341500
v -6.951220 3.000000 6.951220
v -7.682930 3.000000 7.682930
v -4.024390 3.000000 11.341500
v 0.365853 3.000000 -4.024390
v -3.292680 3.000000 -3.292680
v 0.365853 3.000000 -3.292680
v -4.024390 3.000000 -3.292680
v -3.292680 3.000000 3.292680
v 7.682930 3.000000 3.292680
v 6.951220 3.000000 4.024390
v 7.682930 3.000000 7.682930
v 0.365853 3.000000 4.024390
v -0.365854 3.000000 4.024390
v 0.365853 3.000000 14.268300
v -4.024390 3.000000 4.024390
v 6.951220 3.000000 7.682930
v 4.024390 3.000000 6.951220
v 14.268300 3.000000 -14.268300
v 11.341500 3.000000 -14.268300
v 10.609800 3.000000 -7.682930
v 10.609800 3.000000 -14.268300
v -0.365854 3.000000 -14.268300
v 14.268300 3.000000 14.268300
v -0.365854 3.000000 14.268300
v -10.609800 3.000000 14.268300
v -14.268300 3.000000 14.268300
v 11.341500 3.000000 -6.951220
v 6.951220 3.000000 -6.951220
v 6.951220 3.000000 -7.682930
vn -1.0000 0.0000 0.0000
vn 0.0000 1.0000 0.0000
vn 1.0000 0.0000 0.0000
vn 0.0000 0.0000 -1.0000
vn 0.0000 -1.0000 0.0000
vn 0.0000 0.0000 1.0000
usemtl Woodlabyrinth
s off
f 1//1 2//1 3//1
f 2//1 1//1 4//1
f 5//2 6//2 7//2
f 5//2 8//2 6//2
f 9//2 8//2 10//2
f 5//2 10//2 8//2
f 11//2 10//2 5//2
f 10//2 11//2 12//2
f 13//2 14//2 15//2
f 14//2 13//2 16//2
f 17//2 18//2 19//2
f 17//2 20//2 18//2
f 20//2 21//2 22//2
f 21//2 20//2 17//2
f 23//2 24//2 25//2
f 26//2 24//2 23//2
f 26//2 27//2 24//2
f 27//2 26//2 28//2
f 29//2 25//2 24//2
f 19//2 25//2 29//2
f 30//2 19//2 18//2
f 19//2 30//2 25//2
f 15//2 31//2 32//2
f 33//2 34//2 35//2
f 31//2 15//2 33//2
f 14//2 33//2 15//2
f 36//2 33//2 14//2
f 37//2 33//2 36//2
f 33//2 37//2 34//2
f 37//2 28//2 26//2
f 28//2 37//2 36//2
f 38//2 39//2 40//2
f 39//2 38//2 41//2
f 41//2 38//2 42//2
f 41//2 42//2 43//2
f 7//2 43//2 42//2
f 44//2 7//2 6//2
f 7//2 44//2 43//2
f 45//2 46//2 47//2
f 39//2 46//2 45//2
f 46//2 39//2 41//2
f 48//2 47//2 46//2
f 48//2 49//2 47//2
f 49//2 50//2 51//2
f 50//2 49//2 48//2
f 51//2 52//2 53//2
f 51//2 54//2 52//2
f 54//2 51//2 50//2
f 53//2 55//2 56//2
f 52//2 55//2 53//2
f 55//2 52//2 57//2
f 58//2 57//2 52//2
f 22//2 57//2 58//2
f 22//2 59//2 57//2
f 59//2 22//2 21//2
f 8//2 9//2 60//2
f 9//2 61//2 60//2
f 61//2 62//2 63//2
f 62//2 61//2 9//2
f 64//2 65//2 66//2
f 64//2 67//2 65//2
f 68//2 67//2 64//2
f 69//2 67//2 68//2
f 67//2 69//2 70//2
f 71//2 72//2 73//2
f 66//2 72//2 71//2
f 74//2 66//2 65//2
f 66//2 74//2 72//2
f 75//2 76//2 77//2
f 75//2 78//2 76//2
f 79//2 78//2 75//2
f 80//2 78//2 79//2
f 78//2 80//2 81//2
f 63//2 81//2 80//2
f 63//2 82//2 81//2
f 82//2 63//2 62//2
f 83//2 84//2 85//2
f 77//2 84//2 83//2
f 86//2 77//2 76//2
f 77//2 86//2 84//2
f 87//2 85//2 84//2
f 73//2 85//2 87//2
f 88//2 73//2 72//2
f 73//2 88//2 85//2
f 89//2 88//2 90//2
f 88//2 89//2 85//2
f 91//3 92//3 93//3
f 92//3 91//3 94//3
f 93//4 40//4 95//4
f 3//4 40//4 92//4
f 92//4 40//4 93//4
f 38//4 2//4 96//4
f 38//4 3//4 2//4
f 40//4 3//4 38//4
f 1//5 92//5 94//5
f 92//5 1//5 3//5
f 1//6 91//6 4//6
f 91//6 1//6 94//6
f 96//2 97//2 98//2
f 96//2 99//2 97//2
f 2//2 100//2 99//2
f 100//2 2//2 101//2
f 101//2 2//2 102//2
f 4//2 102//2 2//2
f 102//2 4//2 103//2
f 2//2 99//2 96//2
f 98//2 97//2 104//2
f 100//2 105//2 106//2
f 105//2 100//2 101//2
f 102//2 107//2 108//2
f 107//2 102//2 103//2
f 109//2 110//2 111//2
f 112//2 110//2 109//2
f 110//2 112//2 113//2
f 110//2 114//2 115//2
f 114//2 110//2 113//2
f 116//2 117//2 118//2
f 119//2 120//2 121//2
f 120//2 122//2 123//2
f 119//2 122//2 120//2
f 124//2 122//2 119//2
f 122//2 124//2 125//2
f 126//2 125//2 124//2
f 125//2 126//2 127//2
f 118//2 127//2 126//2
f 128//2 118//2 117//2
f 129//2 118//2 128//2
f 118//2 129//2 127//2
f 130//2 131//2 129//2
f 131//2 130//2 132//2
f 130//2 129//2 128//2
f 132//2 130//2 133//2
f 132//2 133//2 134//2
f 135//2 136//2 137//2
f 136//2 135//2 138//2
f 137//2 139//2 140//2
f 123//2 140//2 139//2
f 123//2 141//2 140//2
f 141//2 123//2 122//2
f 136//2 139//2 137//2
f 139//2 136//2 142//2
f 143//2 142//2 136//2
f 144//2 142//2 143//2
f 144//2 145//2 142//2
f 145//2 144//2 146//2
f 108//2 147//2 148//2
f 149//2 150//2 151//2
f 152//2 150//2 149//2
f 147//2 108//2 152//2
f 107//2 152//2 108//2
f 152//2 153//2 150//2
f 153//2 152//2 107//2
f 151//2 150//2 154//2
f 155//2 156//2 157//2
f 156//2 158//2 159//2
f 155//2 158//2 156//2
f 131//2 158//2 155//2
f 158//2 131//2 132//2
f 160//2 161//2 162//2
f 160//2 163//2 161//2
f 163//2 164//2 165//2
f 159//2 163//2 160//2
f 163//2 159//2 164//2
f 159//2 166//2 164//2
f 166//2 159//2 158//2
f 162//2 161//2 167//2
f 168//2 146//2 144//2
f 93//2 169//2 91//2
f 93//2 170//2 169//2
f 171//2 170//2 172//2
f 93//2 172//2 170//2
f 95//2 172//2 93//2
f 172//2 95//2 173//2
f 174//2 91//2 169//2
f 165//2 91//2 174//2
f 175//2 165//2 164//2
f 175//2 91//2 165//2
f 4//2 175//2 176//2
f 113//2 112//2 176//2
f 4//2 176//2 112//2
f 4//2 112//2 177//2
f 175//2 4//2 91//2
f 103//2 4//2 177//2
f 170//2 171//2 178//2
f 179//2 171//2 180//2
f 171//2 179//2 178//2
f 70//4 177//4 112//4
f 177//4 70//4 69//4
f 177//3 68//3 103//3
f 68//3 177//3 69//3
f 81//4 102//4 108//4
f 102//4 81//4 82//4
f 68//6 107//6 103//6
f 107//6 68//6 64//6
f 102//3 62//3 101//3
f 62//3 102//3 82//3
f 105//3 10//3 106//3
f 10//3 105//3 9//3
f 10//4 100//4 106//4
f 100//4 10//4 12//4
f 62//6 105//6 101//6
f 105//6 62//6 9//6
f 100//3 11//3 99//3
f 11//3 100//3 12//3
f 11//6 97//6 99//6
f 97//6 11//6 5//6
f 70//1 109//1 67//1
f 109//1 70//1 112//1
f 85//4 176//4 175//4
f 176//4 85//4 89//4
f 176//3 90//3 113//3
f 90//3 176//3 89//3
f 72//4 110//4 115//4
f 110//4 72//4 74//4
f 114//3 72//3 115//3
f 72//3 114//3 88//3
f 90//6 114//6 113//6
f 114//6 90//6 88//6
f 110//3 65//3 111//3
f 65//3 110//3 74//3
f 65//4 109//4 111//4
f 109//4 65//4 67//4
f 152//3 76//3 147//3
f 76//3 152//3 86//3
f 63//1 130//1 61//1
f 130//1 63//1 133//1
f 134//3 79//3 132//3
f 79//3 134//3 80//3
f 63//6 134//6 133//6
f 134//6 63//6 80//6
f 14//4 131//4 155//4
f 131//4 14//4 16//4
f 79//6 158//6 132//6
f 158//6 79//6 75//6
f 131//3 13//3 129//3
f 13//3 131//3 16//3
f 60//4 130//4 128//4
f 130//4 60//4 61//4
f 13//6 127//6 129//6
f 127//6 13//6 15//6
f 81//1 148//1 78//1
f 148//1 81//1 108//1
f 66//1 107//1 64//1
f 107//1 66//1 153//1
f 151//3 84//3 149//3
f 84//3 151//3 87//3
f 66//6 150//6 153//6
f 150//6 66//6 71//6
f 84//4 152//4 149//4
f 152//4 84//4 86//4
f 76//4 148//4 147//4
f 148//4 76//4 78//4
f 60//1 117//1 8//1
f 117//1 60//1 128//1
f 43//4 118//4 126//4
f 118//4 43//4 44//4
f 118//3 6//3 116//3
f 6//3 118//3 44//3
f 6//4 117//4 116//4
f 117//4 6//4 8//4
f 98//3 38//3 96//3
f 38//3 98//3 42//3
f 73//1 150//1 71//1
f 150//1 73//1 154//1
f 73//6 151//6 154//6
f 151//6 73//6 87//6
f 77//1 158//1 75//1
f 158//1 77//1 166//1
f 24//4 159//4 160//4
f 159//4 24//4 27//4
f 77//6 164//6 166//6
f 164//6 77//6 83//6
f 159//3 28//3 156//3
f 28//3 159//3 27//3
f 157//3 14//3 155//3
f 14//3 157//3 36//3
f 28//6 157//6 156//6
f 157//6 28//6 36//6
f 127//3 32//3 125//3
f 32//3 127//3 15//3
f 7//1 97//1 5//1
f 97//1 7//1 104//1
f 7//6 98//6 104//6
f 98//6 7//6 42//6
f 85//1 164//1 83//1
f 164//1 85//1 175//1
f 57//4 165//4 174//4
f 165//4 57//4 59//4
f 165//3 21//3 163//3
f 21//3 165//3 59//3
f 21//6 161//6 163//6
f 161//6 21//6 17//6
f 26//1 135//1 37//1
f 135//1 26//1 138//1
f 34//4 135//4 137//4
f 135//4 34//4 37//4
f 26//6 136//6 138//6
f 136//6 26//6 23//6
f 43//1 124//1 41//1
f 124//1 43//1 126//1
f 46//4 124//4 119//4
f 124//4 46//4 41//4
f 32//6 122//6 125//6
f 122//6 32//6 31//6
f 39//1 95//1 40//1
f 95//1 39//1 173//1
f 39//6 172//6 173//6
f 172//6 39//6 45//6
f 22//1 146//1 20//1
f 146//1 22//1 145//1
f 22//6 142//6 145//6
f 142//6 22//6 58//6
f 25//4 144//4 143//4
f 144//4 25//4 30//4
f 144//3 18//3 168//3
f 18//3 144//3 30//3
f 18//4 146//4 168//4
f 146//4 18//4 20//4
f 162//3 24//3 160//3
f 24//3 162//3 29//3
f 33//1 122//1 31//1
f 122//1 33//1 141//1
f 33//6 140//6 141//6
f 140//6 33//6 35//6
f 52//4 123//4 139//4
f 123//4 52//4 54//4
f 123//3 50//3 120//3
f 50//3 123//3 54//3
f 121//3 46//3 119//3
f 46//3 121//3 48//3
f 50//6 121//6 120//6
f 121//6 50//6 48//6
f 142//3 52//3 139//3
f 52//3 142//3 58//3
f 19//1 161//1 17//1
f 161//1 19//1 167//1
f 19//6 162//6 167//6
f 162//6 19//6 29//6
f 51//1 180//1 49//1
f 180//1 51//1 179//1
f 178//3 56//3 170//3
f 56//3 178//3 53//3
f 51//6 178//6 179//6
f 178//6 51//6 53//6
f 47//4 180//4 171//4
f 180//4 47//4 49//4
f 57//1 169//1 55//1
f 169//1 57//1 174//1
f 34//1 140//1 35//1
f 140//1 34//1 137//1
f 25//1 136//1 23//1
f 136//1 25//1 143//1
f 47//1 172//1 45//1
f 172//1 47//1 171//1
f 56//6 169//6 170//6
f 169//6 56//6 55//6
