# Blender v2.77 (sub 0) OBJ File: ''
# www.blender.org
mtllib LabyrinthandBallblend.mtl
o aLabyrinth
v -15.000000 0.000000 15.000000
v -15.000000 3.000000 -15.000000
v -15.000000 0.000000 -15.000000
v -15.000000 3.000000 15.000000
v -10.609800 1.000000 -14.268300
v -7.682930 1.000000 -14.268300
v -7.682930 1.000000 -15.000000
v -7.682930 1.000000 -11.341500
v -10.609800 1.000000 -15.000000
v -6.951220 1.000000 7.682930
v -7.682930 1.000000 10.609800
v -6.951220 1.000000 10.609800
v -10.609800 1.000000 7.682930
v -10.609800 1.000000 14.268300
v -7.682930 1.000000 14.268300
v -0.365854 1.000000 0.365854
v -3.292680 1.000000 3.292680
v -0.365854 1.000000 7.682930
v -4.024390 1.000000 3.292680
v -6.951220 1.000000 0.365854
v 3.292680 1.000000 10.609800
v 3.292680 1.000000 7.682930
v -3.292680 1.000000 10.609800
v 6.951220 1.000000 -14.268300
v 4.024390 1.000000 -11.341500
v 6.951220 1.000000 -7.682930
v 4.024390 1.000000 -10.609800
v 3.292680 1.000000 -7.682930
v 0.365853 1.000000 -7.682930
v 3.292680 1.000000 4.024390
v -6.951220 1.000000 -10.609800
v -6.951220 1.000000 -7.682930
v 14.268300 1.000000 -14.268300
v 10.609800 1.000000 -11.341500
v 14.268300 1.000000 -11.341500
v 7.682930 1.000000 -14.268300
v 10.609800 1.000000 -10.609800
v 7.682930 1.000000 -6.951220
v 10.609800 1.000000 -7.682930
v 10.609800 1.000000 -4.024390
v 6.951220 1.000000 -4.024390
v 4.024390 1.000000 -6.951220
v 4.024390 1.000000 3.292680
v 6.951220 1.000000 3.292680
v 14.268300 1.000000 -10.609800
v 11.341500 1.000000 -7.682930
v 14.268300 1.000000 -0.365853
v 11.341500 1.000000 -3.292680
v 10.609800 1.000000 -0.365853
v 7.682930 1.000000 -3.292680
v 10.609800 1.000000 0.365854
v 11.341500 1.000000 6.951220
v 11.341500 1.000000 4.024390
v 0.365853 1.000000 6.951220
v 14.268300 1.000000 0.365854
v 11.341500 1.000000 3.292680
v 7.682930 1.000000 3.292680
v 14.268300 1.000000 14.268300
v 11.341500 1.000000 11.341500
v 10.609800 1.000000 11.341500
v 7.682930 1.000000 14.268300
v 7.682930 1.000000 10.609800
v 10.609800 1.000000 7.682930
v 6.951220 1.000000 10.609800
v 4.024390 1.000000 7.682930
v 4.024390 1.000000 11.341500
v 6.951220 1.000000 14.268300
v -4.024390 1.000000 11.341500
v -6.951220 1.000000 14.268300
v -0.365854 1.000000 -6.951220
v -3.292680 1.000000 -4.024390
v -0.365854 1.000000 -0.365853
v -7.682930 1.000000 -6.951220
v -10.609800 1.000000 -11.341500
v -10.609800 1.000000 -4.024390
v -3.292680 1.000000 -3.292680
v -7.682930 1.000000 -0.365853
v -10.609800 1.000000 -3.292680
v -10.609800 1.000000 4.024390
v -7.682930 1.000000 6.951220
v -11.341500 1.000000 6.951220
v -14.268300 1.000000 4.024390
v -14.268300 1.000000 14.268300
v -11.341500 1.000000 14.268300
v -11.341500 1.000000 -11.341500
v -14.268300 1.000000 -14.268300
v -14.268300 1.000000 3.292680
v -11.341500 1.000000 3.292680
v 15.000000 3.000000 15.000000
v 15.000000 0.000000 -15.000000
v 15.000000 3.000000 -15.000000
v 15.000000 0.000000 15.000000
v -7.682930 3.000000 -15.000000
v -10.609800 3.000000 -15.000000
v -14.268300 3.000000 -14.268300
v -10.609800 3.000000 -14.268300
v -14.268300 3.000000 3.292680
v -14.268300 3.000000 4.024390
v -11.341500 3.000000 -11.341500
v -10.609800 3.000000 -4.024390
v -10.609800 3.000000 -11.341500
v -11.341500 3.000000 3.292680
v -10.609800 3.000000 -3.292680
v -10.609800 3.000000 4.024390
v -3.292680 3.000000 -3.292680
v -3.292680 3.000000 -4.024390
v -6.951220 3.000000 10.609800
v -7.682930 3.000000 10.609800
v -6.951220 3.000000 14.268300
v 4.024390 3.000000 -11.341500
v -6.951220 3.000000 -10.609800
v 4.024390 3.000000 -10.609800
v -7.682930 3.000000 -11.341500
v -6.951220 3.000000 -7.682930
v -3.292680 3.000000 3.292680
v -4.024390 3.000000 3.292680
v -3.292680 3.000000 10.609800
v -0.365854 3.000000 -0.365853
v -6.951220 3.000000 0.365854
v -0.365854 3.000000 0.365854
v -7.682930 3.000000 -0.365853
v -7.682930 3.000000 6.951220
v -6.951220 3.000000 7.682930
v -10.609800 3.000000 7.682930
v -11.341500 3.000000 14.268300
v -11.341500 3.000000 6.951220
v 0.365853 3.000000 -7.682930
v -0.365854 3.000000 -6.951220
v -7.682930 3.000000 -6.951220
v 7.682930 3.000000 -14.268300
v 6.951220 3.000000 -7.682930
v 7.682930 3.000000 -6.951220
v 4.024390 3.000000 -6.951220
v 3.292680 3.000000 -7.682930
v 4.024390 3.000000 3.292680
v 7.682930 3.000000 10.609800
v 6.951220 3.000000 10.609800
v 7.682930 3.000000 14.268300
v 10.609800 3.000000 -4.024390
v 11.341500 3.000000 -7.682930
v 10.609800 3.000000 -7.682930
v 11.341500 3.000000 -3.292680
v 7.682930 3.000000 -3.292680
v 6.951220 3.000000 3.292680
v 6.951220 3.000000 -4.024390
v 7.682930 3.000000 3.292680
v 11.341500 3.000000 4.024390
v 11.341500 3.000000 3.292680
v 3.292680 3.000000 4.024390
v 10.609800 3.000000 -0.365853
v 14.268300 3.000000 0.365854
v 14.268300 3.000000 -0.365853
v 10.609800 3.000000 0.365854
v 10.609800 3.000000 -11.341500
v 14.268300 3.000000 -10.609800
v 14.268300 3.000000 -11.341500
v 10.609800 3.000000 -10.609800
v 14.268300 3.000000 -14.268300
v 6.951220 3.000000 -14.268300
v -7.682930 3.000000 -14.268300
v 14.268300 3.000000 14.268300
v 6.951220 3.000000 14.268300
v -7.682930 3.000000 14.268300
v -10.609800 3.000000 14.268300
v -14.268300 3.000000 14.268300
v 11.341500 3.000000 6.951220
v 10.609800 3.000000 7.682930
v 11.341500 3.000000 11.341500
v 4.024390 3.000000 7.682930
v 3.292680 3.000000 10.609800
v 3.292680 3.000000 7.682930
v 0.365853 3.000000 6.951220
v -0.365854 3.000000 7.682930
v 10.609800 3.000000 11.341500
v 4.024390 3.000000 11.341500
v -4.024390 3.000000 11.341500
vn -1.0000 0.0000 0.0000
vn 0.0000 1.0000 0.0000
vn 1.0000 0.0000 0.0000
vn 0.0000 0.0000 -1.0000
vn 0.0000 -1.0000 0.0000
vn 0.0000 0.0000 1.0000
usemtl Woodlabyrinth
s off
f 1//1 2//1 3//1
f 2//1 1//1 4//1
f 5//2 6//2 7//2
f 6//2 5//2 8//2
f 5//2 7//2 9//2
f 10//2 11//2 12//2
f 13//2 11//2 10//2
f 14//2 11//2 13//2
f 11//2 14//2 15//2
f 16//2 17//2 18//2
f 16//2 19//2 17//2
f 10//2 19//2 20//2
f 20//2 19//2 16//2
f 18//2 21//2 22//2
f 18//2 23//2 21//2
f 23//2 18//2 17//2
f 24//2 25//2 26//2
f 6//2 25//2 24//2
f 25//2 6//2 8//2
f 27//2 26//2 25//2
f 27//2 28//2 26//2
f 28//2 29//2 30//2
f 27//2 29//2 28//2
f 31//2 29//2 27//2
f 29//2 31//2 32//2
f 33//2 34//2 35//2
f 36//2 37//2 34//2
f 37//2 38//2 39//2
f 36//2 34//2 33//2
f 37//2 36//2 38//2
f 39//2 38//2 40//2
f 38//2 41//2 40//2
f 42//2 41//2 38//2
f 43//2 41//2 42//2
f 41//2 43//2 44//2
f 45//2 46//2 47//2
f 37//2 46//2 45//2
f 46//2 37//2 39//2
f 48//2 47//2 46//2
f 48//2 49//2 47//2
f 49//2 50//2 51//2
f 50//2 49//2 48//2
f 30//2 52//2 53//2
f 30//2 54//2 52//2
f 54//2 30//2 29//2
f 53//2 55//2 56//2
f 51//2 56//2 55//2
f 57//2 51//2 50//2
f 51//2 57//2 56//2
f 52//2 55//2 53//2
f 55//2 52//2 58//2
f 59//2 58//2 52//2
f 60//2 58//2 59//2
f 61//2 60//2 62//2
f 60//2 61//2 58//2
f 63//2 62//2 60//2
f 63//2 64//2 62//2
f 65//2 64//2 63//2
f 66//2 64//2 65//2
f 64//2 66//2 67//2
f 68//2 67//2 66//2
f 19//2 10//2 68//2
f 12//2 68//2 10//2
f 69//2 68//2 12//2
f 68//2 69//2 67//2
f 70//2 71//2 72//2
f 73//2 71//2 70//2
f 8//2 5//2 74//2
f 8//2 74//2 73//2
f 73//2 75//2 71//2
f 75//2 73//2 74//2
f 76//2 72//2 71//2
f 76//2 77//2 72//2
f 78//2 77//2 76//2
f 79//2 77//2 78//2
f 77//2 79//2 80//2
f 79//2 81//2 80//2
f 82//2 81//2 79//2
f 83//2 81//2 82//2
f 81//2 83//2 84//2
f 5//2 85//2 74//2
f 86//2 85//2 5//2
f 87//2 85//2 86//2
f 85//2 87//2 88//2
f 89//3 90//3 91//3
f 90//3 89//3 92//3
f 91//4 7//4 93//4
f 3//4 7//4 90//4
f 90//4 7//4 91//4
f 9//4 2//4 94//4
f 9//4 3//4 2//4
f 7//4 3//4 9//4
f 1//5 90//5 92//5
f 90//5 1//5 3//5
f 1//6 89//6 4//6
f 89//6 1//6 92//6
f 94//2 95//2 96//2
f 2//2 97//2 95//2
f 4//2 97//2 2//2
f 97//2 4//2 98//2
f 2//2 95//2 94//2
f 99//2 100//2 101//2
f 102//2 100//2 99//2
f 100//2 102//2 103//2
f 103//2 102//2 104//2
f 98//2 102//2 97//2
f 102//2 98//2 104//2
f 100//2 105//2 106//2
f 105//2 100//2 103//2
f 107//2 108//2 109//2
f 110//2 111//2 112//2
f 111//2 113//2 114//2
f 113//2 111//2 110//2
f 115//2 116//2 117//2
f 118//2 119//2 120//2
f 121//2 119//2 118//2
f 122//2 119//2 121//2
f 119//2 122//2 123//2
f 122//2 124//2 123//2
f 125//2 124//2 126//2
f 126//2 124//2 122//2
f 118//2 127//2 128//2
f 114//2 128//2 127//2
f 114//2 129//2 128//2
f 129//2 114//2 113//2
f 130//2 131//2 132//2
f 131//2 133//2 132//2
f 133//2 134//2 135//2
f 134//2 133//2 131//2
f 136//2 137//2 138//2
f 139//2 140//2 141//2
f 140//2 139//2 142//2
f 139//2 143//2 142//2
f 144//2 143//2 145//2
f 145//2 143//2 139//2
f 146//2 147//2 148//2
f 143//2 144//2 146//2
f 144//2 147//2 146//2
f 149//2 144//2 135//2
f 144//2 149//2 147//2
f 149//2 135//2 134//2
f 150//2 151//2 152//2
f 151//2 150//2 153//2
f 154//2 155//2 156//2
f 155//2 154//2 157//2
f 156//2 91//2 158//2
f 91//2 130//2 158//2
f 131//2 130//2 159//2
f 91//2 159//2 130//2
f 93//2 159//2 91//2
f 159//2 93//2 160//2
f 155//2 91//2 156//2
f 152//2 91//2 155//2
f 91//2 152//2 89//2
f 151//2 89//2 152//2
f 161//2 89//2 151//2
f 138//2 89//2 161//2
f 162//2 138//2 137//2
f 162//2 89//2 138//2
f 109//2 89//2 162//2
f 163//2 109//2 108//2
f 4//2 109//2 163//2
f 4//2 163//2 164//2
f 124//2 125//2 164//2
f 4//2 164//2 125//2
f 4//2 125//2 165//2
f 109//2 4//2 89//2
f 98//2 4//2 165//2
f 166//2 167//2 168//2
f 166//2 169//2 167//2
f 170//2 169//2 171//2
f 172//2 169//2 166//2
f 169//2 172//2 171//2
f 127//2 118//2 172//2
f 120//2 172//2 118//2
f 172//2 173//2 171//2
f 173//2 172//2 120//2
f 168//2 167//2 174//2
f 169//2 170//2 175//2
f 117//2 175//2 170//2
f 117//2 176//2 175//2
f 176//2 117//2 116//2
f 84//4 165//4 125//4
f 165//4 84//4 83//4
f 165//3 82//3 98//3
f 82//3 165//3 83//3
f 88//4 97//4 102//4
f 97//4 88//4 87//4
f 104//3 78//3 103//3
f 78//3 104//3 79//3
f 82//6 104//6 98//6
f 104//6 82//6 79//6
f 97//3 86//3 95//3
f 86//3 97//3 87//3
f 96//3 9//3 94//3
f 9//3 96//3 5//3
f 86//6 96//6 95//6
f 96//6 86//6 5//6
f 84//1 126//1 81//1
f 126//1 84//1 125//1
f 15//4 164//4 163//4
f 164//4 15//4 14//4
f 164//3 13//3 124//3
f 13//3 164//3 14//3
f 80//4 126//4 122//4
f 126//4 80//4 81//4
f 123//3 20//3 119//3
f 20//3 123//3 10//3
f 13//6 123//6 124//6
f 123//6 13//6 10//6
f 88//1 99//1 85//1
f 99//1 88//1 102//1
f 71//4 100//4 106//4
f 100//4 71//4 75//4
f 78//6 105//6 103//6
f 105//6 78//6 76//6
f 100//3 74//3 101//3
f 74//3 100//3 75//3
f 74//4 99//4 101//4
f 99//4 74//4 85//4
f 15//1 108//1 11//1
f 108//1 15//1 163//1
f 67//4 109//4 162//4
f 109//4 67//4 69//4
f 109//3 12//3 107//3
f 12//3 109//3 69//3
f 12//4 108//4 107//4
f 108//4 12//4 11//4
f 80//1 121//1 77//1
f 121//1 80//1 122//1
f 72//4 121//4 118//4
f 121//4 72//4 77//4
f 20//6 120//6 119//6
f 120//6 20//6 16//6
f 105//3 71//3 106//3
f 71//3 105//3 76//3
f 73//1 113//1 8//1
f 113//1 73//1 129//1
f 29//4 114//4 127//4
f 114//4 29//4 32//4
f 73//6 128//6 129//6
f 128//6 73//6 70//6
f 114//3 31//3 111//3
f 31//3 114//3 32//3
f 25//4 113//4 110//4
f 113//4 25//4 8//4
f 31//6 112//6 111//6
f 112//6 31//6 27//6
f 6//1 93//1 7//1
f 93//1 6//1 160//1
f 6//6 159//6 160//6
f 159//6 6//6 24//6
f 68//1 116//1 19//1
f 116//1 68//1 176//1
f 21//4 117//4 170//4
f 117//4 21//4 23//4
f 68//6 175//6 176//6
f 175//6 68//6 66//6
f 117//3 17//3 115//3
f 17//3 117//3 23//3
f 17//4 116//4 115//4
f 116//4 17//4 19//4
f 172//3 29//3 127//3
f 29//3 172//3 54//3
f 175//3 65//3 169//3
f 65//3 175//3 66//3
f 18//1 120//1 16//1
f 120//1 18//1 173//1
f 72//1 128//1 70//1
f 128//1 72//1 118//1
f 18//6 171//6 173//6
f 171//6 18//6 22//6
f 52//4 172//4 166//4
f 172//4 52//4 54//4
f 112//3 25//3 110//3
f 25//3 112//3 27//3
f 21//1 171//1 22//1
f 171//1 21//1 170//1
f 65//6 167//6 169//6
f 167//6 65//6 63//6
f 30//1 134//1 28//1
f 134//1 30//1 149//1
f 44//4 135//4 144//4
f 135//4 44//4 43//4
f 30//6 147//6 149//6
f 147//6 30//6 53//6
f 135//3 42//3 133//3
f 42//3 135//3 43//3
f 26//4 134//4 131//4
f 134//4 26//4 28//4
f 132//3 36//3 130//3
f 36//3 132//3 38//3
f 42//6 132//6 133//6
f 132//6 42//6 38//6
f 67//1 137//1 64//1
f 137//1 67//1 162//1
f 58//4 138//4 161//4
f 138//4 58//4 61//4
f 138//3 62//3 136//3
f 62//3 138//3 61//3
f 62//4 137//4 136//4
f 137//4 62//4 64//4
f 168//3 52//3 166//3
f 52//3 168//3 59//3
f 44//1 145//1 41//1
f 145//1 44//1 144//1
f 147//3 56//3 148//3
f 56//3 147//3 53//3
f 56//4 146//4 148//4
f 146//4 56//4 57//4
f 146//3 50//3 143//3
f 50//3 146//3 57//3
f 40//4 145//4 139//4
f 145//4 40//4 41//4
f 142//3 46//3 140//3
f 46//3 142//3 48//3
f 50//6 142//6 143//6
f 142//6 50//6 48//6
f 26//1 159//1 24//1
f 159//1 26//1 131//1
f 36//6 158//6 130//6
f 158//6 36//6 33//6
f 58//1 151//1 55//1
f 151//1 58//1 161//1
f 60//1 167//1 63//1
f 167//1 60//1 174//1
f 60//6 168//6 174//6
f 168//6 60//6 59//6
f 51//1 150//1 49//1
f 150//1 51//1 153//1
f 51//6 151//6 153//6
f 151//6 51//6 55//6
f 47//4 150//4 152//4
f 150//4 47//4 49//4
f 47//1 155//1 45//1
f 155//1 47//1 152//1
f 40//1 141//1 39//1
f 141//1 40//1 139//1
f 46//4 141//4 140//4
f 141//4 46//4 39//4
f 37//1 154//1 34//1
f 154//1 37//1 157//1
f 37//6 155//6 157//6
f 155//6 37//6 45//6
f 35//4 154//4 156//4
f 154//4 35//4 34//4
f 35//1 158//1 33//1
f 158//1 35//1 156//1
