# Blender v2.77 (sub 0) OBJ File: ''
# www.blender.org
mtllib LabyrinthandBallblend.mtl
o Labyrinth
v -15.000000 0.000000 15.000000
v -15.000000 3.000000 -15.000000
v -15.000000 0.000000 -15.000000
v -15.000000 3.000000 15.000000
v -0.365854 1.000000 -14.268300
v -7.682930 1.000000 -11.341500
v -0.365854 1.000000 -11.341500
v -10.609800 1.000000 -11.341500
v -7.682930 1.000000 -10.609800
v -14.268300 1.000000 -14.268300
v -11.341500 1.000000 -11.341500
v -14.268300 1.000000 -7.682930
v -11.341500 1.000000 -7.682930
v 10.609800 1.000000 -3.292680
v 6.951220 1.000000 -0.365853
v 10.609800 1.000000 -0.365853
v 4.024390 1.000000 -0.365853
v 6.951220 1.000000 7.682930
v 4.024390 1.000000 11.341500
v 6.951220 1.000000 10.609800
v -3.292680 1.000000 -3.292680
v -3.292680 1.000000 -0.365853
v 10.609800 1.000000 -10.609800
v 7.682930 1.000000 -7.682930
v 10.609800 1.000000 -6.951220
v 6.951220 1.000000 -7.682930
v 4.024390 1.000000 -10.609800
v 4.024390 1.000000 -6.951220
v 6.951220 1.000000 -4.024390
v -11.341500 1.000000 -4.024390
v -14.268300 1.000000 -6.951220
v -11.341500 1.000000 -3.292680
v -11.341500 1.000000 -0.365853
v -14.268300 1.000000 10.609800
v 10.609800 1.000000 -15.000000
v 7.682930 1.000000 -15.000000
v 10.609800 1.000000 -14.268300
v 11.341500 1.000000 -4.024390
v 11.341500 1.000000 -6.951220
v 7.682930 1.000000 -4.024390
v 14.268300 1.000000 -14.268300
v 11.341500 1.000000 -11.341500
v 7.682930 1.000000 -14.268300
v 3.292680 1.000000 -11.341500
v 0.365853 1.000000 -14.268300
v 0.365853 1.000000 -10.609800
v 3.292680 1.000000 -7.682930
v -10.609800 1.000000 -7.682930
v 14.268300 1.000000 3.292680
v 11.341500 1.000000 0.365854
v 10.609800 1.000000 3.292680
v 7.682930 1.000000 0.365854
v 10.609800 1.000000 4.024390
v 14.268300 1.000000 4.024390
v 11.341500 1.000000 6.951220
v 14.268300 1.000000 10.609800
v 7.682930 1.000000 6.951220
v 11.341500 1.000000 7.682930
v 6.951220 1.000000 11.341500
v 14.268300 1.000000 14.268300
v 14.268300 1.000000 11.341500
v 0.365853 1.000000 14.268300
v 0.365853 1.000000 11.341500
v -4.024390 1.000000 -3.292680
v -6.951220 1.000000 -0.365853
v -4.024390 1.000000 0.365854
v 3.292680 1.000000 0.365854
v 0.365853 1.000000 3.292680
v 3.292680 1.000000 10.609800
v -6.951220 1.000000 3.292680
v 0.365853 1.000000 7.682930
v -0.365854 1.000000 10.609800
v -3.292680 1.000000 7.682930
v -3.292680 1.000000 11.341500
v -0.365854 1.000000 14.268300
v -14.268300 1.000000 14.268300
v -14.268300 1.000000 11.341500
v -10.609800 1.000000 0.365854
v -7.682930 1.000000 4.024390
v -7.682930 1.000000 0.365854
v -10.609800 1.000000 7.682930
v -7.682930 1.000000 6.951220
v -7.682930 1.000000 10.609800
v -11.341500 1.000000 7.682930
v -0.365854 1.000000 4.024390
v -4.024390 1.000000 6.951220
v -0.365854 1.000000 6.951220
v -6.951220 1.000000 6.951220
v -4.024390 1.000000 10.609800
v -6.951220 1.000000 10.609800
v 15.000000 3.000000 15.000000
v 15.000000 0.000000 -15.000000
v 15.000000 3.000000 -15.000000
v 15.000000 0.000000 15.000000
v 10.609800 3.000000 -15.000000
v 7.682930 3.000000 -15.000000
v 0.365853 3.000000 -14.268300
v 7.682930 3.000000 -14.268300
v -0.365854 3.000000 -11.341500
v -0.365854 3.000000 -14.268300
v -14.268300 3.000000 -7.682930
v -14.268300 3.000000 -14.268300
v -14.268300 3.000000 -6.951220
v -14.268300 3.000000 10.609800
v -14.268300 3.000000 11.341500
v 0.365853 3.000000 -10.609800
v -7.682930 3.000000 -10.609800
v -7.682930 3.000000 -11.341500
v -6.951220 3.000000 -0.365853
v -7.682930 3.000000 0.365854
v -6.951220 3.000000 3.292680
v -10.609800 3.000000 0.365854
v -11.341500 3.000000 -0.365853
v -11.341500 3.000000 7.682930
v -10.609800 3.000000 7.682930
v 0.365853 3.000000 3.292680
v -0.365854 3.000000 4.024390
v 0.365853 3.000000 7.682930
v -7.682930 3.000000 4.024390
v -0.365854 3.000000 6.951220
v -3.292680 3.000000 7.682930
v -4.024390 3.000000 6.951220
v -4.024390 3.000000 10.609800
v -3.292680 3.000000 11.341500
v -6.951220 3.000000 10.609800
v -7.682930 3.000000 10.609800
v -7.682930 3.000000 6.951220
v -10.609800 3.000000 -11.341500
v -11.341500 3.000000 -11.341500
v -10.609800 3.000000 -7.682930
v -6.951220 3.000000 6.951220
v 11.341500 3.000000 -11.341500
v 10.609800 3.000000 -10.609800
v 11.341500 3.000000 -6.951220
v 4.024390 3.000000 -10.609800
v 3.292680 3.000000 -11.341500
v 3.292680 3.000000 -7.682930
v 4.024390 3.000000 -6.951220
v -11.341500 3.000000 -7.682930
v 10.609800 3.000000 -6.951220
v 4.024390 3.000000 -0.365853
v 3.292680 3.000000 0.365854
v 4.024390 3.000000 11.341500
v -3.292680 3.000000 -0.365853
v -4.024390 3.000000 0.365854
v -4.024390 3.000000 -3.292680
v 3.292680 3.000000 10.609800
v 0.365853 3.000000 11.341500
v -0.365854 3.000000 14.268300
v -0.365854 3.000000 10.609800
v 7.682930 3.000000 -7.682930
v 6.951220 3.000000 -7.682930
v 7.682930 3.000000 -4.024390
v 6.951220 3.000000 10.609800
v 14.268300 3.000000 11.341500
v 14.268300 3.000000 10.609800
v 6.951220 3.000000 11.341500
v 10.609800 3.000000 3.292680
v 14.268300 3.000000 4.024390
v 14.268300 3.000000 3.292680
v 10.609800 3.000000 4.024390
v 14.268300 3.000000 -14.268300
v 10.609800 3.000000 -14.268300
v 14.268300 3.000000 14.268300
v 0.365853 3.000000 14.268300
v -14.268300 3.000000 14.268300
v 11.341500 3.000000 -4.024390
v 10.609800 3.000000 -3.292680
v 11.341500 3.000000 0.365854
v 6.951220 3.000000 -4.024390
v -3.292680 3.000000 -3.292680
v -11.341500 3.000000 -4.024390
v -11.341500 3.000000 -3.292680
v 10.609800 3.000000 -0.365853
v 7.682930 3.000000 0.365854
v 6.951220 3.000000 -0.365853
v 7.682930 3.000000 6.951220
v 11.341500 3.000000 7.682930
v 11.341500 3.000000 6.951220
v 6.951220 3.000000 7.682930
vn -1.0000 0.0000 0.0000
vn 0.0000 1.0000 0.0000
vn 1.0000 0.0000 0.0000
vn 0.0000 0.0000 -1.0000
vn 0.0000 -1.0000 0.0000
vn 0.0000 0.0000 1.0000
usemtl Woodlabyrinth
s off
f 1//1 2//1 3//1
f 2//1 1//1 4//1
f 5//2 6//2 7//2
f 6//2 8//2 9//2
f 10//2 6//2 5//2
f 6//2 10//2 8//2
f 8//2 10//2 11//2
f 12//2 11//2 10//2
f 11//2 12//2 13//2
f 14//2 15//2 16//2
f 17//2 18//2 15//2
f 19//2 18//2 17//2
f 18//2 19//2 20//2
f 14//2 17//2 15//2
f 21//2 17//2 14//2
f 17//2 21//2 22//2
f 23//2 24//2 25//2
f 23//2 26//2 24//2
f 27//2 26//2 23//2
f 28//2 26//2 27//2
f 26//2 28//2 29//2
f 28//2 30//2 29//2
f 31//2 32//2 30//2
f 32//2 31//2 33//2
f 34//2 33//2 31//2
f 31//2 30//2 28//2
f 35//2 36//2 37//2
f 25//2 38//2 39//2
f 40//2 25//2 24//2
f 25//2 40//2 38//2
f 39//2 41//2 42//2
f 37//2 42//2 41//2
f 43//2 37//2 36//2
f 37//2 43//2 42//2
f 43//2 44//2 42//2
f 45//2 44//2 43//2
f 46//2 44//2 45//2
f 44//2 46//2 47//2
f 9//2 47//2 46//2
f 48//2 9//2 8//2
f 9//2 48//2 47//2
f 41//2 39//2 49//2
f 38//2 49//2 39//2
f 50//2 49//2 38//2
f 50//2 51//2 49//2
f 51//2 52//2 53//2
f 52//2 51//2 50//2
f 54//2 55//2 56//2
f 53//2 55//2 54//2
f 57//2 53//2 52//2
f 53//2 57//2 55//2
f 58//2 56//2 55//2
f 20//2 58//2 18//2
f 58//2 20//2 56//2
f 59//2 60//2 61//2
f 20//2 19//2 59//2
f 62//2 59//2 19//2
f 62//2 19//2 63//2
f 59//2 62//2 60//2
f 64//2 65//2 66//2
f 32//2 65//2 64//2
f 65//2 32//2 33//2
f 67//2 68//2 69//2
f 66//2 68//2 67//2
f 70//2 66//2 65//2
f 66//2 70//2 68//2
f 71//2 69//2 68//2
f 71//2 72//2 69//2
f 73//2 72//2 71//2
f 74//2 72//2 73//2
f 72//2 74//2 75//2
f 76//2 74//2 77//2
f 74//2 76//2 75//2
f 78//2 79//2 80//2
f 81//2 79//2 78//2
f 79//2 81//2 82//2
f 82//2 81//2 83//2
f 84//2 83//2 81//2
f 84//2 34//2 83//2
f 33//2 34//2 84//2
f 85//2 86//2 87//2
f 86//2 88//2 89//2
f 79//2 86//2 85//2
f 86//2 79//2 88//2
f 88//2 79//2 82//2
f 89//2 88//2 90//2
f 91//3 92//3 93//3
f 92//3 91//3 94//3
f 93//4 35//4 95//4
f 35//4 92//4 36//4
f 92//4 35//4 93//4
f 36//4 2//4 96//4
f 3//4 36//4 92//4
f 36//4 3//4 2//4
f 1//5 92//5 94//5
f 92//5 1//5 3//5
f 1//6 91//6 4//6
f 91//6 1//6 94//6
f 96//2 97//2 98//2
f 99//2 97//2 100//2
f 96//2 100//2 97//2
f 2//2 100//2 96//2
f 2//2 101//2 102//2
f 101//2 2//2 103//2
f 4//2 103//2 2//2
f 103//2 4//2 104//2
f 104//2 4//2 105//2
f 100//2 2//2 102//2
f 97//2 99//2 106//2
f 107//2 99//2 108//2
f 99//2 107//2 106//2
f 109//2 110//2 111//2
f 109//2 112//2 110//2
f 113//2 112//2 109//2
f 114//2 112//2 113//2
f 112//2 114//2 115//2
f 116//2 117//2 118//2
f 111//2 117//2 116//2
f 111//2 119//2 117//2
f 119//2 111//2 110//2
f 120//2 118//2 117//2
f 120//2 121//2 118//2
f 122//2 121//2 120//2
f 123//2 121//2 122//2
f 121//2 123//2 124//2
f 125//2 124//2 123//2
f 126//2 125//2 127//2
f 126//2 124//2 125//2
f 105//2 126//2 104//2
f 126//2 105//2 124//2
f 128//2 129//2 130//2
f 131//2 127//2 125//2
f 132//2 133//2 134//2
f 132//2 135//2 133//2
f 136//2 135//2 132//2
f 137//2 135//2 136//2
f 135//2 137//2 138//2
f 130//2 138//2 137//2
f 139//2 130//2 129//2
f 103//2 130//2 139//2
f 103//2 139//2 101//2
f 130//2 103//2 138//2
f 134//2 133//2 140//2
f 141//2 142//2 143//2
f 144//2 142//2 141//2
f 144//2 145//2 142//2
f 145//2 144//2 146//2
f 147//2 143//2 142//2
f 147//2 148//2 143//2
f 149//2 148//2 150//2
f 150//2 148//2 147//2
f 151//2 152//2 153//2
f 154//2 155//2 156//2
f 155//2 154//2 157//2
f 158//2 159//2 160//2
f 159//2 158//2 161//2
f 160//2 93//2 162//2
f 95//2 162//2 93//2
f 162//2 95//2 163//2
f 93//2 160//2 91//2
f 159//2 91//2 160//2
f 156//2 91//2 159//2
f 155//2 91//2 156//2
f 164//2 91//2 155//2
f 165//2 91//2 164//2
f 148//2 149//2 165//2
f 149//2 91//2 165//2
f 4//2 149//2 166//2
f 149//2 4//2 91//2
f 105//2 4//2 166//2
f 167//2 168//2 169//2
f 153//2 168//2 167//2
f 170//2 153//2 152//2
f 170//2 168//2 153//2
f 170//2 171//2 168//2
f 171//2 146//2 144//2
f 172//2 171//2 170//2
f 171//2 172//2 146//2
f 146//2 172//2 173//2
f 174//2 169//2 168//2
f 174//2 175//2 169//2
f 175//2 176//2 177//2
f 176//2 175//2 174//2
f 177//2 178//2 179//2
f 177//2 180//2 178//2
f 180//2 177//2 176//2
f 75//4 166//4 149//4
f 166//4 75//4 76//4
f 166//3 77//3 105//3
f 77//3 166//3 76//3
f 83//4 104//4 126//4
f 104//4 83//4 34//4
f 77//6 124//6 105//6
f 124//6 77//6 74//6
f 104//3 31//3 103//3
f 31//3 104//3 34//3
f 13//4 101//4 139//4
f 101//4 13//4 12//4
f 31//6 138//6 103//6
f 138//6 31//6 28//6
f 101//3 10//3 102//3
f 10//3 101//3 12//3
f 10//6 100//6 102//6
f 100//6 10//6 5//6
f 84//1 113//1 33//1
f 113//1 84//1 114//1
f 115//3 78//3 112//3
f 78//3 115//3 81//3
f 84//6 115//6 114//6
f 115//6 84//6 81//6
f 65//4 113//4 109//4
f 113//4 65//4 33//4
f 111//3 65//3 109//3
f 65//3 111//3 70//3
f 78//6 110//6 112//6
f 110//6 78//6 80//6
f 32//1 172//1 30//1
f 172//1 32//1 173//1
f 32//6 146//6 173//6
f 146//6 32//6 64//6
f 29//4 172//4 170//4
f 172//4 29//4 30//4
f 13//1 129//1 11//1
f 129//1 13//1 139//1
f 47//4 130//4 137//4
f 130//4 47//4 48//4
f 130//3 8//3 128//3
f 8//3 130//3 48//3
f 8//4 129//4 128//4
f 129//4 8//4 11//4
f 83//1 127//1 82//1
f 127//1 83//1 126//1
f 124//3 73//3 121//3
f 73//3 124//3 74//3
f 89//4 125//4 123//4
f 125//4 89//4 90//4
f 125//3 88//3 131//3
f 88//3 125//3 90//3
f 88//4 127//4 131//4
f 127//4 88//4 82//4
f 79//1 110//1 80//1
f 110//1 79//1 119//1
f 68//4 111//4 116//4
f 111//4 68//4 70//4
f 79//6 117//6 119//6
f 117//6 79//6 85//6
f 9//1 108//1 6//1
f 108//1 9//1 107//1
f 9//6 106//6 107//6
f 106//6 9//6 46//6
f 7//4 108//4 99//4
f 108//4 7//4 6//4
f 89//1 122//1 86//1
f 122//1 89//1 123//1
f 87//4 122//4 120//4
f 122//4 87//4 86//4
f 118//3 68//3 116//3
f 68//3 118//3 71//3
f 73//6 118//6 121//6
f 118//6 73//6 71//6
f 66//1 146//1 64//1
f 146//1 66//1 145//1
f 66//6 142//6 145//6
f 142//6 66//6 67//6
f 17//4 144//4 141//4
f 144//4 17//4 22//4
f 144//3 21//3 171//3
f 21//3 144//3 22//3
f 21//6 168//6 171//6
f 168//6 21//6 14//6
f 106//3 45//3 97//3
f 45//3 106//3 46//3
f 75//1 150//1 72//1
f 150//1 75//1 149//1
f 60//4 165//4 164//4
f 165//4 60//4 62//4
f 165//3 63//3 148//3
f 63//3 165//3 62//3
f 69//4 150//4 147//4
f 150//4 69//4 72//4
f 143//3 17//3 141//3
f 17//3 143//3 19//3
f 63//6 143//6 148//6
f 143//6 63//6 19//6
f 87//1 117//1 85//1
f 117//1 87//1 120//1
f 138//3 27//3 135//3
f 27//3 138//3 28//3
f 7//1 100//1 5//1
f 100//1 7//1 99//1
f 45//6 98//6 97//6
f 98//6 45//6 43//6
f 69//1 142//1 67//1
f 142//1 69//1 147//1
f 47//1 136//1 44//1
f 136//1 47//1 137//1
f 42//4 136//4 132//4
f 136//4 42//4 44//4
f 27//6 133//6 135//6
f 133//6 27//6 23//6
f 98//3 36//3 96//3
f 36//3 98//3 43//3
f 59//1 154//1 20//1
f 154//1 59//1 157//1
f 59//6 155//6 157//6
f 155//6 59//6 61//6
f 56//4 154//4 156//4
f 154//4 56//4 20//4
f 18//1 176//1 15//1
f 176//1 18//1 180//1
f 178//3 55//3 179//3
f 55//3 178//3 58//3
f 18//6 178//6 180//6
f 178//6 18//6 58//6
f 55//4 177//4 179//4
f 177//4 55//4 57//4
f 177//3 52//3 175//3
f 52//3 177//3 57//3
f 16//4 176//4 174//4
f 176//4 16//4 15//4
f 169//3 38//3 167//3
f 38//3 169//3 50//3
f 52//6 169//6 175//6
f 169//6 52//6 50//6
f 29//1 152//1 26//1
f 152//1 29//1 170//1
f 38//4 153//4 167//4
f 153//4 38//4 40//4
f 153//3 24//3 151//3
f 24//3 153//3 40//3
f 24//4 152//4 151//4
f 152//4 24//4 26//4
f 134//3 42//3 132//3
f 42//3 134//3 39//3
f 60//1 155//1 61//1
f 155//1 60//1 164//1
f 56//1 159//1 54//1
f 159//1 56//1 156//1
f 49//1 162//1 41//1
f 162//1 49//1 160//1
f 53//1 158//1 51//1
f 158//1 53//1 161//1
f 53//6 159//6 161//6
f 159//6 53//6 54//6
f 49//4 158//4 160//4
f 158//4 49//4 51//4
f 16//1 168//1 14//1
f 168//1 16//1 174//1
f 25//1 133//1 23//1
f 133//1 25//1 140//1
f 25//6 134//6 140//6
f 134//6 25//6 39//6
f 37//1 95//1 35//1
f 95//1 37//1 163//1
f 37//6 162//6 163//6
f 162//6 37//6 41//6
