# Blender v2.77 (sub 0) OBJ File: ''
# www.blender.org
mtllib LabyrinthandBallblend.mtl
o aLabyrinth
v -15.000000 0.000000 15.000000
v -15.000000 3.000000 -15.000000
v -15.000000 0.000000 -15.000000
v -15.000000 3.000000 15.000000
v -4.024390 1.000000 -14.268300
v -6.951220 1.000000 -11.341500
v -4.024390 1.000000 -10.609800
v -7.682930 1.000000 -11.341500
v -10.609800 1.000000 -3.292680
v -10.609800 1.000000 -11.341500
v -14.268300 1.000000 -14.268300
v -11.341500 1.000000 -11.341500
v -14.268300 1.000000 -4.024390
v -11.341500 1.000000 -4.024390
v 3.292680 1.000000 -10.609800
v 0.365853 1.000000 -7.682930
v 3.292680 1.000000 -4.024390
v -6.951220 1.000000 -7.682930
v 0.365853 1.000000 -6.951220
v -0.365854 1.000000 -4.024390
v -3.292680 1.000000 -3.292680
v -3.292680 1.000000 -6.951220
v -7.682930 1.000000 -0.365853
v -11.341500 1.000000 -0.365853
v -14.268300 1.000000 -3.292680
v -11.341500 1.000000 7.682930
v -4.024390 1.000000 -6.951220
v -6.951220 1.000000 -6.951220
v -4.024390 1.000000 -3.292680
v -0.365854 1.000000 7.682930
v -3.292680 1.000000 10.609800
v -0.365854 1.000000 11.341500
v -4.024390 1.000000 10.609800
v -6.951220 1.000000 7.682930
v -6.951220 1.000000 11.341500
v -4.024390 1.000000 14.268300
v -14.268300 1.000000 14.268300
v -14.268300 1.000000 11.341500
v 6.951220 1.000000 7.682930
v 4.024390 1.000000 10.609800
v 6.951220 1.000000 11.341500
v 3.292680 1.000000 10.609800
v 0.365853 1.000000 7.682930
v 0.365853 1.000000 11.341500
v 3.292680 1.000000 14.268300
v -3.292680 1.000000 14.268300
v 6.951220 1.000000 0.365854
v 4.024390 1.000000 3.292680
v 6.951220 1.000000 4.024390
v -7.682930 1.000000 3.292680
v -10.609800 1.000000 0.365854
v -7.682930 1.000000 4.024390
v -10.609800 1.000000 7.682930
v -7.682930 1.000000 6.951220
v -7.682930 1.000000 10.609800
v -14.268300 1.000000 10.609800
v 7.682930 1.000000 -6.951220
v 10.609800 1.000000 -3.292680
v 10.609800 1.000000 -6.951220
v 10.609800 1.000000 -0.365853
v 7.682930 1.000000 3.292680
v 11.341500 1.000000 -10.609800
v 6.951220 1.000000 -7.682930
v 11.341500 1.000000 -7.682930
v 4.024390 1.000000 -10.609800
v 4.024390 1.000000 -3.292680
v 6.951220 1.000000 -0.365853
v -0.365854 1.000000 -3.292680
v -6.951220 1.000000 -0.365853
v -3.292680 1.000000 -14.268300
v 11.341500 1.000000 -11.341500
v 11.341500 1.000000 -14.268300
v -3.292680 1.000000 -11.341500
v 14.268300 1.000000 -15.000000
v 11.341500 1.000000 -15.000000
v 14.268300 1.000000 -0.365853
v 11.341500 1.000000 -3.292680
v 14.268300 1.000000 0.365854
v 11.341500 1.000000 3.292680
v 14.268300 1.000000 14.268300
v 10.609800 1.000000 0.365854
v 11.341500 1.000000 14.268300
v 10.609800 1.000000 4.024390
v 7.682930 1.000000 6.951220
v 10.609800 1.000000 14.268300
v 4.024390 1.000000 6.951220
v 7.682930 1.000000 11.341500
v 4.024390 1.000000 14.268300
v 3.292680 1.000000 6.951220
v 3.292680 1.000000 4.024390
v 15.000000 3.000000 15.000000
v 15.000000 0.000000 -15.000000
v 15.000000 3.000000 -15.000000
v 15.000000 0.000000 15.000000
v 14.268300 3.000000 -15.000000
v 11.341500 3.000000 -15.000000
v -3.292680 3.000000 -14.268300
v 11.341500 3.000000 -14.268300
v -4.024390 3.000000 -14.268300
v -3.292680 3.000000 -11.341500
v -14.268300 3.000000 -4.024390
v -14.268300 3.000000 -14.268300
v -14.268300 3.000000 -3.292680
v -14.268300 3.000000 10.609800
v -14.268300 3.000000 11.341500
v 11.341500 3.000000 -7.682930
v 10.609800 3.000000 -6.951220
v 11.341500 3.000000 -3.292680
v 7.682930 3.000000 -6.951220
v 6.951220 3.000000 -0.365853
v 6.951220 3.000000 -7.682930
v 10.609800 3.000000 -3.292680
v 11.341500 3.000000 3.292680
v 10.609800 3.000000 4.024390
v 11.341500 3.000000 14.268300
v 7.682930 3.000000 3.292680
v 6.951220 3.000000 0.365854
v 6.951220 3.000000 4.024390
v 10.609800 3.000000 -0.365853
v 14.268300 3.000000 0.365854
v 14.268300 3.000000 -0.365853
v 10.609800 3.000000 0.365854
v 14.268300 3.000000 14.268300
v 10.609800 3.000000 14.268300
v 4.024390 3.000000 14.268300
v 3.292680 3.000000 14.268300
v 3.292680 3.000000 10.609800
v -3.292680 3.000000 14.268300
v -4.024390 3.000000 14.268300
v -4.024390 3.000000 10.609800
v -14.268300 3.000000 14.268300
v 11.341500 3.000000 -11.341500
v 4.024390 3.000000 -10.609800
v 11.341500 3.000000 -10.609800
v 3.292680 3.000000 -4.024390
v 3.292680 3.000000 -10.609800
v -4.024390 3.000000 -10.609800
v 4.024390 3.000000 -3.292680
v -0.365854 3.000000 -3.292680
v -0.365854 3.000000 -4.024390
v -11.341500 3.000000 -4.024390
v -10.609800 3.000000 -11.341500
v -11.341500 3.000000 -11.341500
v -10.609800 3.000000 -3.292680
v 4.024390 3.000000 3.292680
v 3.292680 3.000000 4.024390
v 4.024390 3.000000 6.951220
v -7.682930 3.000000 3.292680
v -7.682930 3.000000 4.024390
v 7.682930 3.000000 6.951220
v 6.951220 3.000000 7.682930
v 7.682930 3.000000 11.341500
v 3.292680 3.000000 6.951220
v 0.365853 3.000000 7.682930
v -0.365854 3.000000 7.682930
v 0.365853 3.000000 11.341500
v -7.682930 3.000000 6.951220
v -6.951220 3.000000 7.682930
v -7.682930 3.000000 10.609800
v -6.951220 3.000000 11.341500
v 6.951220 3.000000 11.341500
v -0.365854 3.000000 11.341500
v -7.682930 3.000000 -11.341500
v -6.951220 3.000000 -7.682930
v -6.951220 3.000000 -11.341500
v -6.951220 3.000000 -6.951220
v -7.682930 3.000000 -0.365853
v 0.365853 3.000000 -7.682930
v -3.292680 3.000000 -6.951220
v 0.365853 3.000000 -6.951220
v -4.024390 3.000000 -6.951220
v -3.292680 3.000000 -3.292680
v -4.024390 3.000000 -3.292680
v -3.292680 3.000000 10.609800
v 4.024390 3.000000 10.609800
v -6.951220 3.000000 -0.365853
v -10.609800 3.000000 0.365854
v -11.341500 3.000000 -0.365853
v -11.341500 3.000000 7.682930
v -10.609800 3.000000 7.682930
vn -1.0000 0.0000 0.0000
vn 0.0000 1.0000 0.0000
vn 1.0000 0.0000 0.0000
vn 0.0000 0.0000 -1.0000
vn 0.0000 -1.0000 0.0000
vn 0.0000 0.0000 1.0000
usemtl Woodlabyrinth
s off
f 1//1 2//1 3//1
f 2//1 1//1 4//1
f 5//2 6//2 7//2
f 5//2 8//2 6//2
f 9//2 8//2 10//2
f 5//2 10//2 8//2
f 11//2 10//2 5//2
f 10//2 11//2 12//2
f 13//2 12//2 11//2
f 12//2 13//2 14//2
f 15//2 16//2 17//2
f 7//2 16//2 15//2
f 18//2 7//2 6//2
f 7//2 18//2 16//2
f 19//2 17//2 16//2
f 19//2 20//2 17//2
f 21//2 20//2 22//2
f 22//2 20//2 19//2
f 8//2 9//2 23//2
f 9//2 24//2 23//2
f 24//2 25//2 26//2
f 25//2 24//2 9//2
f 27//2 28//2 29//2
f 30//2 31//2 32//2
f 30//2 33//2 31//2
f 34//2 33//2 30//2
f 35//2 33//2 34//2
f 33//2 35//2 36//2
f 37//2 35//2 38//2
f 35//2 37//2 36//2
f 39//2 40//2 41//2
f 39//2 42//2 40//2
f 43//2 42//2 39//2
f 44//2 42//2 43//2
f 42//2 44//2 45//2
f 32//2 45//2 44//2
f 46//2 32//2 31//2
f 32//2 46//2 45//2
f 47//2 48//2 49//2
f 47//2 50//2 48//2
f 51//2 52//2 50//2
f 52//2 53//2 54//2
f 51//2 50//2 47//2
f 52//2 51//2 53//2
f 54//2 53//2 55//2
f 26//2 55//2 53//2
f 26//2 56//2 55//2
f 56//2 26//2 25//2
f 57//2 58//2 59//2
f 58//2 57//2 60//2
f 61//2 60//2 57//2
f 62//2 63//2 64//2
f 65//2 63//2 62//2
f 66//2 63//2 65//2
f 63//2 66//2 67//2
f 68//2 67//2 66//2
f 20//2 21//2 68//2
f 69//2 68//2 21//2
f 69//2 21//2 29//2
f 68//2 69//2 67//2
f 69//2 29//2 28//2
f 70//2 71//2 72//2
f 71//2 70//2 73//2
f 72//2 74//2 75//2
f 71//2 74//2 72//2
f 62//2 74//2 71//2
f 64//2 74//2 62//2
f 74//2 64//2 76//2
f 77//2 76//2 64//2
f 60//2 77//2 58//2
f 77//2 60//2 76//2
f 78//2 79//2 80//2
f 81//2 79//2 78//2
f 60//2 61//2 81//2
f 81//2 61//2 79//2
f 80//2 79//2 82//2
f 83//2 84//2 85//2
f 49//2 84//2 83//2
f 86//2 49//2 48//2
f 49//2 86//2 84//2
f 87//2 85//2 84//2
f 41//2 85//2 87//2
f 88//2 41//2 40//2
f 41//2 88//2 85//2
f 52//2 89//2 90//2
f 89//2 52//2 54//2
f 91//3 92//3 93//3
f 92//3 91//3 94//3
f 93//4 74//4 95//4
f 74//4 92//4 75//4
f 92//4 74//4 93//4
f 75//4 2//4 96//4
f 3//4 75//4 92//4
f 75//4 3//4 2//4
f 1//5 92//5 94//5
f 92//5 1//5 3//5
f 1//6 91//6 4//6
f 91//6 1//6 94//6
f 96//2 97//2 98//2
f 97//2 99//2 100//2
f 2//2 97//2 96//2
f 97//2 2//2 99//2
f 2//2 101//2 102//2
f 101//2 2//2 103//2
f 4//2 103//2 2//2
f 103//2 4//2 104//2
f 104//2 4//2 105//2
f 99//2 2//2 102//2
f 106//2 107//2 108//2
f 106//2 109//2 107//2
f 110//2 109//2 111//2
f 111//2 109//2 106//2
f 108//2 107//2 112//2
f 113//2 114//2 115//2
f 116//2 114//2 113//2
f 109//2 110//2 116//2
f 117//2 116//2 110//2
f 116//2 118//2 114//2
f 118//2 116//2 117//2
f 119//2 120//2 121//2
f 120//2 119//2 122//2
f 121//2 93//2 95//2
f 93//2 121//2 91//2
f 120//2 91//2 121//2
f 123//2 91//2 120//2
f 115//2 91//2 123//2
f 124//2 115//2 114//2
f 124//2 91//2 115//2
f 125//2 91//2 124//2
f 126//2 125//2 127//2
f 126//2 91//2 125//2
f 128//2 91//2 126//2
f 129//2 128//2 130//2
f 4//2 128//2 129//2
f 4//2 129//2 131//2
f 128//2 4//2 91//2
f 105//2 4//2 131//2
f 132//2 133//2 134//2
f 135//2 133//2 136//2
f 100//2 133//2 132//2
f 133//2 100//2 136//2
f 100//2 137//2 136//2
f 137//2 100//2 99//2
f 133//2 135//2 138//2
f 139//2 135//2 140//2
f 135//2 139//2 138//2
f 141//2 142//2 143//2
f 142//2 141//2 144//2
f 103//2 141//2 101//2
f 141//2 103//2 144//2
f 145//2 146//2 147//2
f 148//2 146//2 145//2
f 146//2 148//2 149//2
f 150//2 151//2 152//2
f 147//2 151//2 150//2
f 153//2 147//2 146//2
f 153//2 151//2 147//2
f 153//2 154//2 151//2
f 154//2 155//2 156//2
f 153//2 155//2 154//2
f 157//2 155//2 153//2
f 155//2 157//2 158//2
f 159//2 158//2 157//2
f 158//2 159//2 160//2
f 105//2 159//2 104//2
f 159//2 105//2 160//2
f 152//2 151//2 161//2
f 156//2 155//2 162//2
f 163//2 164//2 165//2
f 164//2 163//2 166//2
f 167//2 166//2 163//2
f 168//2 169//2 170//2
f 169//2 171//2 172//2
f 164//2 169//2 168//2
f 169//2 164//2 171//2
f 171//2 164//2 166//2
f 172//2 171//2 173//2
f 174//2 130//2 128//2
f 175//2 127//2 125//2
f 176//2 117//2 110//2
f 166//2 167//2 176//2
f 177//2 176//2 167//2
f 176//2 177//2 117//2
f 178//2 177//2 167//2
f 179//2 177//2 178//2
f 177//2 179//2 180//2
f 45//4 128//4 126//4
f 128//4 45//4 46//4
f 36//4 131//4 129//4
f 131//4 36//4 37//4
f 131//3 38//3 105//3
f 38//3 131//3 37//3
f 55//4 104//4 159//4
f 104//4 55//4 56//4
f 38//6 160//6 105//6
f 160//6 38//6 35//6
f 104//3 25//3 103//3
f 25//3 104//3 56//3
f 144//3 10//3 142//3
f 10//3 144//3 9//3
f 14//4 101//4 141//4
f 101//4 14//4 13//4
f 25//6 144//6 103//6
f 144//6 25//6 9//6
f 101//3 11//3 102//3
f 11//3 101//3 13//3
f 11//6 99//6 102//6
f 99//6 11//6 5//6
f 160//3 34//3 158//3
f 34//3 160//3 35//3
f 26//1 178//1 24//1
f 178//1 26//1 179//1
f 180//3 51//3 177//3
f 51//3 180//3 53//3
f 26//6 180//6 179//6
f 180//6 26//6 53//6
f 23//4 178//4 167//4
f 178//4 23//4 24//4
f 51//6 117//6 177//6
f 117//6 51//6 47//6
f 14//1 143//1 12//1
f 143//1 14//1 141//1
f 10//4 143//4 142//4
f 143//4 10//4 12//4
f 55//1 157//1 54//1
f 157//1 55//1 159//1
f 89//4 157//4 153//4
f 157//4 89//4 54//4
f 34//6 155//6 158//6
f 155//6 34//6 30//6
f 52//1 148//1 50//1
f 148//1 52//1 149//1
f 48//4 148//4 145//4
f 148//4 48//4 50//4
f 52//6 146//6 149//6
f 146//6 52//6 90//6
f 23//1 163//1 8//1
f 163//1 23//1 167//1
f 67//4 176//4 110//4
f 176//4 67//4 69//4
f 176//3 28//3 166//3
f 28//3 176//3 69//3
f 28//6 171//6 166//6
f 171//6 28//6 27//6
f 16//4 164//4 168//4
f 164//4 16//4 18//4
f 164//3 6//3 165//3
f 6//3 164//3 18//3
f 6//4 163//4 165//4
f 163//4 6//4 8//4
f 36//1 130//1 33//1
f 130//1 36//1 129//1
f 128//3 31//3 174//3
f 31//3 128//3 46//3
f 31//4 130//4 174//4
f 130//4 31//4 33//4
f 29//1 171//1 27//1
f 171//1 29//1 173//1
f 172//3 22//3 169//3
f 22//3 172//3 21//3
f 29//6 172//6 173//6
f 172//6 29//6 21//6
f 170//3 16//3 168//3
f 16//3 170//3 19//3
f 22//6 170//6 169//6
f 170//6 22//6 19//6
f 7//1 99//1 5//1
f 99//1 7//1 137//1
f 71//4 100//4 132//4
f 100//4 71//4 73//4
f 7//6 136//6 137//6
f 136//6 7//6 15//6
f 100//3 70//3 97//3
f 70//3 100//3 73//3
f 70//6 98//6 97//6
f 98//6 70//6 72//6
f 32//1 155//1 30//1
f 155//1 32//1 162//1
f 156//3 43//3 154//3
f 43//3 156//3 44//3
f 32//6 156//6 162//6
f 156//6 32//6 44//6
f 43//6 151//6 154//6
f 151//6 43//6 39//6
f 147//3 48//3 145//3
f 48//3 147//3 86//3
f 68//1 140//1 20//1
f 140//1 68//1 139//1
f 138//3 65//3 133//3
f 65//3 138//3 66//3
f 68//6 138//6 139//6
f 138//6 68//6 66//6
f 17//4 140//4 135//4
f 140//4 17//4 20//4
f 45//1 127//1 42//1
f 127//1 45//1 126//1
f 85//4 125//4 124//4
f 125//4 85//4 88//4
f 125//3 40//3 175//3
f 40//3 125//3 88//3
f 40//4 127//4 175//4
f 127//4 40//4 42//4
f 89//1 146//1 90//1
f 146//1 89//1 153//1
f 152//3 84//3 150//3
f 84//3 152//3 87//3
f 84//4 147//4 150//4
f 147//4 84//4 86//4
f 116//3 57//3 109//3
f 57//3 116//3 61//3
f 17//1 136//1 15//1
f 136//1 17//1 135//1
f 65//6 134//6 133//6
f 134//6 65//6 62//6
f 41//1 151//1 39//1
f 151//1 41//1 161//1
f 41//6 152//6 161//6
f 152//6 41//6 87//6
f 67//1 111//1 63//1
f 111//1 67//1 110//1
f 49//1 117//1 47//1
f 117//1 49//1 118//1
f 115//3 79//3 113//3
f 79//3 115//3 82//3
f 79//4 116//4 113//4
f 116//4 79//4 61//4
f 49//6 114//6 118//6
f 114//6 49//6 83//6
f 64//4 111//4 106//4
f 111//4 64//4 63//4
f 108//3 64//3 106//3
f 64//3 108//3 77//3
f 57//6 107//6 109//6
f 107//6 57//6 59//6
f 134//3 71//3 132//3
f 71//3 134//3 62//3
f 98//3 75//3 96//3
f 75//3 98//3 72//3
f 85//1 114//1 83//1
f 114//1 85//1 124//1
f 80//4 115//4 123//4
f 115//4 80//4 82//4
f 80//1 120//1 78//1
f 120//1 80//1 123//1
f 81//1 119//1 60//1
f 119//1 81//1 122//1
f 76//4 119//4 121//4
f 119//4 76//4 60//4
f 81//6 120//6 122//6
f 120//6 81//6 78//6
f 76//1 95//1 74//1
f 95//1 76//1 121//1
f 58//1 107//1 59//1
f 107//1 58//1 112//1
f 58//6 108//6 112//6
f 108//6 58//6 77//6
