# Blender v2.77 (sub 0) OBJ File: ''
# www.blender.org
mtllib LabyrinthandBallblend.mtl
o aLabyrinth
v -15.000000 0.000000 15.000000
v -15.000000 3.000000 -15.000000
v -15.000000 0.000000 -15.000000
v -15.000000 3.000000 15.000000
v -7.682930 1.000000 -14.268300
v -10.609800 1.000000 -11.341500
v -7.682930 1.000000 -10.609800
v -11.341500 1.000000 -11.341500
v -14.268300 1.000000 -14.268300
v -14.268300 1.000000 -0.365853
v -11.341500 1.000000 -0.365853
v -0.365854 1.000000 7.682930
v -3.292680 1.000000 10.609800
v -0.365854 1.000000 11.341500
v -4.024390 1.000000 10.609800
v -6.951220 1.000000 7.682930
v -6.951220 1.000000 14.268300
v -4.024390 1.000000 14.268300
v -3.292680 1.000000 -11.341500
v -0.365854 1.000000 -10.609800
v -0.365854 1.000000 -14.268300
v -0.365854 1.000000 -7.682930
v -3.292680 1.000000 -4.024390
v -4.024390 1.000000 -11.341500
v -6.951220 1.000000 -14.268300
v -6.951220 1.000000 -10.609800
v -4.024390 1.000000 -7.682930
v -10.609800 1.000000 -7.682930
v 3.292680 1.000000 4.024390
v 0.365853 1.000000 6.951220
v 3.292680 1.000000 11.341500
v -4.024390 1.000000 4.024390
v -4.024390 1.000000 3.292680
v -6.951220 1.000000 4.024390
v -10.609800 1.000000 6.951220
v -10.609800 1.000000 4.024390
v 4.024390 1.000000 -14.268300
v 3.292680 1.000000 -11.341500
v 4.024390 1.000000 -11.341500
v 0.365853 1.000000 -14.268300
v 0.365853 1.000000 -10.609800
v 3.292680 1.000000 -7.682930
v 3.292680 1.000000 -6.951220
v 0.365853 1.000000 -4.024390
v 3.292680 1.000000 0.365854
v -0.365854 1.000000 -6.951220
v 10.609800 1.000000 3.292680
v 10.609800 1.000000 0.365854
v 0.365853 1.000000 3.292680
v -4.024390 1.000000 -6.951220
v -6.951220 1.000000 -4.024390
v -4.024390 1.000000 -3.292680
v -7.682930 1.000000 -4.024390
v -10.609800 1.000000 -6.951220
v -10.609800 1.000000 0.365854
v -7.682930 1.000000 3.292680
v -11.341500 1.000000 3.292680
v -14.268300 1.000000 0.365854
v -11.341500 1.000000 7.682930
v 6.951220 1.000000 -14.268300
v 6.951220 1.000000 -15.000000
v 6.951220 1.000000 -11.341500
v 4.024390 1.000000 -15.000000
v 10.609800 1.000000 -14.268300
v 7.682930 1.000000 -11.341500
v 10.609800 1.000000 -10.609800
v 11.341500 1.000000 -7.682930
v 11.341500 1.000000 -10.609800
v 7.682930 1.000000 -7.682930
v 14.268300 1.000000 -14.268300
v 11.341500 1.000000 -14.268300
v 14.268300 1.000000 -4.024390
v 11.341500 1.000000 -6.951220
v 7.682930 1.000000 -4.024390
v 7.682930 1.000000 -6.951220
v 11.341500 1.000000 4.024390
v 6.951220 1.000000 6.951220
v 11.341500 1.000000 6.951220
v 4.024390 1.000000 4.024390
v 4.024390 1.000000 11.341500
v 6.951220 1.000000 14.268300
v 0.365853 1.000000 11.341500
v -3.292680 1.000000 14.268300
v 14.268300 1.000000 -3.292680
v 11.341500 1.000000 -0.365853
v 6.951220 1.000000 -3.292680
v 4.024390 1.000000 -0.365853
v 14.268300 1.000000 10.609800
v 11.341500 1.000000 7.682930
v 10.609800 1.000000 10.609800
v 7.682930 1.000000 7.682930
v 10.609800 1.000000 11.341500
v 14.268300 1.000000 14.268300
v 14.268300 1.000000 11.341500
v 7.682930 1.000000 14.268300
v -0.365854 1.000000 -3.292680
v -3.292680 1.000000 -0.365853
v -0.365854 1.000000 3.292680
v -6.951220 1.000000 -0.365853
v -3.292680 1.000000 0.365854
v -6.951220 1.000000 0.365854
v -7.682930 1.000000 7.682930
v -10.609800 1.000000 10.609800
v -7.682930 1.000000 14.268300
v -14.268300 1.000000 10.609800
v -10.609800 1.000000 11.341500
v -14.268300 1.000000 14.268300
v -14.268300 1.000000 11.341500
v 15.000000 3.000000 15.000000
v 15.000000 0.000000 -15.000000
v 15.000000 3.000000 -15.000000
v 15.000000 0.000000 15.000000
v 6.951220 3.000000 -15.000000
v 4.024390 3.000000 -15.000000
v 0.365853 3.000000 -14.268300
v 4.024390 3.000000 -14.268300
v -0.365854 3.000000 -14.268300
v 0.365853 3.000000 -10.609800
v -6.951220 3.000000 -14.268300
v -7.682930 3.000000 -14.268300
v -6.951220 3.000000 -10.609800
v -14.268300 3.000000 -0.365853
v -14.268300 3.000000 -14.268300
v -14.268300 3.000000 0.365854
v -14.268300 3.000000 10.609800
v -14.268300 3.000000 11.341500
v -0.365854 3.000000 -10.609800
v -7.682930 3.000000 -10.609800
v -11.341500 3.000000 -11.341500
v -10.609800 3.000000 -7.682930
v -10.609800 3.000000 -11.341500
v -10.609800 3.000000 -6.951220
v -11.341500 3.000000 -0.365853
v -10.609800 3.000000 0.365854
v -4.024390 3.000000 -6.951220
v -4.024390 3.000000 -7.682930
v -10.609800 3.000000 11.341500
v -10.609800 3.000000 10.609800
v -7.682930 3.000000 -4.024390
v -6.951220 3.000000 -0.365853
v -6.951220 3.000000 -4.024390
v -7.682930 3.000000 3.292680
v -6.951220 3.000000 0.365854
v -6.951220 3.000000 4.024390
v -10.609800 3.000000 4.024390
v -11.341500 3.000000 3.292680
v -10.609800 3.000000 6.951220
v -3.292680 3.000000 0.365854
v -3.292680 3.000000 -0.365853
v 0.365853 3.000000 6.951220
v -0.365854 3.000000 7.682930
v 0.365853 3.000000 11.341500
v -6.951220 3.000000 7.682930
v -7.682930 3.000000 7.682930
v -6.951220 3.000000 14.268300
v -11.341500 3.000000 7.682930
v -0.365854 3.000000 11.341500
v -3.292680 3.000000 10.609800
v -4.024390 3.000000 10.609800
v -3.292680 3.000000 14.268300
v -3.292680 3.000000 -11.341500
v -4.024390 3.000000 -11.341500
v 3.292680 3.000000 -7.682930
v 4.024390 3.000000 -11.341500
v 3.292680 3.000000 -11.341500
v 6.951220 3.000000 -11.341500
v 7.682930 3.000000 -7.682930
v 7.682930 3.000000 -11.341500
v 7.682930 3.000000 -6.951220
v 6.951220 3.000000 -3.292680
v 11.341500 3.000000 -6.951220
v 11.341500 3.000000 -7.682930
v 10.609800 3.000000 10.609800
v 14.268300 3.000000 11.341500
v 14.268300 3.000000 10.609800
v 10.609800 3.000000 11.341500
v 7.682930 3.000000 -4.024390
v 14.268300 3.000000 -3.292680
v 14.268300 3.000000 -4.024390
v 14.268300 3.000000 -14.268300
v 11.341500 3.000000 -14.268300
v 10.609800 3.000000 -14.268300
v 11.341500 3.000000 -10.609800
v 6.951220 3.000000 -14.268300
v 14.268300 3.000000 14.268300
v 7.682930 3.000000 14.268300
v 7.682930 3.000000 7.682930
v 6.951220 3.000000 14.268300
v -4.024390 3.000000 14.268300
v -7.682930 3.000000 14.268300
v -14.268300 3.000000 14.268300
v 10.609800 3.000000 -10.609800
v 11.341500 3.000000 6.951220
v 11.341500 3.000000 7.682930
v 6.951220 3.000000 6.951220
v 11.341500 3.000000 -0.365853
v 10.609800 3.000000 0.365854
v 11.341500 3.000000 4.024390
v 4.024390 3.000000 -0.365853
v 3.292680 3.000000 -6.951220
v 3.292680 3.000000 0.365854
v 10.609800 3.000000 3.292680
v 4.024390 3.000000 4.024390
v 3.292680 3.000000 4.024390
v 4.024390 3.000000 11.341500
v 0.365853 3.000000 3.292680
v -0.365854 3.000000 3.292680
v -0.365854 3.000000 -3.292680
v -4.024390 3.000000 4.024390
v -4.024390 3.000000 3.292680
v 0.365853 3.000000 -4.024390
v -3.292680 3.000000 -4.024390
v -4.024390 3.000000 -3.292680
v -0.365854 3.000000 -7.682930
v -0.365854 3.000000 -6.951220
v 3.292680 3.000000 11.341500
vn -1.0000 0.0000 0.0000
vn 0.0000 1.0000 0.0000
vn 1.0000 0.0000 0.0000
vn 0.0000 0.0000 -1.0000
vn 0.0000 -1.0000 0.0000
vn 0.0000 0.0000 1.0000
usemtl Woodlabyrinth
s off
f 1//1 2//1 3//1
f 2//1 1//1 4//1
f 5//2 6//2 7//2
f 5//2 8//2 6//2
f 9//2 8//2 5//2
f 10//2 8//2 9//2
f 8//2 10//2 11//2
f 12//2 13//2 14//2
f 12//2 15//2 13//2
f 16//2 15//2 12//2
f 17//2 15//2 16//2
f 15//2 17//2 18//2
f 19//2 20//2 21//2
f 20//2 19//2 22//2
f 23//2 22//2 19//2
f 21//2 24//2 19//2
f 25//2 24//2 21//2
f 26//2 24//2 25//2
f 24//2 26//2 27//2
f 7//2 27//2 26//2
f 28//2 7//2 6//2
f 7//2 28//2 27//2
f 29//2 30//2 31//2
f 32//2 30//2 29//2
f 33//2 34//2 32//2
f 35//2 32//2 34//2
f 35//2 34//2 36//2
f 32//2 35//2 30//2
f 37//2 38//2 39//2
f 40//2 38//2 37//2
f 41//2 38//2 40//2
f 38//2 41//2 42//2
f 22//2 41//2 20//2
f 41//2 22//2 42//2
f 43//2 44//2 45//2
f 46//2 44//2 43//2
f 22//2 23//2 46//2
f 46//2 23//2 44//2
f 45//2 47//2 48//2
f 45//2 49//2 47//2
f 49//2 45//2 44//2
f 50//2 51//2 52//2
f 50//2 53//2 51//2
f 54//2 53//2 50//2
f 55//2 53//2 54//2
f 53//2 55//2 56//2
f 55//2 57//2 56//2
f 57//2 58//2 59//2
f 58//2 57//2 55//2
f 37//2 60//2 61//2
f 60//2 37//2 62//2
f 37//2 61//2 63//2
f 64//2 65//2 66//2
f 60//2 65//2 64//2
f 65//2 60//2 62//2
f 66//2 67//2 68//2
f 69//2 66//2 65//2
f 66//2 69//2 67//2
f 68//2 70//2 71//2
f 70//2 68//2 72//2
f 67//2 72//2 68//2
f 73//2 72//2 67//2
f 74//2 73//2 75//2
f 73//2 74//2 72//2
f 76//2 77//2 78//2
f 79//2 77//2 76//2
f 80//2 77//2 79//2
f 77//2 80//2 81//2
f 31//2 81//2 80//2
f 82//2 31//2 30//2
f 82//2 81//2 31//2
f 83//2 82//2 14//2
f 83//2 14//2 13//2
f 82//2 83//2 81//2
f 76//2 84//2 85//2
f 86//2 85//2 84//2
f 62//2 37//2 39//2
f 62//2 39//2 86//2
f 86//2 87//2 85//2
f 87//2 86//2 39//2
f 84//2 76//2 88//2
f 78//2 88//2 76//2
f 89//2 88//2 78//2
f 89//2 90//2 88//2
f 90//2 91//2 92//2
f 91//2 90//2 89//2
f 92//2 93//2 94//2
f 92//2 95//2 93//2
f 95//2 92//2 91//2
f 96//2 97//2 98//2
f 52//2 97//2 96//2
f 99//2 52//2 51//2
f 52//2 99//2 97//2
f 100//2 98//2 97//2
f 100//2 33//2 98//2
f 34//2 33//2 101//2
f 101//2 33//2 100//2
f 102//2 103//2 104//2
f 59//2 103//2 102//2
f 105//2 59//2 58//2
f 59//2 105//2 103//2
f 106//2 104//2 103//2
f 107//2 106//2 108//2
f 106//2 107//2 104//2
f 109//3 110//3 111//3
f 110//3 109//3 112//3
f 111//4 61//4 113//4
f 61//4 110//4 63//4
f 110//4 61//4 111//4
f 63//4 2//4 114//4
f 63//4 3//4 2//4
f 3//4 63//4 110//4
f 1//5 110//5 112//5
f 110//5 1//5 3//5
f 1//6 109//6 4//6
f 109//6 1//6 112//6
f 114//2 115//2 116//2
f 115//2 117//2 118//2
f 114//2 117//2 115//2
f 114//2 119//2 117//2
f 119//2 120//2 121//2
f 2//2 119//2 114//2
f 119//2 2//2 120//2
f 2//2 122//2 123//2
f 122//2 2//2 124//2
f 4//2 124//2 2//2
f 124//2 4//2 125//2
f 125//2 4//2 126//2
f 120//2 2//2 123//2
f 118//2 117//2 127//2
f 121//2 120//2 128//2
f 129//2 130//2 131//2
f 130//2 129//2 132//2
f 132//2 129//2 133//2
f 132//2 133//2 134//2
f 124//2 133//2 122//2
f 133//2 124//2 134//2
f 130//2 135//2 136//2
f 135//2 130//2 132//2
f 125//2 137//2 138//2
f 137//2 125//2 126//2
f 139//2 140//2 141//2
f 142//2 140//2 139//2
f 140//2 142//2 143//2
f 143//2 142//2 144//2
f 142//2 145//2 144//2
f 145//2 146//2 147//2
f 146//2 145//2 142//2
f 140//2 148//2 149//2
f 148//2 140//2 143//2
f 150//2 151//2 152//2
f 150//2 153//2 151//2
f 153//2 154//2 155//2
f 147//2 153//2 150//2
f 153//2 147//2 154//2
f 147//2 156//2 154//2
f 156//2 147//2 146//2
f 152//2 151//2 157//2
f 158//2 159//2 160//2
f 136//2 161//2 162//2
f 163//2 164//2 165//2
f 166//2 167//2 168//2
f 167//2 166//2 169//2
f 170//2 169//2 166//2
f 167//2 171//2 172//2
f 171//2 167//2 169//2
f 173//2 174//2 175//2
f 174//2 173//2 176//2
f 177//2 178//2 179//2
f 177//2 170//2 178//2
f 169//2 170//2 177//2
f 179//2 111//2 180//2
f 111//2 181//2 180//2
f 181//2 182//2 183//2
f 111//2 182//2 181//2
f 113//2 182//2 111//2
f 182//2 113//2 184//2
f 178//2 111//2 179//2
f 111//2 178//2 109//2
f 175//2 109//2 178//2
f 174//2 109//2 175//2
f 185//2 109//2 174//2
f 186//2 109//2 185//2
f 187//2 188//2 186//2
f 188//2 109//2 186//2
f 160//2 109//2 188//2
f 189//2 160//2 159//2
f 4//2 160//2 189//2
f 4//2 189//2 155//2
f 190//2 155//2 154//2
f 4//2 155//2 190//2
f 4//2 190//2 191//2
f 160//2 4//2 109//2
f 126//2 4//2 191//2
f 183//2 182//2 192//2
f 193//2 187//2 194//2
f 188//2 187//2 195//2
f 195//2 187//2 193//2
f 196//2 197//2 198//2
f 199//2 197//2 196//2
f 200//2 164//2 163//2
f 164//2 200//2 199//2
f 199//2 201//2 197//2
f 201//2 199//2 200//2
f 202//2 198//2 197//2
f 202//2 203//2 198//2
f 203//2 204//2 205//2
f 206//2 203//2 202//2
f 203//2 206//2 204//2
f 207//2 206//2 208//2
f 207//2 204//2 206//2
f 209//2 207//2 210//2
f 207//2 209//2 204//2
f 211//2 208//2 206//2
f 212//2 208//2 211//2
f 161//2 136//2 212//2
f 135//2 212//2 136//2
f 212//2 213//2 208//2
f 213//2 212//2 135//2
f 214//2 200//2 163//2
f 200//2 214//2 215//2
f 205//2 204//2 216//2
f 104//4 191//4 190//4
f 191//4 104//4 107//4
f 191//3 108//3 126//3
f 108//3 191//3 107//3
f 103//4 125//4 138//4
f 125//4 103//4 105//4
f 137//3 103//3 138//3
f 103//3 137//3 106//3
f 108//6 137//6 126//6
f 137//6 108//6 106//6
f 125//3 58//3 124//3
f 58//3 125//3 105//3
f 11//4 122//4 133//4
f 122//4 11//4 10//4
f 134//3 54//3 132//3
f 54//3 134//3 55//3
f 58//6 134//6 124//6
f 134//6 58//6 55//6
f 122//3 9//3 123//3
f 9//3 122//3 10//3
f 9//6 120//6 123//6
f 120//6 9//6 5//6
f 59//1 146//1 57//1
f 146//1 59//1 156//1
f 30//4 147//4 150//4
f 147//4 30//4 35//4
f 59//6 154//6 156//6
f 154//6 59//6 102//6
f 147//3 36//3 145//3
f 36//3 147//3 35//3
f 56//4 146//4 142//4
f 146//4 56//4 57//4
f 144//3 101//3 143//3
f 101//3 144//3 34//3
f 36//6 144//6 145//6
f 144//6 36//6 34//6
f 11//1 129//1 8//1
f 129//1 11//1 133//1
f 27//4 130//4 136//4
f 130//4 27//4 28//4
f 54//6 135//6 132//6
f 135//6 54//6 50//6
f 130//3 6//3 131//3
f 6//3 130//3 28//3
f 6//4 129//4 131//4
f 129//4 6//4 8//4
f 104//1 154//1 102//1
f 154//1 104//1 190//1
f 18//4 155//4 189//4
f 155//4 18//4 17//4
f 155//3 16//3 153//3
f 16//3 155//3 17//3
f 16//6 151//6 153//6
f 151//6 16//6 12//6
f 56//1 139//1 53//1
f 139//1 56//1 142//1
f 97//4 140//4 149//4
f 140//4 97//4 99//4
f 148//3 97//3 149//3
f 97//3 148//3 100//3
f 101//6 148//6 143//6
f 148//6 101//6 100//6
f 140//3 51//3 141//3
f 51//3 140//3 99//3
f 51//4 139//4 141//4
f 139//4 51//4 53//4
f 212//3 19//3 161//3
f 19//3 212//3 23//3
f 7//1 120//1 5//1
f 120//1 7//1 128//1
f 121//3 25//3 119//3
f 25//3 121//3 26//3
f 7//6 121//6 128//6
f 121//6 7//6 26//6
f 25//6 117//6 119//6
f 117//6 25//6 21//6
f 18//1 159//1 15//1
f 159//1 18//1 189//1
f 81//4 160//4 188//4
f 160//4 81//4 83//4
f 160//3 13//3 158//3
f 13//3 160//3 83//3
f 13//4 159//4 158//4
f 159//4 13//4 15//4
f 152//3 30//3 150//3
f 30//3 152//3 82//3
f 32//1 210//1 33//1
f 210//1 32//1 209//1
f 32//6 204//6 209//6
f 204//6 32//6 29//6
f 98//4 210//4 207//4
f 210//4 98//4 33//4
f 27//1 162//1 24//1
f 162//1 27//1 136//1
f 52//1 135//1 50//1
f 135//1 52//1 213//1
f 206//3 44//3 211//3
f 44//3 206//3 49//3
f 52//6 208//6 213//6
f 208//6 52//6 96//6
f 44//4 212//4 211//4
f 212//4 44//4 23//4
f 19//4 162//4 161//4
f 162//4 19//4 24//4
f 14//1 151//1 12//1
f 151//1 14//1 157//1
f 14//6 152//6 157//6
f 152//6 14//6 82//6
f 98//1 208//1 96//1
f 208//1 98//1 207//1
f 47//4 206//4 202//4
f 206//4 47//4 49//4
f 46//1 214//1 22//1
f 214//1 46//1 215//1
f 199//3 39//3 164//3
f 39//3 199//3 87//3
f 46//6 200//6 215//6
f 200//6 46//6 43//6
f 42//4 214//4 163//4
f 214//4 42//4 22//4
f 20//1 117//1 21//1
f 117//1 20//1 127//1
f 118//3 40//3 115//3
f 40//3 118//3 41//3
f 20//6 118//6 127//6
f 118//6 20//6 41//6
f 116//3 63//3 114//3
f 63//3 116//3 37//3
f 40//6 116//6 115//6
f 116//6 40//6 37//6
f 31//1 204//1 29//1
f 204//1 31//1 216//1
f 205//3 79//3 203//3
f 79//3 205//3 80//3
f 31//6 205//6 216//6
f 205//6 31//6 80//6
f 79//6 198//6 203//6
f 198//6 79//6 76//6
f 42//1 165//1 38//1
f 165//1 42//1 163//1
f 45//1 200//1 43//1
f 200//1 45//1 201//1
f 85//4 199//4 196//4
f 199//4 85//4 87//4
f 45//6 197//6 201//6
f 197//6 45//6 48//6
f 39//4 165//4 164//4
f 165//4 39//4 38//4
f 81//1 195//1 77//1
f 195//1 81//1 188//1
f 93//4 186//4 185//4
f 186//4 93//4 95//4
f 186//3 91//3 187//3
f 91//3 186//3 95//3
f 78//4 195//4 193//4
f 195//4 78//4 77//4
f 194//3 78//3 193//3
f 78//3 194//3 89//3
f 91//6 194//6 187//6
f 194//6 91//6 89//6
f 198//3 85//3 196//3
f 85//3 198//3 76//3
f 86//1 166//1 62//1
f 166//1 86//1 170//1
f 86//6 178//6 170//6
f 178//6 86//6 84//6
f 72//4 177//4 179//4
f 177//4 72//4 74//4
f 177//3 75//3 169//3
f 75//3 177//3 74//3
f 171//3 67//3 172//3
f 67//3 171//3 73//3
f 75//6 171//6 169//6
f 171//6 75//6 73//6
f 67//4 167//4 172//4
f 167//4 67//4 69//4
f 167//3 65//3 168//3
f 65//3 167//3 69//3
f 65//4 166//4 168//4
f 166//4 65//4 62//4
f 60//1 113//1 61//1
f 113//1 60//1 184//1
f 60//6 182//6 184//6
f 182//6 60//6 64//6
f 92//1 173//1 90//1
f 173//1 92//1 176//1
f 92//6 174//6 176//6
f 174//6 92//6 94//6
f 88//4 173//4 175//4
f 173//4 88//4 90//4
f 93//1 174//1 94//1
f 174//1 93//1 185//1
f 88//1 178//1 84//1
f 178//1 88//1 175//1
f 47//1 197//1 48//1
f 197//1 47//1 202//1
f 72//1 180//1 70//1
f 180//1 72//1 179//1
f 66//1 182//1 64//1
f 182//1 66//1 192//1
f 183//3 71//3 181//3
f 71//3 183//3 68//3
f 66//6 183//6 192//6
f 183//6 66//6 68//6
f 71//6 180//6 181//6
f 180//6 71//6 70//6
