# Blender v2.77 (sub 0) OBJ File: ''
# www.blender.org
mtllib LabyrinthandBallblend.mtl
o Labyrinth
v -15.000000 0.000000 15.000000
v -15.000000 3.000000 -15.000000
v -15.000000 0.000000 -15.000000
v -15.000000 3.000000 15.000000
v -0.365854 1.000000 4.024390
v -3.292680 1.000000 6.951220
v -0.365854 1.000000 10.609800
v -11.341500 1.000000 4.024390
v -11.341500 1.000000 6.951220
v -3.292680 1.000000 7.682930
v -4.024390 1.000000 10.609800
v -6.951220 1.000000 7.682930
v -6.951220 1.000000 11.341500
v -4.024390 1.000000 14.268300
v -14.268300 1.000000 14.268300
v -14.268300 1.000000 11.341500
v -4.024390 1.000000 -3.292680
v -7.682930 1.000000 -0.365853
v -4.024390 1.000000 -0.365853
v -10.609800 1.000000 -3.292680
v -7.682930 1.000000 0.365854
v -0.365854 1.000000 -14.268300
v -3.292680 1.000000 -11.341500
v -0.365854 1.000000 -7.682930
v -11.341500 1.000000 -11.341500
v -14.268300 1.000000 -14.268300
v -14.268300 1.000000 10.609800
v -3.292680 1.000000 -10.609800
v -7.682930 1.000000 -7.682930
v -10.609800 1.000000 -10.609800
v -7.682930 1.000000 -6.951220
v -0.365854 1.000000 -6.951220
v -3.292680 1.000000 -4.024390
v -0.365854 1.000000 -3.292680
v -10.609800 1.000000 -4.024390
v 14.268300 1.000000 -14.268300
v 11.341500 1.000000 -11.341500
v 14.268300 1.000000 -4.024390
v 3.292680 1.000000 -14.268300
v 3.292680 1.000000 -11.341500
v 11.341500 1.000000 -6.951220
v 10.609800 1.000000 -4.024390
v 7.682930 1.000000 -6.951220
v 10.609800 1.000000 -3.292680
v 11.341500 1.000000 7.682930
v 10.609800 1.000000 10.609800
v 11.341500 1.000000 10.609800
v 7.682930 1.000000 7.682930
v 7.682930 1.000000 11.341500
v 10.609800 1.000000 14.268300
v 6.951220 1.000000 11.341500
v 6.951220 1.000000 6.951220
v 4.024390 1.000000 11.341500
v 3.292680 1.000000 11.341500
v 0.365853 1.000000 11.341500
v 0.365853 1.000000 3.292680
v -3.292680 1.000000 14.268300
v -3.292680 1.000000 11.341500
v 14.268300 1.000000 -3.292680
v 11.341500 1.000000 -0.365853
v 7.682930 1.000000 -0.365853
v 14.268300 1.000000 14.268300
v 11.341500 1.000000 14.268300
v 0.365853 1.000000 -15.000000
v 3.292680 1.000000 -15.000000
v 0.365853 1.000000 -7.682930
v 6.951220 1.000000 -3.292680
v 4.024390 1.000000 -0.365853
v 6.951220 1.000000 0.365854
v -3.292680 1.000000 -0.365853
v 10.609800 1.000000 0.365854
v 7.682930 1.000000 3.292680
v 10.609800 1.000000 6.951220
v 4.024390 1.000000 3.292680
v 7.682930 1.000000 4.024390
v 4.024390 1.000000 4.024390
v 10.609800 1.000000 -10.609800
v 6.951220 1.000000 -7.682930
v 10.609800 1.000000 -7.682930
v 4.024390 1.000000 -6.951220
v 4.024390 1.000000 -7.682930
v 3.292680 1.000000 -10.609800
v 6.951220 1.000000 -4.024390
v 0.365853 1.000000 -4.024390
v 0.365853 1.000000 -6.951220
v 3.292680 1.000000 0.365854
v -10.609800 1.000000 3.292680
v -11.341500 1.000000 7.682930
v -7.682930 1.000000 10.609800
v -7.682930 1.000000 7.682930
v 15.000000 3.000000 15.000000
v 15.000000 0.000000 -15.000000
v 15.000000 3.000000 -15.000000
v 15.000000 0.000000 15.000000
v 3.292680 3.000000 -15.000000
v 0.365853 3.000000 -15.000000
v -7.682930 3.000000 -7.682930
v -0.365854 3.000000 -6.951220
v -0.365854 3.000000 -7.682930
v -7.682930 3.000000 -6.951220
v -0.365854 3.000000 -14.268300
v 0.365853 3.000000 -7.682930
v 0.365853 3.000000 -6.951220
v -14.268300 3.000000 -14.268300
v -14.268300 3.000000 10.609800
v -14.268300 3.000000 11.341500
v 4.024390 3.000000 -6.951220
v 4.024390 3.000000 -7.682930
v 11.341500 3.000000 -11.341500
v 10.609800 3.000000 -10.609800
v 11.341500 3.000000 -6.951220
v 3.292680 3.000000 -11.341500
v 3.292680 3.000000 -10.609800
v 10.609800 3.000000 -7.682930
v 7.682930 3.000000 -6.951220
v 6.951220 3.000000 -4.024390
v 6.951220 3.000000 -7.682930
v 11.341500 3.000000 10.609800
v 10.609800 3.000000 10.609800
v 11.341500 3.000000 14.268300
v 10.609800 3.000000 -4.024390
v 14.268300 3.000000 -3.292680
v 14.268300 3.000000 -4.024390
v 10.609800 3.000000 -3.292680
v 14.268300 3.000000 -14.268300
v 3.292680 3.000000 -14.268300
v 14.268300 3.000000 14.268300
v 10.609800 3.000000 14.268300
v -3.292680 3.000000 14.268300
v -3.292680 3.000000 11.341500
v -4.024390 3.000000 14.268300
v -14.268300 3.000000 14.268300
v 11.341500 3.000000 -0.365853
v 10.609800 3.000000 0.365854
v 11.341500 3.000000 7.682930
v 7.682930 3.000000 -0.365853
v 6.951220 3.000000 -3.292680
v 6.951220 3.000000 0.365854
v 10.609800 3.000000 6.951220
v 7.682930 3.000000 7.682930
v 6.951220 3.000000 6.951220
v 6.951220 3.000000 11.341500
v 7.682930 3.000000 11.341500
v 0.365853 3.000000 -4.024390
v -0.365854 3.000000 -3.292680
v -3.292680 3.000000 6.951220
v -6.951220 3.000000 7.682930
v -3.292680 3.000000 7.682930
v -7.682930 3.000000 10.609800
v -7.682930 3.000000 7.682930
v -11.341500 3.000000 6.951220
v -11.341500 3.000000 7.682930
v -6.951220 3.000000 11.341500
v -3.292680 3.000000 -11.341500
v -10.609800 3.000000 -10.609800
v -3.292680 3.000000 -10.609800
v -11.341500 3.000000 -11.341500
v -10.609800 3.000000 -4.024390
v -10.609800 3.000000 -3.292680
v -11.341500 3.000000 4.024390
v -3.292680 3.000000 -4.024390
v -4.024390 3.000000 -3.292680
v -3.292680 3.000000 -0.365853
v 3.292680 3.000000 0.365854
v 4.024390 3.000000 3.292680
v 4.024390 3.000000 -0.365853
v 4.024390 3.000000 4.024390
v 3.292680 3.000000 11.341500
v -4.024390 3.000000 -0.365853
v -7.682930 3.000000 0.365854
v -7.682930 3.000000 -0.365853
v 7.682930 3.000000 4.024390
v 7.682930 3.000000 3.292680
v 4.024390 3.000000 11.341500
v 0.365853 3.000000 3.292680
v -0.365854 3.000000 4.024390
v 0.365853 3.000000 11.341500
v -10.609800 3.000000 3.292680
v -0.365854 3.000000 10.609800
v -4.024390 3.000000 10.609800
vn -1.0000 0.0000 0.0000
vn 0.0000 1.0000 0.0000
vn 1.0000 0.0000 0.0000
vn 0.0000 0.0000 -1.0000
vn 0.0000 -1.0000 0.0000
vn 0.0000 0.0000 1.0000
usemtl Woodlabyrinth
s off
f 1//1 2//1 3//1
f 2//1 1//1 4//1
f 5//2 6//2 7//2
f 8//2 6//2 5//2
f 6//2 8//2 9//2
f 10//2 7//2 6//2
f 10//2 11//2 7//2
f 12//2 11//2 10//2
f 13//2 11//2 12//2
f 11//2 13//2 14//2
f 15//2 13//2 16//2
f 13//2 15//2 14//2
f 17//2 18//2 19//2
f 18//2 20//2 21//2
f 20//2 18//2 17//2
f 22//2 23//2 24//2
f 22//2 25//2 23//2
f 26//2 8//2 25//2
f 27//2 8//2 26//2
f 8//2 27//2 9//2
f 26//2 25//2 22//2
f 28//2 24//2 23//2
f 28//2 29//2 24//2
f 29//2 30//2 31//2
f 30//2 29//2 28//2
f 32//2 33//2 34//2
f 31//2 33//2 32//2
f 31//2 35//2 33//2
f 35//2 31//2 30//2
f 36//2 37//2 38//2
f 39//2 37//2 36//2
f 37//2 39//2 40//2
f 41//2 38//2 37//2
f 41//2 42//2 38//2
f 42//2 43//2 44//2
f 43//2 42//2 41//2
f 45//2 46//2 47//2
f 48//2 46//2 45//2
f 49//2 46//2 48//2
f 46//2 49//2 50//2
f 51//2 50//2 49//2
f 52//2 53//2 51//2
f 53//2 50//2 51//2
f 54//2 50//2 53//2
f 55//2 54//2 56//2
f 57//2 54//2 55//2
f 57//2 55//2 58//2
f 54//2 57//2 50//2
f 45//2 59//2 60//2
f 44//2 60//2 59//2
f 61//2 44//2 43//2
f 44//2 61//2 60//2
f 59//2 45//2 62//2
f 47//2 62//2 45//2
f 62//2 47//2 63//2
f 64//2 39//2 65//2
f 39//2 64//2 40//2
f 66//2 40//2 64//2
f 67//2 68//2 69//2
f 34//2 68//2 67//2
f 70//2 34//2 33//2
f 34//2 70//2 68//2
f 71//2 72//2 73//2
f 69//2 72//2 71//2
f 74//2 69//2 68//2
f 69//2 74//2 72//2
f 75//2 73//2 72//2
f 75//2 52//2 73//2
f 53//2 52//2 76//2
f 76//2 52//2 75//2
f 77//2 78//2 79//2
f 80//2 78//2 81//2
f 82//2 78//2 77//2
f 78//2 82//2 81//2
f 40//2 66//2 82//2
f 82//2 66//2 81//2
f 78//2 80//2 83//2
f 84//2 80//2 85//2
f 80//2 84//2 83//2
f 86//2 56//2 54//2
f 21//2 56//2 86//2
f 21//2 87//2 56//2
f 87//2 21//2 20//2
f 88//2 89//2 90//2
f 88//2 27//2 89//2
f 9//2 27//2 88//2
f 91//3 92//3 93//3
f 92//3 91//3 94//3
f 93//4 65//4 95//4
f 65//4 92//4 64//4
f 92//4 65//4 93//4
f 64//4 2//4 96//4
f 64//4 3//4 2//4
f 3//4 64//4 92//4
f 1//5 92//5 94//5
f 92//5 1//5 3//5
f 1//6 91//6 4//6
f 91//6 1//6 94//6
f 97//2 98//2 99//2
f 98//2 97//2 100//2
f 101//2 102//2 96//2
f 102//2 99//2 103//2
f 102//2 101//2 99//2
f 96//2 104//2 101//2
f 2//2 105//2 104//2
f 4//2 105//2 2//2
f 105//2 4//2 106//2
f 2//2 104//2 96//2
f 102//2 107//2 108//2
f 107//2 102//2 103//2
f 109//2 110//2 111//2
f 112//2 110//2 109//2
f 110//2 112//2 113//2
f 114//2 111//2 110//2
f 114//2 115//2 111//2
f 116//2 115//2 117//2
f 117//2 115//2 114//2
f 118//2 119//2 120//2
f 121//2 122//2 123//2
f 122//2 121//2 124//2
f 123//2 93//2 125//2
f 95//2 125//2 93//2
f 125//2 95//2 126//2
f 122//2 93//2 123//2
f 93//2 122//2 91//2
f 127//2 91//2 122//2
f 120//2 91//2 127//2
f 128//2 120//2 119//2
f 128//2 91//2 120//2
f 129//2 91//2 128//2
f 130//2 131//2 129//2
f 4//2 129//2 131//2
f 4//2 131//2 132//2
f 129//2 4//2 91//2
f 106//2 4//2 132//2
f 133//2 134//2 135//2
f 136//2 134//2 133//2
f 115//2 116//2 136//2
f 137//2 136//2 116//2
f 136//2 138//2 134//2
f 138//2 136//2 137//2
f 139//2 135//2 134//2
f 139//2 140//2 135//2
f 141//2 140//2 139//2
f 142//2 140//2 141//2
f 140//2 142//2 143//2
f 144//2 137//2 116//2
f 98//2 103//2 99//2
f 103//2 98//2 144//2
f 144//2 145//2 137//2
f 145//2 144//2 98//2
f 146//2 147//2 148//2
f 149//2 147//2 150//2
f 146//2 150//2 147//2
f 151//2 150//2 146//2
f 150//2 151//2 152//2
f 147//2 149//2 153//2
f 106//2 149//2 105//2
f 149//2 106//2 153//2
f 154//2 155//2 156//2
f 157//2 158//2 155//2
f 158//2 157//2 159//2
f 160//2 159//2 157//2
f 157//2 155//2 154//2
f 161//2 162//2 163//2
f 158//2 162//2 161//2
f 162//2 158//2 159//2
f 164//2 165//2 166//2
f 165//2 164//2 167//2
f 168//2 167//2 164//2
f 163//2 164//2 166//2
f 169//2 163//2 162//2
f 170//2 163//2 169//2
f 170//2 169//2 171//2
f 163//2 170//2 164//2
f 165//2 172//2 173//2
f 172//2 165//2 167//2
f 167//2 168//2 174//2
f 175//2 176//2 177//2
f 178//2 176//2 175//2
f 178//2 160//2 176//2
f 159//2 160//2 178//2
f 179//2 177//2 176//2
f 179//2 130//2 177//2
f 131//2 130//2 180//2
f 180//2 130//2 179//2
f 14//4 132//4 131//4
f 132//4 14//4 15//4
f 132//3 16//3 106//3
f 16//3 132//3 15//3
f 89//4 105//4 149//4
f 105//4 89//4 27//4
f 16//6 153//6 106//6
f 153//6 16//6 13//6
f 105//3 26//3 104//3
f 26//3 105//3 27//3
f 26//6 101//6 104//6
f 101//6 26//6 22//6
f 153//3 12//3 147//3
f 12//3 153//3 13//3
f 88//1 151//1 9//1
f 151//1 88//1 152//1
f 6//4 151//4 146//4
f 151//4 6//4 9//4
f 88//6 150//6 152//6
f 150//6 88//6 90//6
f 8//1 157//1 25//1
f 157//1 8//1 160//1
f 56//4 178//4 175//4
f 178//4 56//4 87//4
f 8//6 176//6 160//6
f 176//6 8//6 5//6
f 178//3 20//3 159//3
f 20//3 178//3 87//3
f 33//4 158//4 161//4
f 158//4 33//4 35//4
f 20//6 162//6 159//6
f 162//6 20//6 17//6
f 158//3 30//3 155//3
f 30//3 158//3 35//3
f 23//4 157//4 154//4
f 157//4 23//4 25//4
f 30//6 156//6 155//6
f 156//6 30//6 28//6
f 89//1 150//1 90//1
f 150//1 89//1 149//1
f 148//3 6//3 146//3
f 6//3 148//3 10//3
f 12//6 148//6 147//6
f 148//6 12//6 10//6
f 21//1 171//1 18//1
f 171//1 21//1 170//1
f 19//4 171//4 169//4
f 171//4 19//4 18//4
f 21//6 164//6 170//6
f 164//6 21//6 86//6
f 163//3 33//3 161//3
f 33//3 163//3 70//3
f 31//1 97//1 29//1
f 97//1 31//1 100//1
f 31//6 98//6 100//6
f 98//6 31//6 32//6
f 24//4 97//4 99//4
f 97//4 24//4 29//4
f 156//3 23//3 154//3
f 23//3 156//3 28//3
f 14//1 180//1 11//1
f 180//1 14//1 131//1
f 50//4 129//4 128//4
f 129//4 50//4 57//4
f 129//3 58//3 130//3
f 58//3 129//3 57//3
f 7//4 180//4 179//4
f 180//4 7//4 11//4
f 177//3 56//3 175//3
f 56//3 177//3 55//3
f 58//6 177//6 130//6
f 177//6 58//6 55//6
f 19//1 162//1 17//1
f 162//1 19//1 169//1
f 68//4 163//4 166//4
f 163//4 68//4 70//4
f 102//3 64//3 96//3
f 64//3 102//3 66//3
f 7//1 176//1 5//1
f 176//1 7//1 179//1
f 165//3 68//3 166//3
f 68//3 165//3 74//3
f 34//1 98//1 32//1
f 98//1 34//1 145//1
f 24//1 101//1 22//1
f 101//1 24//1 99//1
f 83//4 144//4 116//4
f 144//4 83//4 84//4
f 34//6 137//6 145//6
f 137//6 34//6 67//6
f 144//3 85//3 103//3
f 85//3 144//3 84//3
f 107//3 81//3 108//3
f 81//3 107//3 80//3
f 81//4 102//4 108//4
f 102//4 81//4 66//4
f 85//6 107//6 103//6
f 107//6 85//6 80//6
f 54//1 164//1 86//1
f 164//1 54//1 168//1
f 174//3 76//3 167//3
f 76//3 174//3 53//3
f 54//6 174//6 168//6
f 174//6 54//6 53//6
f 172//3 72//3 173//3
f 72//3 172//3 75//3
f 72//4 165//4 173//4
f 165//4 72//4 74//4
f 76//6 172//6 167//6
f 172//6 76//6 75//6
f 136//3 43//3 115//3
f 43//3 136//3 61//3
f 82//1 112//1 40//1
f 112//1 82//1 113//1
f 82//6 110//6 113//6
f 110//6 82//6 77//6
f 37//4 112//4 109//4
f 112//4 37//4 40//4
f 39//1 95//1 65//1
f 95//1 39//1 126//1
f 39//6 125//6 126//6
f 125//6 39//6 36//6
f 51//1 141//1 52//1
f 141//1 51//1 142//1
f 143//3 48//3 140//3
f 48//3 143//3 49//3
f 51//6 143//6 142//6
f 143//6 51//6 49//6
f 73//4 141//4 139//4
f 141//4 73//4 52//4
f 135//3 60//3 133//3
f 60//3 135//3 45//3
f 48//6 135//6 140//6
f 135//6 48//6 45//6
f 83//1 117//1 78//1
f 117//1 83//1 116//1
f 69//1 137//1 67//1
f 137//1 69//1 138//1
f 69//6 134//6 138//6
f 134//6 69//6 71//6
f 60//4 136//4 133//4
f 136//4 60//4 61//4
f 79//4 117//4 114//4
f 117//4 79//4 78//4
f 111//3 37//3 109//3
f 37//3 111//3 41//3
f 43//6 111//6 115//6
f 111//6 43//6 41//6
f 50//1 119//1 46//1
f 119//1 50//1 128//1
f 62//4 120//4 127//4
f 120//4 62//4 63//4
f 120//3 47//3 118//3
f 47//3 120//3 63//3
f 47//4 119//4 118//4
f 119//4 47//4 46//4
f 62//1 122//1 59//1
f 122//1 62//1 127//1
f 73//1 134//1 71//1
f 134//1 73//1 139//1
f 44//1 121//1 42//1
f 121//1 44//1 124//1
f 38//4 121//4 123//4
f 121//4 38//4 42//4
f 44//6 122//6 124//6
f 122//6 44//6 59//6
f 38//1 125//1 36//1
f 125//1 38//1 123//1
f 79//1 110//1 77//1
f 110//1 79//1 114//1
