# Blender v2.77 (sub 0) OBJ File: ''
# www.blender.org
mtllib LabyrinthandBallblend.mtl
o Labyrinth
v -15.000000 0.000000 15.000000
v -15.000000 3.000000 -15.000000
v -15.000000 0.000000 -15.000000
v -15.000000 3.000000 15.000000
v -11.341500 1.000000 -3.292680
v -14.268300 1.000000 -3.292680
v -11.341500 1.000000 0.365854
v -7.682930 1.000000 -14.268300
v -10.609800 1.000000 -11.341500
v -7.682930 1.000000 -10.609800
v -11.341500 1.000000 -11.341500
v -14.268300 1.000000 -14.268300
v -11.341500 1.000000 -6.951220
v -4.024390 1.000000 7.682930
v -7.682930 1.000000 10.609800
v -4.024390 1.000000 10.609800
v -10.609800 1.000000 7.682930
v -7.682930 1.000000 11.341500
v -7.682930 1.000000 -6.951220
v -10.609800 1.000000 -4.024390
v -7.682930 1.000000 -3.292680
v -14.268300 1.000000 -4.024390
v 3.292680 1.000000 4.024390
v 0.365853 1.000000 6.951220
v 3.292680 1.000000 10.609800
v -11.341500 1.000000 6.951220
v -14.268300 1.000000 4.024390
v -14.268300 1.000000 14.268300
v -11.341500 1.000000 14.268300
v 0.365853 1.000000 7.682930
v -0.365854 1.000000 10.609800
v -3.292680 1.000000 11.341500
v -3.292680 1.000000 7.682930
v -0.365854 1.000000 -10.609800
v -3.292680 1.000000 -10.609800
v -0.365854 1.000000 -6.951220
v 3.292680 1.000000 -6.951220
v 0.365853 1.000000 -4.024390
v 3.292680 1.000000 0.365854
v -3.292680 1.000000 -6.951220
v -6.951220 1.000000 -4.024390
v -6.951220 1.000000 -6.951220
v 0.365853 1.000000 -14.268300
v 3.292680 1.000000 -14.268300
v 3.292680 1.000000 -15.000000
v 3.292680 1.000000 -11.341500
v 0.365853 1.000000 -15.000000
v 10.609800 1.000000 -14.268300
v 7.682930 1.000000 -11.341500
v 10.609800 1.000000 -10.609800
v 7.682930 1.000000 -6.951220
v 11.341500 1.000000 -4.024390
v 11.341500 1.000000 -6.951220
v 7.682930 1.000000 -4.024390
v 11.341500 1.000000 -7.682930
v 11.341500 1.000000 -10.609800
v 7.682930 1.000000 -7.682930
v 14.268300 1.000000 -14.268300
v 11.341500 1.000000 -14.268300
v 14.268300 1.000000 14.268300
v 11.341500 1.000000 11.341500
v 7.682930 1.000000 14.268300
v 7.682930 1.000000 11.341500
v 6.951220 1.000000 -10.609800
v 4.024390 1.000000 -7.682930
v 6.951220 1.000000 -3.292680
v 3.292680 1.000000 -10.609800
v 0.365853 1.000000 -11.341500
v 0.365853 1.000000 -7.682930
v 10.609800 1.000000 -3.292680
v 7.682930 1.000000 -0.365853
v 10.609800 1.000000 10.609800
v 4.024390 1.000000 -0.365853
v 7.682930 1.000000 7.682930
v 6.951220 1.000000 10.609800
v 4.024390 1.000000 7.682930
v 4.024390 1.000000 11.341500
v 6.951220 1.000000 14.268300
v -0.365854 1.000000 11.341500
v -10.609800 1.000000 14.268300
v 6.951220 1.000000 0.365854
v 4.024390 1.000000 3.292680
v 6.951220 1.000000 6.951220
v 0.365853 1.000000 0.365854
v -0.365854 1.000000 0.365854
v -3.292680 1.000000 0.365854
v -3.292680 1.000000 -0.365853
v -14.268300 1.000000 3.292680
v 4.024390 1.000000 6.951220
v -4.024390 1.000000 -11.341500
v -6.951220 1.000000 -14.268300
v -6.951220 1.000000 -10.609800
v -4.024390 1.000000 -7.682930
v -10.609800 1.000000 -7.682930
v -0.365854 1.000000 -3.292680
v -10.609800 1.000000 -0.365853
v 15.000000 3.000000 15.000000
v 15.000000 0.000000 -15.000000
v 15.000000 3.000000 -15.000000
v 15.000000 0.000000 15.000000
v 3.292680 3.000000 -15.000000
v 0.365853 3.000000 -15.000000
v -6.951220 3.000000 -14.268300
v 0.365853 3.000000 -14.268300
v -7.682930 3.000000 -14.268300
v -6.951220 3.000000 -10.609800
v -14.268300 3.000000 -4.024390
v -14.268300 3.000000 -14.268300
v -14.268300 3.000000 -3.292680
v -14.268300 3.000000 3.292680
v -14.268300 3.000000 4.024390
v -7.682930 3.000000 -10.609800
v -10.609800 3.000000 -4.024390
v -11.341500 3.000000 -3.292680
v -10.609800 3.000000 -0.365853
v -10.609800 3.000000 -11.341500
v -11.341500 3.000000 -11.341500
v -10.609800 3.000000 -7.682930
v 0.365853 3.000000 -11.341500
v -0.365854 3.000000 -10.609800
v 0.365853 3.000000 -7.682930
v -3.292680 3.000000 -10.609800
v -4.024390 3.000000 -11.341500
v -4.024390 3.000000 -7.682930
v -3.292680 3.000000 -6.951220
v -6.951220 3.000000 -6.951220
v -7.682930 3.000000 -6.951220
v -6.951220 3.000000 -4.024390
v -11.341500 3.000000 -6.951220
v 14.268300 3.000000 -14.268300
v 11.341500 3.000000 -14.268300
v 10.609800 3.000000 -14.268300
v 11.341500 3.000000 -10.609800
v 3.292680 3.000000 -14.268300
v 14.268300 3.000000 14.268300
v 7.682930 3.000000 14.268300
v 7.682930 3.000000 11.341500
v 6.951220 3.000000 14.268300
v -10.609800 3.000000 14.268300
v -10.609800 3.000000 7.682930
v -11.341500 3.000000 14.268300
v -14.268300 3.000000 14.268300
v 10.609800 3.000000 -10.609800
v 6.951220 3.000000 -10.609800
v 7.682930 3.000000 -7.682930
v 7.682930 3.000000 -11.341500
v 7.682930 3.000000 -6.951220
v 6.951220 3.000000 -3.292680
v 3.292680 3.000000 -11.341500
v 3.292680 3.000000 -10.609800
v 11.341500 3.000000 -6.951220
v 11.341500 3.000000 -7.682930
v 11.341500 3.000000 -4.024390
v 10.609800 3.000000 -3.292680
v 11.341500 3.000000 11.341500
v 7.682930 3.000000 -4.024390
v 10.609800 3.000000 10.609800
v 6.951220 3.000000 10.609800
v 4.024390 3.000000 -7.682930
v 3.292680 3.000000 -6.951220
v 4.024390 3.000000 -0.365853
v -0.365854 3.000000 -6.951220
v 7.682930 3.000000 -0.365853
v 6.951220 3.000000 0.365854
v 7.682930 3.000000 7.682930
v 3.292680 3.000000 0.365854
v 6.951220 3.000000 6.951220
v 4.024390 3.000000 7.682930
v 4.024390 3.000000 6.951220
v 3.292680 3.000000 4.024390
v 4.024390 3.000000 3.292680
v 3.292680 3.000000 10.609800
v 4.024390 3.000000 11.341500
v -0.365854 3.000000 11.341500
v -0.365854 3.000000 10.609800
v 0.365853 3.000000 -4.024390
v -0.365854 3.000000 -3.292680
v 0.365853 3.000000 0.365854
v -7.682930 3.000000 -3.292680
v -0.365854 3.000000 0.365854
v -3.292680 3.000000 0.365854
v -3.292680 3.000000 -0.365853
v -11.341500 3.000000 0.365854
v 0.365853 3.000000 6.951220
v -3.292680 3.000000 7.682930
v 0.365853 3.000000 7.682930
v -4.024390 3.000000 10.609800
v -4.024390 3.000000 7.682930
v -11.341500 3.000000 6.951220
v -3.292680 3.000000 11.341500
v -7.682930 3.000000 11.341500
v -7.682930 3.000000 10.609800
vn -1.0000 0.0000 0.0000
vn 0.0000 1.0000 0.0000
vn 1.0000 0.0000 0.0000
vn 0.0000 0.0000 -1.0000
vn 0.0000 -1.0000 0.0000
vn 0.0000 0.0000 1.0000
usemtl Woodlabyrinth
s off
f 1//1 2//1 3//1
f 2//1 1//1 4//1
f 5//2 6//2 7//2
f 8//2 9//2 10//2
f 8//2 11//2 9//2
f 11//2 12//2 13//2
f 12//2 11//2 8//2
f 14//2 15//2 16//2
f 15//2 17//2 18//2
f 17//2 15//2 14//2
f 19//2 20//2 21//2
f 13//2 20//2 19//2
f 22//2 13//2 12//2
f 13//2 22//2 20//2
f 23//2 24//2 25//2
f 23//2 26//2 24//2
f 27//2 26//2 23//2
f 28//2 26//2 27//2
f 26//2 28//2 29//2
f 30//2 25//2 24//2
f 30//2 31//2 25//2
f 32//2 31//2 33//2
f 33//2 31//2 30//2
f 34//2 35//2 36//2
f 37//2 38//2 39//2
f 36//2 38//2 37//2
f 40//2 36//2 35//2
f 36//2 40//2 38//2
f 41//2 40//2 42//2
f 40//2 41//2 38//2
f 43//2 44//2 45//2
f 44//2 43//2 46//2
f 43//2 45//2 47//2
f 48//2 49//2 50//2
f 44//2 49//2 48//2
f 49//2 44//2 46//2
f 51//2 52//2 53//2
f 52//2 51//2 54//2
f 50//2 55//2 56//2
f 57//2 50//2 49//2
f 50//2 57//2 55//2
f 56//2 58//2 59//2
f 55//2 58//2 56//2
f 53//2 58//2 55//2
f 52//2 58//2 53//2
f 58//2 52//2 60//2
f 61//2 60//2 52//2
f 62//2 61//2 63//2
f 61//2 62//2 60//2
f 64//2 65//2 66//2
f 67//2 65//2 64//2
f 68//2 46//2 43//2
f 46//2 68//2 67//2
f 69//2 67//2 68//2
f 67//2 69//2 65//2
f 70//2 71//2 72//2
f 66//2 71//2 70//2
f 73//2 66//2 65//2
f 66//2 73//2 71//2
f 74//2 72//2 71//2
f 74//2 75//2 72//2
f 76//2 75//2 74//2
f 77//2 75//2 76//2
f 75//2 77//2 78//2
f 79//2 78//2 77//2
f 31//2 32//2 79//2
f 32//2 78//2 79//2
f 80//2 32//2 18//2
f 32//2 80//2 78//2
f 80//2 18//2 17//2
f 81//2 82//2 83//2
f 39//2 82//2 81//2
f 84//2 39//2 38//2
f 39//2 84//2 82//2
f 85//2 82//2 84//2
f 86//2 85//2 87//2
f 85//2 86//2 82//2
f 88//2 86//2 7//2
f 86//2 88//2 82//2
f 88//2 7//2 6//2
f 83//2 82//2 89//2
f 43//2 90//2 68//2
f 91//2 90//2 43//2
f 92//2 90//2 91//2
f 90//2 92//2 93//2
f 10//2 93//2 92//2
f 94//2 10//2 9//2
f 10//2 94//2 93//2
f 95//2 87//2 85//2
f 21//2 87//2 95//2
f 96//2 21//2 20//2
f 21//2 96//2 87//2
f 97//3 98//3 99//3
f 98//3 97//3 100//3
f 99//4 45//4 101//4
f 45//4 98//4 47//4
f 98//4 45//4 99//4
f 47//4 2//4 102//4
f 47//4 3//4 2//4
f 3//4 47//4 98//4
f 1//5 98//5 100//5
f 98//5 1//5 3//5
f 1//6 97//6 4//6
f 97//6 1//6 100//6
f 102//2 103//2 104//2
f 103//2 105//2 106//2
f 102//2 105//2 103//2
f 2//2 105//2 102//2
f 2//2 107//2 108//2
f 107//2 2//2 109//2
f 109//2 2//2 110//2
f 4//2 110//2 2//2
f 110//2 4//2 111//2
f 105//2 2//2 108//2
f 106//2 105//2 112//2
f 113//2 114//2 115//2
f 107//2 114//2 113//2
f 114//2 107//2 109//2
f 116//2 117//2 118//2
f 119//2 120//2 121//2
f 119//2 122//2 120//2
f 123//2 122//2 119//2
f 124//2 122//2 123//2
f 122//2 124//2 125//2
f 124//2 126//2 125//2
f 126//2 127//2 128//2
f 124//2 127//2 126//2
f 118//2 127//2 124//2
f 118//2 129//2 127//2
f 129//2 118//2 117//2
f 99//2 130//2 97//2
f 99//2 131//2 130//2
f 131//2 132//2 133//2
f 99//2 132//2 131//2
f 101//2 132//2 99//2
f 132//2 101//2 134//2
f 135//2 97//2 130//2
f 136//2 97//2 135//2
f 137//2 138//2 136//2
f 138//2 97//2 136//2
f 4//2 138//2 139//2
f 140//2 141//2 139//2
f 4//2 139//2 141//2
f 4//2 141//2 142//2
f 138//2 4//2 97//2
f 111//2 4//2 142//2
f 133//2 132//2 143//2
f 144//2 145//2 146//2
f 145//2 144//2 147//2
f 148//2 147//2 144//2
f 149//2 144//2 146//2
f 144//2 149//2 150//2
f 145//2 151//2 152//2
f 151//2 145//2 147//2
f 153//2 154//2 155//2
f 156//2 154//2 153//2
f 156//2 148//2 154//2
f 147//2 148//2 156//2
f 157//2 155//2 154//2
f 157//2 137//2 155//2
f 138//2 137//2 158//2
f 158//2 137//2 157//2
f 159//2 160//2 161//2
f 121//2 160//2 159//2
f 121//2 162//2 160//2
f 162//2 121//2 120//2
f 163//2 164//2 165//2
f 161//2 164//2 163//2
f 161//2 166//2 164//2
f 166//2 161//2 160//2
f 167//2 165//2 164//2
f 168//2 167//2 169//2
f 167//2 168//2 165//2
f 170//2 169//2 171//2
f 169//2 170//2 168//2
f 172//2 168//2 170//2
f 110//2 170//2 171//2
f 170//2 110//2 111//2
f 168//2 172//2 173//2
f 174//2 172//2 175//2
f 172//2 174//2 173//2
f 176//2 177//2 178//2
f 128//2 177//2 176//2
f 128//2 179//2 177//2
f 179//2 128//2 127//2
f 178//2 177//2 180//2
f 115//2 181//2 182//2
f 115//2 183//2 181//2
f 183//2 115//2 114//2
f 184//2 185//2 186//2
f 187//2 185//2 188//2
f 184//2 188//2 185//2
f 189//2 188//2 184//2
f 141//2 140//2 189//2
f 188//2 189//2 140//2
f 185//2 187//2 190//2
f 191//2 187//2 192//2
f 187//2 191//2 190//2
f 29//4 142//4 141//4
f 142//4 29//4 28//4
f 142//3 27//3 111//3
f 27//3 142//3 28//3
f 82//4 110//4 171//4
f 110//4 82//4 88//4
f 27//6 170//6 111//6
f 170//6 27//6 23//6
f 110//3 6//3 109//3
f 6//3 110//3 88//3
f 115//3 20//3 113//3
f 20//3 115//3 96//3
f 6//6 114//6 109//6
f 114//6 6//6 5//6
f 20//4 107//4 113//4
f 107//4 20//4 22//4
f 107//3 12//3 108//3
f 12//3 107//3 22//3
f 12//6 105//6 108//6
f 105//6 12//6 8//6
f 29//1 189//1 26//1
f 189//1 29//1 141//1
f 78//4 139//4 138//4
f 139//4 78//4 80//4
f 139//3 17//3 140//3
f 17//3 139//3 80//3
f 24//4 189//4 184//4
f 189//4 24//4 26//4
f 17//6 188//6 140//6
f 188//6 17//6 14//6
f 7//1 114//1 5//1
f 114//1 7//1 183//1
f 87//4 115//4 182//4
f 115//4 87//4 96//4
f 7//6 181//6 183//6
f 181//6 7//6 86//6
f 13//1 117//1 11//1
f 117//1 13//1 129//1
f 93//4 118//4 124//4
f 118//4 93//4 94//4
f 13//6 127//6 129//6
f 127//6 13//6 19//6
f 118//3 9//3 116//3
f 9//3 118//3 94//3
f 9//4 117//4 116//4
f 117//4 9//4 11//4
f 106//3 91//3 103//3
f 91//3 106//3 92//3
f 18//1 192//1 15//1
f 192//1 18//1 191//1
f 190//3 33//3 185//3
f 33//3 190//3 32//3
f 16//4 192//4 187//4
f 192//4 16//4 15//4
f 18//6 190//6 191//6
f 190//6 18//6 32//6
f 181//3 87//3 182//3
f 87//3 181//3 86//3
f 21//1 127//1 19//1
f 127//1 21//1 179//1
f 21//6 177//6 179//6
f 177//6 21//6 95//6
f 38//4 128//4 176//4
f 128//4 38//4 41//4
f 128//3 42//3 126//3
f 42//3 128//3 41//3
f 125//3 35//3 122//3
f 35//3 125//3 40//3
f 42//6 125//6 126//6
f 125//6 42//6 40//6
f 10//1 105//1 8//1
f 105//1 10//1 112//1
f 10//6 106//6 112//6
f 106//6 10//6 92//6
f 91//6 104//6 103//6
f 104//6 91//6 43//6
f 16//1 188//1 14//1
f 188//1 16//1 187//1
f 186//3 24//3 184//3
f 24//3 186//3 30//3
f 33//6 186//6 185//6
f 186//6 33//6 30//6
f 178//3 38//3 176//3
f 38//3 178//3 84//3
f 93//1 123//1 90//1
f 123//1 93//1 124//1
f 68//4 123//4 119//4
f 123//4 68//4 90//4
f 121//3 68//3 119//3
f 68//3 121//3 69//3
f 35//6 120//6 122//6
f 120//6 35//6 34//6
f 104//3 47//3 102//3
f 47//3 104//3 43//3
f 79//1 175//1 31//1
f 175//1 79//1 174//1
f 173//3 76//3 168//3
f 76//3 173//3 77//3
f 25//4 175//4 172//4
f 175//4 25//4 31//4
f 79//6 173//6 174//6
f 173//6 79//6 77//6
f 169//3 82//3 171//3
f 82//3 169//3 89//3
f 85//1 177//1 95//1
f 177//1 85//1 180//1
f 85//6 178//6 180//6
f 178//6 85//6 84//6
f 36//1 120//1 34//1
f 120//1 36//1 162//1
f 161//3 65//3 159//3
f 65//3 161//3 73//3
f 65//4 121//4 159//4
f 121//4 65//4 69//4
f 36//6 160//6 162//6
f 160//6 36//6 37//6
f 25//1 170//1 23//1
f 170//1 25//1 172//1
f 83//4 169//4 167//4
f 169//4 83//4 89//4
f 165//3 71//3 163//3
f 71//3 165//3 74//3
f 76//6 165//6 168//6
f 165//6 76//6 74//6
f 39//1 160//1 37//1
f 160//1 39//1 166//1
f 39//6 164//6 166//6
f 164//6 39//6 81//6
f 71//4 161//4 163//4
f 161//4 71//4 73//4
f 67//1 149//1 46//1
f 149//1 67//1 150//1
f 145//3 49//3 146//3
f 49//3 145//3 57//3
f 49//4 149//4 146//4
f 149//4 49//4 46//4
f 67//6 144//6 150//6
f 144//6 67//6 64//6
f 44//1 101//1 45//1
f 101//1 44//1 134//1
f 44//6 132//6 134//6
f 132//6 44//6 48//6
f 78//1 158//1 75//1
f 158//1 78//1 138//1
f 60//4 136//4 135//4
f 136//4 60//4 62//4
f 136//3 63//3 137//3
f 63//3 136//3 62//3
f 72//4 158//4 157//4
f 158//4 72//4 75//4
f 155//3 52//3 153//3
f 52//3 155//3 61//3
f 63//6 155//6 137//6
f 155//6 63//6 61//6
f 83//1 164//1 81//1
f 164//1 83//1 167//1
f 66//1 144//1 64//1
f 144//1 66//1 148//1
f 52//4 156//4 153//4
f 156//4 52//4 54//4
f 66//6 154//6 148//6
f 154//6 66//6 70//6
f 156//3 51//3 147//3
f 51//3 156//3 54//3
f 55//4 145//4 152//4
f 145//4 55//4 57//4
f 151//3 55//3 152//3
f 55//3 151//3 53//3
f 51//6 151//6 147//6
f 151//6 51//6 53//6
f 60//1 130//1 58//1
f 130//1 60//1 135//1
f 72//1 154//1 70//1
f 154//1 72//1 157//1
f 50//1 132//1 48//1
f 132//1 50//1 143//1
f 133//3 59//3 131//3
f 59//3 133//3 56//3
f 50//6 133//6 143//6
f 133//6 50//6 56//6
f 59//6 130//6 131//6
f 130//6 59//6 58//6
