# Blender v2.77 (sub 0) OBJ File: ''
# www.blender.org
mtllib aLabyrinth.mtl
o aLabyrinth
v -15.000000 0.000000 15.000000
v -15.000000 3.000000 -15.000000
v -15.000000 0.000000 -15.000000
v -15.000000 3.000000 15.000000
v -4.024390 1.000000 -14.268300
v -6.951220 1.000000 -11.341500
v -4.024390 1.000000 -6.951220
v -11.341500 1.000000 -11.341500
v -14.268300 1.000000 -14.268300
v -11.341500 1.000000 -10.609800
v -11.341500 1.000000 -7.682930
v -14.268300 1.000000 3.292680
v -3.292680 1.000000 -15.000000
v -0.365854 1.000000 -14.268300
v -0.365854 1.000000 -15.000000
v -0.365854 1.000000 -11.341500
v -3.292680 1.000000 -7.682930
v 3.292680 1.000000 7.682930
v 0.365853 1.000000 10.609800
v 3.292680 1.000000 11.341500
v -0.365854 1.000000 7.682930
v -0.365854 1.000000 10.609800
v 7.682930 1.000000 -3.292680
v 6.951220 1.000000 -0.365853
v 7.682930 1.000000 -0.365853
v 4.024390 1.000000 11.341500
v 4.024390 1.000000 -3.292680
v 14.268300 1.000000 7.682930
v 11.341500 1.000000 10.609800
v 14.268300 1.000000 14.268300
v 10.609800 1.000000 10.609800
v 7.682930 1.000000 7.682930
v 7.682930 1.000000 11.341500
v 10.609800 1.000000 14.268300
v 6.951220 1.000000 11.341500
v 0.365853 1.000000 14.268300
v 11.341500 1.000000 14.268300
v 10.609800 1.000000 -10.609800
v 7.682930 1.000000 -10.609800
v 14.268300 1.000000 -14.268300
v 11.341500 1.000000 -11.341500
v 14.268300 1.000000 6.951220
v 11.341500 1.000000 4.024390
v 10.609800 1.000000 4.024390
v 7.682930 1.000000 6.951220
v 6.951220 1.000000 -10.609800
v 4.024390 1.000000 -7.682930
v 6.951220 1.000000 -4.024390
v -0.365854 1.000000 -10.609800
v 4.024390 1.000000 -6.951220
v -6.951220 1.000000 -4.024390
v 3.292680 1.000000 4.024390
v -0.365854 1.000000 6.951220
v 3.292680 1.000000 6.951220
v -3.292680 1.000000 4.024390
v -3.292680 1.000000 14.268300
v -0.365854 1.000000 14.268300
v -7.682930 1.000000 -10.609800
v -10.609800 1.000000 -7.682930
v -7.682930 1.000000 -3.292680
v 3.292680 1.000000 -3.292680
v 0.365853 1.000000 -0.365853
v 3.292680 1.000000 3.292680
v -10.609800 1.000000 -0.365853
v 0.365853 1.000000 0.365854
v -4.024390 1.000000 3.292680
v -6.951220 1.000000 0.365854
v -6.951220 1.000000 11.341500
v -4.024390 1.000000 14.268300
v -14.268300 1.000000 14.268300
v -14.268300 1.000000 11.341500
v -7.682930 1.000000 0.365854
v -10.609800 1.000000 3.292680
v -7.682930 1.000000 6.951220
v -11.341500 1.000000 0.365854
v -10.609800 1.000000 4.024390
v -11.341500 1.000000 6.951220
v -14.268300 1.000000 4.024390
v -11.341500 1.000000 7.682930
v -7.682930 1.000000 10.609800
v -7.682930 1.000000 7.682930
v -14.268300 1.000000 10.609800
v 15.000000 3.000000 15.000000
v 15.000000 0.000000 -15.000000
v 15.000000 3.000000 -15.000000
v 15.000000 0.000000 15.000000
v -0.365854 3.000000 -15.000000
v -3.292680 3.000000 -15.000000
v -4.024390 3.000000 -14.268300
v -3.292680 3.000000 -7.682930
v -14.268300 3.000000 -14.268300
v -14.268300 3.000000 3.292680
v -14.268300 3.000000 4.024390
v -14.268300 3.000000 10.609800
v -14.268300 3.000000 11.341500
v 0.365853 3.000000 10.609800
v -0.365854 3.000000 10.609800
v 0.365853 3.000000 14.268300
v 11.341500 3.000000 10.609800
v 10.609800 3.000000 10.609800
v 11.341500 3.000000 14.268300
v 7.682930 3.000000 6.951220
v 14.268300 3.000000 7.682930
v 14.268300 3.000000 6.951220
v 7.682930 3.000000 7.682930
v 14.268300 3.000000 -14.268300
v -0.365854 3.000000 -14.268300
v 14.268300 3.000000 14.268300
v 10.609800 3.000000 14.268300
v -0.365854 3.000000 14.268300
v -3.292680 3.000000 14.268300
v -3.292680 3.000000 4.024390
v -4.024390 3.000000 14.268300
v -14.268300 3.000000 14.268300
v 6.951220 3.000000 -0.365853
v 7.682930 3.000000 -0.365853
v 6.951220 3.000000 11.341500
v 7.682930 3.000000 11.341500
v 4.024390 3.000000 -6.951220
v 4.024390 3.000000 -7.682930
v -4.024390 3.000000 -6.951220
v -10.609800 3.000000 4.024390
v -10.609800 3.000000 3.292680
v -10.609800 3.000000 -7.682930
v -11.341500 3.000000 -7.682930
v -10.609800 3.000000 -0.365853
v -11.341500 3.000000 6.951220
v -7.682930 3.000000 7.682930
v -7.682930 3.000000 6.951220
v -11.341500 3.000000 7.682930
v 0.365853 3.000000 -0.365853
v -6.951220 3.000000 0.365854
v 0.365853 3.000000 0.365854
v -7.682930 3.000000 0.365854
v -11.341500 3.000000 0.365854
v -6.951220 3.000000 11.341500
v -7.682930 3.000000 10.609800
v -6.951220 3.000000 -11.341500
v -7.682930 3.000000 -10.609800
v -6.951220 3.000000 -4.024390
v -11.341500 3.000000 -11.341500
v -11.341500 3.000000 -10.609800
v -0.365854 3.000000 6.951220
v 3.292680 3.000000 7.682930
v 3.292680 3.000000 6.951220
v -0.365854 3.000000 7.682930
v 3.292680 3.000000 3.292680
v 3.292680 3.000000 4.024390
v -4.024390 3.000000 3.292680
v 11.341500 3.000000 -11.341500
v 10.609800 3.000000 -10.609800
v 11.341500 3.000000 4.024390
v 7.682930 3.000000 -10.609800
v 6.951220 3.000000 -4.024390
v 6.951220 3.000000 -10.609800
v -0.365854 3.000000 -11.341500
v -0.365854 3.000000 -10.609800
v 10.609800 3.000000 4.024390
v 7.682930 3.000000 -3.292680
v 4.024390 3.000000 -3.292680
v 3.292680 3.000000 -3.292680
v -7.682930 3.000000 -3.292680
v 4.024390 3.000000 11.341500
v 3.292680 3.000000 11.341500
vn -1.0000 0.0000 0.0000
vn 0.0000 1.0000 0.0000
vn 1.0000 0.0000 0.0000
vn 0.0000 0.0000 -1.0000
vn 0.0000 -1.0000 0.0000
vn 0.0000 0.0000 1.0000
usemtl Woodlabyrinth
s off
f 1//1 2//1 3//1
f 2//1 1//1 4//1
f 5//2 6//2 7//2
f 5//2 8//2 6//2
f 9//2 10//2 8//2
f 10//2 9//2 11//2
f 12//2 11//2 9//2
f 9//2 8//2 5//2
f 13//2 14//2 15//2
f 14//2 13//2 16//2
f 17//2 16//2 13//2
f 18//2 19//2 20//2
f 21//2 19//2 18//2
f 19//2 21//2 22//2
f 23//2 24//2 25//2
f 26//2 24//2 27//2
f 27//2 24//2 23//2
f 28//2 29//2 30//2
f 28//2 31//2 29//2
f 32//2 31//2 28//2
f 33//2 31//2 32//2
f 31//2 33//2 34//2
f 35//2 34//2 33//2
f 24//2 26//2 35//2
f 26//2 34//2 35//2
f 36//2 26//2 20//2
f 36//2 20//2 19//2
f 26//2 36//2 34//2
f 30//2 29//2 37//2
f 23//2 38//2 39//2
f 40//2 41//2 42//2
f 14//2 41//2 40//2
f 41//2 14//2 16//2
f 43//2 42//2 41//2
f 44//2 42//2 43//2
f 38//2 23//2 44//2
f 25//2 44//2 23//2
f 44//2 45//2 42//2
f 45//2 44//2 25//2
f 46//2 47//2 48//2
f 49//2 47//2 46//2
f 49//2 17//2 47//2
f 16//2 17//2 49//2
f 50//2 48//2 47//2
f 7//2 48//2 50//2
f 7//2 51//2 48//2
f 51//2 7//2 6//2
f 52//2 53//2 54//2
f 55//2 21//2 53//2
f 21//2 55//2 22//2
f 55//2 53//2 52//2
f 22//2 55//2 56//2
f 22//2 56//2 57//2
f 58//2 59//2 60//2
f 10//2 59//2 58//2
f 59//2 10//2 11//2
f 61//2 62//2 63//2
f 60//2 62//2 61//2
f 60//2 64//2 62//2
f 64//2 60//2 59//2
f 65//2 63//2 62//2
f 65//2 66//2 63//2
f 67//2 66//2 65//2
f 68//2 66//2 67//2
f 66//2 68//2 69//2
f 70//2 68//2 71//2
f 68//2 70//2 69//2
f 72//2 73//2 74//2
f 75//2 73//2 72//2
f 75//2 12//2 73//2
f 11//2 12//2 75//2
f 76//2 74//2 73//2
f 76//2 77//2 74//2
f 77//2 78//2 79//2
f 78//2 77//2 76//2
f 79//2 80//2 81//2
f 79//2 82//2 80//2
f 82//2 79//2 78//2
f 83//3 84//3 85//3
f 84//3 83//3 86//3
f 85//4 15//4 87//4
f 3//4 15//4 84//4
f 84//4 15//4 85//4
f 13//4 2//4 88//4
f 13//4 3//4 2//4
f 15//4 3//4 13//4
f 1//5 84//5 86//5
f 84//5 1//5 3//5
f 1//6 83//6 4//6
f 83//6 1//6 86//6
f 88//2 89//2 90//2
f 88//2 91//2 89//2
f 2//2 92//2 91//2
f 4//2 92//2 2//2
f 92//2 4//2 93//2
f 93//2 4//2 94//2
f 94//2 4//2 95//2
f 2//2 91//2 88//2
f 96//2 97//2 98//2
f 99//2 100//2 101//2
f 102//2 103//2 104//2
f 103//2 102//2 105//2
f 104//2 85//2 106//2
f 87//2 106//2 85//2
f 106//2 87//2 107//2
f 85//2 104//2 83//2
f 103//2 83//2 104//2
f 108//2 83//2 103//2
f 101//2 83//2 108//2
f 109//2 101//2 100//2
f 109//2 83//2 101//2
f 98//2 83//2 109//2
f 110//2 98//2 97//2
f 110//2 83//2 98//2
f 4//2 110//2 111//2
f 112//2 113//2 111//2
f 4//2 111//2 113//2
f 4//2 113//2 114//2
f 110//2 4//2 83//2
f 95//2 4//2 114//2
f 115//2 102//2 116//2
f 117//2 102//2 115//2
f 102//2 117//2 105//2
f 105//2 117//2 118//2
f 90//2 119//2 120//2
f 90//2 121//2 119//2
f 121//2 90//2 89//2
f 92//2 122//2 123//2
f 122//2 92//2 93//2
f 124//2 125//2 126//2
f 127//2 128//2 129//2
f 128//2 127//2 130//2
f 131//2 132//2 133//2
f 129//2 132//2 134//2
f 126//2 132//2 131//2
f 132//2 126//2 134//2
f 126//2 135//2 134//2
f 135//2 126//2 125//2
f 132//2 129//2 136//2
f 128//2 136//2 129//2
f 137//2 136//2 128//2
f 95//2 137//2 94//2
f 137//2 95//2 136//2
f 138//2 139//2 140//2
f 141//2 139//2 138//2
f 139//2 141//2 142//2
f 143//2 144//2 145//2
f 144//2 143//2 146//2
f 147//2 112//2 148//2
f 113//2 112//2 149//2
f 149//2 112//2 147//2
f 150//2 151//2 152//2
f 150//2 153//2 151//2
f 154//2 153//2 155//2
f 150//2 155//2 153//2
f 156//2 155//2 150//2
f 155//2 156//2 157//2
f 152//2 151//2 158//2
f 153//2 154//2 159//2
f 154//2 160//2 159//2
f 147//2 160//2 161//2
f 154//2 161//2 160//2
f 140//2 161//2 154//2
f 140//2 162//2 161//2
f 162//2 140//2 139//2
f 148//2 160//2 147//2
f 160//2 148//2 163//2
f 145//2 163//2 148//2
f 144//2 163//2 145//2
f 163//2 144//2 164//2
f 69//4 114//4 113//4
f 114//4 69//4 70//4
f 114//3 71//3 95//3
f 71//3 114//3 70//3
f 80//4 94//4 137//4
f 94//4 80//4 82//4
f 71//6 136//6 95//6
f 136//6 71//6 68//6
f 94//3 78//3 93//3
f 78//3 94//3 82//3
f 122//3 73//3 123//3
f 73//3 122//3 76//3
f 73//4 92//4 123//4
f 92//4 73//4 12//4
f 78//6 122//6 93//6
f 122//6 78//6 76//6
f 92//3 9//3 91//3
f 9//3 92//3 12//3
f 9//6 89//6 91//6
f 89//6 9//6 5//6
f 136//3 67//3 132//3
f 67//3 136//3 68//3
f 79//1 127//1 77//1
f 127//1 79//1 130//1
f 74//4 127//4 129//4
f 127//4 74//4 77//4
f 79//6 128//6 130//6
f 128//6 79//6 81//6
f 75//1 125//1 11//1
f 125//1 75//1 135//1
f 62//4 126//4 131//4
f 126//4 62//4 64//4
f 75//6 134//6 135//6
f 134//6 75//6 72//6
f 126//3 59//3 124//3
f 59//3 126//3 64//3
f 59//4 125//4 124//4
f 125//4 59//4 11//4
f 10//1 141//1 8//1
f 141//1 10//1 142//1
f 140//3 6//3 138//3
f 6//3 140//3 51//3
f 10//6 139//6 142//6
f 139//6 10//6 58//6
f 6//4 141//4 138//4
f 141//4 6//4 8//4
f 74//1 134//1 72//1
f 134//1 74//1 129//1
f 80//1 128//1 81//1
f 128//1 80//1 137//1
f 67//6 133//6 132//6
f 133//6 67//6 65//6
f 60//1 139//1 58//1
f 139//1 60//1 162//1
f 48//4 140//4 154//4
f 140//4 48//4 51//4
f 60//6 161//6 162//6
f 161//6 60//6 61//6
f 90//3 13//3 88//3
f 13//3 90//3 17//3
f 69//1 149//1 66//1
f 149//1 69//1 113//1
f 57//4 111//4 110//4
f 111//4 57//4 56//4
f 111//3 55//3 112//3
f 55//3 111//3 56//3
f 63//4 149//4 147//4
f 149//4 63//4 66//4
f 55//6 148//6 112//6
f 148//6 55//6 52//6
f 133//3 62//3 131//3
f 62//3 133//3 65//3
f 7//1 89//1 5//1
f 89//1 7//1 121//1
f 47//4 90//4 120//4
f 90//4 47//4 17//4
f 7//6 119//6 121//6
f 119//6 7//6 50//6
f 57//1 97//1 22//1
f 97//1 57//1 110//1
f 34//4 98//4 109//4
f 98//4 34//4 36//4
f 98//3 19//3 96//3
f 19//3 98//3 36//3
f 19//4 97//4 96//4
f 97//4 19//4 22//4
f 21//1 143//1 53//1
f 143//1 21//1 146//1
f 163//3 27//3 160//3
f 27//3 163//3 26//3
f 21//6 144//6 146//6
f 144//6 21//6 18//6
f 54//4 143//4 145//4
f 143//4 54//4 53//4
f 119//3 47//3 120//3
f 47//3 119//3 50//3
f 49//1 156//1 16//1
f 156//1 49//1 157//1
f 41//4 156//4 150//4
f 156//4 41//4 16//4
f 49//6 155//6 157//6
f 155//6 49//6 46//6
f 14//1 87//1 15//1
f 87//1 14//1 107//1
f 14//6 106//6 107//6
f 106//6 14//6 40//6
f 20//1 144//1 18//1
f 144//1 20//1 164//1
f 63//1 161//1 61//1
f 161//1 63//1 147//1
f 54//1 148//1 52//1
f 148//1 54//1 145//1
f 20//6 163//6 164//6
f 163//6 20//6 26//6
f 159//3 39//3 153//3
f 39//3 159//3 23//3
f 27//6 159//6 160//6
f 159//6 27//6 23//6
f 35//1 115//1 24//1
f 115//1 35//1 117//1
f 118//3 32//3 105//3
f 32//3 118//3 33//3
f 35//6 118//6 117//6
f 118//6 35//6 33//6
f 32//6 103//6 105//6
f 103//6 32//6 28//6
f 42//4 102//4 104//4
f 102//4 42//4 45//4
f 102//3 25//3 116//3
f 25//3 102//3 45//3
f 25//4 115//4 116//4
f 115//4 25//4 24//4
f 48//1 155//1 46//1
f 155//1 48//1 154//1
f 152//3 41//3 150//3
f 41//3 152//3 43//3
f 39//6 151//6 153//6
f 151//6 39//6 38//6
f 34//1 100//1 31//1
f 100//1 34//1 109//1
f 30//4 101//4 108//4
f 101//4 30//4 37//4
f 101//3 29//3 99//3
f 29//3 101//3 37//3
f 29//4 100//4 99//4
f 100//4 29//4 31//4
f 30//1 103//1 28//1
f 103//1 30//1 108//1
f 42//1 106//1 40//1
f 106//1 42//1 104//1
f 44//1 151//1 38//1
f 151//1 44//1 158//1
f 44//6 152//6 158//6
f 152//6 44//6 43//6
